SplineFontDB: 3.0
FontName: TaameyDavidCLM-MediumOblique
FullName: Taamey David CLM Oblique
FamilyName: Taamey David CLM
Weight: Medium
Copyright: Copyright (c) 2009-2010 by Yoram Gnat (yoram.gnat@gmail.com)\nDistributed under the terms of GNU General Public License version 2(http://www.gnu.org/licenses/gpl.html). \n\nHebrew glyphs copyright 2002-2008 by Maxim Iorsh (iorsh@math.technion.ac.il).\nDistributed under the terms of GNU General Public License version 2(http://www.gnu.org/licenses/gpl.html). \n\nHebrew OpenType Layout logic copyright (c) 2003 & 2007, Ralph Hancock & John Hudson. This layout logic for Biblical Hebrew is open source software under the MIT License; for details  contact copyright holders at <license@tiro.com>.\n\nImplementation of above layout logic by Yoram Gnat (yoram.gnat@gmail.com) All rights reserved.\n\nLatin glyphs and part of punctuation copyright 1990 as an unpublished work by Bitstream Inc. \n\n
UComments: "The average width of a character (not including narrow chars) is 945.4" 
Version: 0.110
ItalicAngle: 10
UnderlinePosition: -170
UnderlineWidth: 70
Ascent: 1638
Descent: 410
LayerCount: 2
Layer: 0 0 "Back"  1
Layer: 1 0 "Fore"  0
XUID: [1021 594 1227166039 8190246]
FSType: 0
OS2Version: 0
OS2_WeightWidthSlopeOnly: 0
OS2_UseTypoMetrics: 0
CreationTime: 1244295734
ModificationTime: 1284281795
PfmFamily: 17
TTFWeight: 500
TTFWidth: 5
LineGap: 184
VLineGap: 0
Panose: 2 0 0 0 0 0 0 0 0 0
OS2TypoAscent: 1638
OS2TypoAOffset: 0
OS2TypoDescent: -410
OS2TypoDOffset: 0
OS2TypoLinegap: 184
OS2WinAscent: 1638
OS2WinAOffset: 0
OS2WinDescent: 883
OS2WinDOffset: 0
HheadAscent: 1638
HheadAOffset: 0
HheadDescent: -883
HheadDOffset: 0
OS2SubXSize: 1433
OS2SubYSize: 1331
OS2SubXOff: 0
OS2SubYOff: 286
OS2SupXSize: 1433
OS2SupYSize: 1331
OS2SupXOff: 0
OS2SupYOff: 976
OS2StrikeYSize: 102
OS2StrikeYPos: 512
OS2Vendor: 'YGNT'
OS2CodePages: 00000021.00000000
OS2UnicodeRanges: 8000086f.4000204a.00000000.00000000

StartChar: .notdef
Encoding: 65536 -1 0
Width: 1286
GlyphClass: 2
Flags: W
HStem: 0 98<373 1128> 1067 127<389.502 624.495> 1313 99<159 913>
VStem: 687 131<848.68 1010.93>
LayerCount: 2
Fore
SplineSet
398 1194 m 1
 555 1194 766 1182 814 1011 c 0
 815 1006 815 1003 816 999 c 0
 817 991 818 983 818 975 c 0
 818 915 783 847 732 798 c 0
 705 771 692 750 692 729 c 0
 692 726 693 723 693 720 c 0
 698 694 721 669 757 635 c 1
 726 595 686 564 642 541 c 1
 591 585 571 613 559 681 c 0
 558 687 557 692 557 698 c 0
 557 788 687 841 687 928 c 0
 687 933 688 939 687 944 c 0
 687 946 688 951 687 954 c 0
 658 1054 478 1067 352 1067 c 1
 361 1118 374 1159 398 1194 c 1
683 429 m 1
 737 388 772 349 810 299 c 1
 791 254 765 213 730 180 c 1
 681 217 638 254 598 304 c 1
 620 355 649 394 683 429 c 1
1128 98 m 1
 913 1313 l 1
 159 1313 l 1
 373 98 l 1
 1128 98 l 1
987 1412 m 1
 1236 0 l 1
 299 0 l 1
 50 1412 l 1
 987 1412 l 1
EndSplineSet
Validated: 1
EndChar

StartChar: dotnosp
Encoding: 775 775 3
Width: 0
GlyphClass: 4
Flags: W
HStem: 1322 229
VStem: -361 214
AnchorPoint: "A-1" -3.55859 0 mark 0
LayerCount: 2
Fore
SplineSet
-361 1438 m 1
 -341 1487 -315 1522 -275 1551 c 1
 -224 1522 -185 1487 -147 1438 c 1
 -168 1387 -195 1352 -235 1322 c 1
 -285 1352 -323 1387 -361 1438 c 1
EndSplineSet
Validated: 1
LCarets2: 1 0 
EndChar

StartChar: ringnosp
Encoding: 778 778 5
Width: 0
GlyphClass: 4
Flags: W
HStem: 1272 82<-317.841 -177.095> 1556 81<-339.049 -199.569>
VStem: -432 82<1386.03 1547.14> -167 86<1362.28 1526.89>
AnchorPoint: "A-1" -4.09473 0 mark 0
LayerCount: 2
Fore
SplineSet
-348 1454 m 0
 -338 1400 -288 1354 -239 1354 c 0
 -198 1354 -167 1390 -167 1435 c 0
 -167 1441 -166 1447 -167 1454 c 0
 -177 1510 -228 1556 -275 1556 c 0
 -318 1556 -350 1520 -350 1473 c 0
 -350 1467 -349 1461 -348 1454 c 0
-225 1272 m 0
 -355 1272 -432 1390 -432 1492 c 0
 -432 1569 -387 1637 -289 1637 c 256
 -189 1637 -103 1559 -84 1454 c 0
 -82 1442 -81 1431 -81 1420 c 0
 -81 1338 -134 1272 -225 1272 c 0
EndSplineSet
Validated: 1
EndChar

StartChar: atnah
Encoding: 1425 1425 7
Width: 0
GlyphClass: 4
Flags: W
HStem: -588 424
VStem: -88 84<-580.778 -393.18> 194 77<-587.994 -441.625>
AnchorPoint: "A-42" -228.87 0 mark 0
AnchorPoint: "A-54" -393.87 0 basemark 0
AnchorPoint: "A-53" -453.87 0 basemark 0
AnchorPoint: "A-52" -453.87 0 basemark 0
AnchorPoint: "A-51" -453.87 0 basemark 0
AnchorPoint: "A-52" -3.87012 0 mark 0
AnchorPoint: "A-50" -453.87 0 basemark 0
AnchorPoint: "A-49" -353.87 0 basemark 0
AnchorPoint: "A-44" 56.1299 0 mark 0
AnchorPoint: "A-40" -3.87012 0 mark 0
LayerCount: 2
Fore
SplineSet
-14 -176 m 17
 0 -168 15 -164 29 -164 c 0
 46 -164 61 -169 77 -176 c 9
 101 -308 l 17
 146 -320 261 -363 271 -581 c 1
 256 -586 244 -588 233 -588 c 0
 219 -588 207 -584 194 -581 c 1
 191 -566 177 -448 142 -419 c 1
 107 -387 84 -387 68 -387 c 0
 52 -387 29 -389 8 -421 c 1
 0 -429 -4 -444 -4 -469 c 0
 -4 -495 1 -532 12 -583 c 1
 -1 -589 -14 -592 -26 -592 c 0
 -40 -592 -54 -589 -67 -583 c 1
 -80 -539 -88 -494 -88 -453 c 0
 -88 -385 -64 -329 9 -308 c 9
 -14 -176 l 17
EndSplineSet
Validated: 1
LCarets2: 1 0 
MultipleSubs2: "Add hairspace after last low mark subtable" atnah hairspace
MultipleSubs2: "Add thinspace before narrow letter subtable" atnah thinspace
MultipleSubs2: "Add hairspace before low marked Qof" atnah hairspace
EndChar

StartChar: segolta
Encoding: 1426 1426 8
Width: 0
GlyphClass: 4
Flags: W
HStem: 1184 375
VStem: -429 409
AnchorPoint: "A-55" -153.788 0 mark 0
AnchorPoint: "A-36" -3.78809 0 mark 0
AnchorPoint: "A-35" -3.78809 0 mark 0
AnchorPoint: "A-57" -503.788 0 basemark 0
AnchorPoint: "A-56" -3.78809 0 basemark 0
AnchorPoint: "A-57" -3.78809 0 mark 0
AnchorPoint: "A-25" -3.78809 0 mark 0
LayerCount: 2
Fore
SplineSet
-342 1470 m 1
 -328 1510 -305 1537 -274 1559 c 1
 -235 1537 -206 1510 -177 1470 c 1
 -193 1433 -212 1406 -243 1382 c 1
 -282 1406 -314 1433 -342 1470 c 1
-183 1272 m 1
 -169 1310 -149 1337 -117 1361 c 1
 -77 1337 -47 1310 -20 1272 c 1
 -34 1233 -55 1206 -86 1184 c 1
 -126 1206 -156 1233 -183 1272 c 1
-429 1272 m 1
 -415 1310 -394 1337 -364 1361 c 1
 -323 1337 -293 1310 -266 1272 c 1
 -280 1233 -301 1206 -333 1184 c 1
 -371 1206 -402 1233 -429 1272 c 1
EndSplineSet
Validated: 1
LCarets2: 1 0 
EndChar

StartChar: shalshelet
Encoding: 1427 1427 9
Width: 0
VWidth: 1954
GlyphClass: 4
Flags: W
HStem: 1184 382
VStem: -377 258
AnchorPoint: "A-55" -4.94922 0 mark 0
AnchorPoint: "A-57" -504.949 0 basemark 0
AnchorPoint: "A-56" -4.94922 0 basemark 0
AnchorPoint: "A-57" -4.94922 0 mark 0
AnchorPoint: "A-23" -4.94922 0 mark 0
LayerCount: 2
Fore
SplineSet
-143 1566 m 9
 -265 1491 l 25
 -263 1480 l 25
 -153 1420 l 25
 -150 1405 l 25
 -234 1350 l 25
 -231 1336 l 25
 -119 1273 l 25
 -115 1252 l 25
 -211 1184 l 17
 -226 1182 -263 1180 -275 1180 c 0
 -298 1180 -320 1180 -342 1184 c 9
 -240 1256 l 25
 -243 1273 l 25
 -356 1334 l 25
 -353 1348 l 25
 -262 1407 l 25
 -265 1420 l 25
 -377 1480 l 25
 -377 1495 l 25
 -279 1568 l 17
 -265 1573 -231 1573 -218 1573 c 0
 -197 1573 -161 1568 -143 1566 c 9
EndSplineSet
Validated: 1
LCarets2: 1 0 
EndChar

StartChar: zaqefqatan
Encoding: 1428 1428 10
Width: 0
VWidth: 1954
GlyphClass: 4
Flags: W
HStem: 1184 398
VStem: -345 203
AnchorPoint: "A-55" -1.96387 0 mark 0
AnchorPoint: "A-57" -501.964 0 basemark 0
AnchorPoint: "A-56" -1.96387 0 basemark 0
AnchorPoint: "A-57" -1.96387 0 mark 0
AnchorPoint: "A-23" -1.96387 0 mark 0
LayerCount: 2
Fore
SplineSet
-307 1273 m 1
 -291 1310 -270 1337 -240 1361 c 1
 -200 1337 -171 1310 -142 1273 c 1
 -157 1233 -178 1206 -209 1184 c 1
 -247 1206 -278 1233 -307 1273 c 1
-345 1493 m 1
 -330 1532 -309 1559 -279 1582 c 1
 -240 1559 -210 1532 -181 1493 c 1
 -197 1455 -217 1428 -248 1404 c 1
 -287 1428 -316 1455 -345 1493 c 1
EndSplineSet
Validated: 1
LCarets2: 1 0 
EndChar

StartChar: zaqefgadol
Encoding: 1429 1429 11
Width: 0
VWidth: 1954
GlyphClass: 4
Flags: W
HStem: 1184 398
VStem: -449 401
AnchorPoint: "A-55" -99.4678 0 mark 0
AnchorPoint: "A-57" -529.468 0 basemark 0
AnchorPoint: "A-56" -29.4678 0 basemark 0
AnchorPoint: "A-57" -29.4678 0 mark 0
AnchorPoint: "A-23" -29.4678 0 mark 0
LayerCount: 2
Fore
SplineSet
-338 1553 m 1
 -279 1222 l 1
 -298 1219 -314 1217 -334 1217 c 0
 -353 1217 -371 1219 -391 1222 c 1
 -449 1553 l 17
 -430 1556 -413 1558 -394 1558 c 0
 -374 1558 -358 1556 -338 1553 c 1
-214 1273 m 1
 -198 1311 -178 1338 -147 1362 c 1
 -108 1338 -77 1311 -48 1273 c 1
 -63 1234 -86 1207 -116 1184 c 1
 -155 1207 -185 1234 -214 1273 c 1
-253 1493 m 1
 -238 1533 -217 1560 -186 1582 c 1
 -148 1560 -116 1533 -87 1493 c 1
 -103 1456 -124 1428 -154 1405 c 1
 -193 1428 -224 1456 -253 1493 c 1
EndSplineSet
Validated: 1
LCarets2: 1 0 
EndChar

StartChar: tipeha
Encoding: 1430 1430 12
Width: 0
GlyphClass: 4
Flags: W
HStem: -587 92<109.648 179.469>
VStem: -49 225
AnchorPoint: "A-42" -263.398 0 mark 0
AnchorPoint: "A-54" -298.398 0 basemark 0
AnchorPoint: "A-53" -358.398 0 basemark 0
AnchorPoint: "A-52" -358.398 0 basemark 0
AnchorPoint: "A-51" -358.398 0 basemark 0
AnchorPoint: "A-51" -38.3984 0 mark 0
AnchorPoint: "A-50" -378.398 0 basemark 0
AnchorPoint: "A-49" -288.398 0 basemark 0
AnchorPoint: "A-43" -38.3984 0 mark 0
AnchorPoint: "A-40" -38.3984 0 mark 0
LayerCount: 2
Fore
SplineSet
176 -587 m 1
 -25 -548 -24 -327 -49 -183 c 1
 -41 -180 -14 -180 -5 -180 c 0
 16 -180 15 -184 36 -198 c 1
 42 -232 57 -289 66 -342 c 0
 77 -406 98 -482 173 -495 c 1
 177 -519 180 -535 180 -552 c 0
 180 -563 178 -574 176 -587 c 1
EndSplineSet
Validated: 1
LCarets2: 1 0 
MultipleSubs2: "Add hairspace after last low mark subtable" tipeha hairspace
MultipleSubs2: "Add thinspace before narrow letter subtable" tipeha thinspace
MultipleSubs2: "Add hairspace before low marked Qof" tipeha hairspace
EndChar

StartChar: revia
Encoding: 1431 1431 13
Width: 0
GlyphClass: 4
Flags: W
HStem: 1184 237
VStem: -330 205
AnchorPoint: "A-55" -1.13867 0 mark 0
AnchorPoint: "A-57" -501.139 0 basemark 0
AnchorPoint: "A-56" -1.13867 0 basemark 0
AnchorPoint: "A-57" -1.13867 0 mark 0
AnchorPoint: "A-23" -1.13867 0 mark 0
LayerCount: 2
Fore
SplineSet
-252 1421 m 1
 -204 1392 -162 1342 -125 1289 c 1
 -161 1262 -189 1230 -208 1184 c 1
 -241 1231 -266 1259 -330 1293 c 1
 -313 1368 -290 1393 -252 1421 c 1
EndSplineSet
Validated: 1
LCarets2: 1 0 
EndChar

StartChar: zarqa
Encoding: 1432 1432 14
Width: 0
VWidth: 1954
GlyphClass: 4
Flags: W
HStem: 1184 81<-174.352 -72.8691> 1380 71<-388.632 -296.433>
VStem: -468 76<1315.19 1377.57> -71 79<1266.92 1377.71>
AnchorPoint: "A-55" -154.983 0 mark 0
AnchorPoint: "A-57" -504.983 0 basemark 0
AnchorPoint: "A-56" -4.9834 0 basemark 0
AnchorPoint: "A-57" -4.9834 0 mark 0
AnchorPoint: "A-31" -4.9834 0 mark 0
LayerCount: 2
Fore
SplineSet
-93 1184 m 1
 -230 1184 -238 1337 -350 1380 c 1
 -357 1380 l 2
 -380 1380 -392 1354 -392 1328 c 0
 -392 1324 -392 1319 -391 1315 c 8
 -386 1285 -345 1256 -345 1256 c 25
 -337 1234 l 25
 -352 1198 l 25
 -372 1190 l 17
 -412 1216 -455 1236 -468 1310 c 0
 -470 1320 -468 1329 -468 1338 c 0
 -468 1409 -419 1451 -367 1451 c 0
 -324 1451 -288 1430 -254 1403 c 1
 -211 1349 -168 1288 -129 1265 c 1
 -110 1265 l 2
 -80 1265 -72 1288 -71 1318 c 0
 -71 1318 -72 1356 -113 1380 c 1
 -125 1400 l 25
 -110 1448 l 25
 -94 1451 l 17
 -53 1426 -11 1408 6 1310 c 0
 7 1302 8 1295 8 1288 c 0
 8 1229 -38 1192 -93 1184 c 1
EndSplineSet
Validated: 1
LCarets2: 1 0 
EndChar

StartChar: pashta
Encoding: 1433 1433 15
Width: 0
GlyphClass: 4
Flags: W
HStem: 1503 92<-357.469 -287.318>
VStem: -354 226
AnchorPoint: "A-34" 340.229 0 mark 0
AnchorPoint: "A-29" 320.229 0 mark 0
LayerCount: 2
Fore
SplineSet
-354 1595 m 1
 -152 1555 -153 1334 -128 1191 c 1
 -136 1188 -164 1188 -173 1188 c 0
 -194 1188 -193 1192 -214 1206 c 1
 -220 1240 -235 1297 -244 1350 c 0
 -255 1414 -276 1490 -351 1503 c 1
 -355 1527 -358 1543 -358 1560 c 0
 -358 1571 -356 1582 -354 1595 c 1
EndSplineSet
Validated: 1
LCarets2: 1 0 
EndChar

StartChar: yetiv
Encoding: 1434 1434 16
Width: 0
VWidth: 1954
GlyphClass: 4
Flags: W
HStem: -584 411
VStem: -73 302
AnchorPoint: "A-69" -303.278 0 mark 0
AnchorPoint: "A-68" -423.278 0 mark 0
AnchorPoint: "A-67" -533.278 0 mark 0
AnchorPoint: "A-66" -363.278 0 mark 0
AnchorPoint: "A-65" -493.278 0 mark 0
AnchorPoint: "A-64" -623.278 0 mark 0
AnchorPoint: "A-47" -433.278 0 mark 0
AnchorPoint: "A-41" -453.278 0 mark 0
LayerCount: 2
Fore
SplineSet
74 -394 m 1
 229 -496 l 1
 222 -519 210 -570 179 -584 c 1
 -73 -399 l 1
 -82 -386 -81 -376 -73 -363 c 1
 113 -173 l 1
 145 -184 180 -216 192 -252 c 1
 72 -360 l 2
 63 -368 57 -378 74 -394 c 1
EndSplineSet
Validated: 1
LCarets2: 1 0 
MultipleSubs2: "Add thinspace before narrow letter subtable" yetiv thinspace
EndChar

StartChar: tevir
Encoding: 1435 1435 17
Width: 0
VWidth: 1954
GlyphClass: 4
Flags: W
HStem: -584 92<85.523 125.518>
VStem: 135 80<-479.844 -188.32>
AnchorPoint: "A-42" -212.162 0 mark 0
AnchorPoint: "A-54" -337.162 0 basemark 0
AnchorPoint: "A-53" -427.162 0 basemark 0
AnchorPoint: "A-52" -397.162 0 basemark 0
AnchorPoint: "A-51" -397.162 0 basemark 0
AnchorPoint: "A-51" 12.8379 0 mark 0
AnchorPoint: "A-50" -457.162 0 basemark 0
AnchorPoint: "A-49" -317.162 0 basemark 0
AnchorPoint: "A-44" 72.8379 0 mark 0
AnchorPoint: "A-40" 12.8379 0 mark 0
LayerCount: 2
Fore
SplineSet
93 -584 m 1
 75 -552 71 -532 64 -492 c 1
 119 -478 135 -450 135 -407 c 0
 135 -375 126 -334 118 -284 c 2
 102 -192 l 1
 118 -178 110 -177 131 -177 c 0
 140 -177 168 -177 177 -180 c 1
 189 -248 215 -338 215 -416 c 0
 215 -496 188 -564 93 -584 c 1
-90 -332 m 1
 -75 -293 -54 -266 -23 -243 c 1
 16 -266 46 -293 75 -332 c 1
 59 -370 39 -397 8 -421 c 1
 -32 -397 -61 -370 -90 -332 c 1
EndSplineSet
Validated: 1
LCarets2: 1 0 
MultipleSubs2: "Add hairspace after last low mark subtable" tevir hairspace
MultipleSubs2: "Add thinspace before narrow letter subtable" tevir thinspace
MultipleSubs2: "Add hairspace before low marked Qof" tevir hairspace
EndChar

StartChar: gereshaccent
Encoding: 1436 1436 18
Width: 0
VWidth: 1954
GlyphClass: 4
Flags: W
HStem: 1500 92<-228.824 -200.523>
VStem: -329 90<1197.91 1495.42>
AnchorPoint: "A-55" -37.2578 0 mark 0
AnchorPoint: "A-57" -537.258 0 basemark 0
AnchorPoint: "A-56" -37.2578 0 basemark 0
AnchorPoint: "A-57" -37.2578 0 mark 0
AnchorPoint: "A-23" -37.2578 0 mark 0
LayerCount: 2
Fore
SplineSet
-208 1592 m 1
 -190 1560 -186 1540 -179 1500 c 1
 -226 1491 -239 1454 -239 1411 c 0
 -239 1390 -236 1368 -232 1347 c 0
 -223 1294 -217 1237 -211 1203 c 1
 -227 1189 -224 1185 -245 1185 c 0
 -254 1185 -282 1185 -291 1188 c 1
 -303 1256 -329 1347 -329 1426 c 0
 -329 1505 -302 1572 -208 1592 c 1
EndSplineSet
Validated: 1
LCarets2: 1 0 
EndChar

StartChar: qarneypara
Encoding: 1439 1439 21
Width: 0
VWidth: 1954
GlyphClass: 4
Flags: W
HStem: 1334 79<-493.631 -365.188 -110.34 -18.2635> 1585 84<-512.87 -379.075 -165.522 -31.7572>
VStem: -597 78<1438.3 1578.82> -358 77<1417.11 1563.06> -247 76<1438.01 1578.22> -8 75<1422 1558.28>
AnchorPoint: "A-55" -387.647 0 mark 0
AnchorPoint: "A-57" -507.647 0 basemark 0
AnchorPoint: "A-56" -7.64746 0 basemark 0
AnchorPoint: "A-57" -7.64746 0 mark 0
AnchorPoint: "A-32" -7.64746 0 mark 0
LayerCount: 2
Fore
SplineSet
-8 1491 m 0
 -8 1537 -64 1585 -107 1585 c 0
 -144 1585 -171 1554 -171 1516 c 0
 -171 1511 -171 1506 -170 1501 c 0
 -161 1452 -118 1413 -76 1413 c 0
 -38 1413 -8 1450 -8 1491 c 0
-466 1669 m 0
 -362 1669 -281 1564 -281 1468 c 0
 -281 1434 -291 1401 -315 1375 c 1
 -237 1275 l 1
 -227 1270 -217 1267 -214 1275 c 2
 -170 1375 l 1
 -222 1418 -247 1477 -247 1531 c 0
 -247 1605 -201 1669 -121 1669 c 0
 -35 1669 48 1592 64 1501 c 0
 66 1490 67 1480 67 1470 c 0
 67 1392 14 1334 -62 1334 c 0
 -76 1334 -91 1336 -103 1339 c 1
 -148 1214 l 1
 -164 1201 l 1
 -183 1196 -196 1190 -211 1190 c 0
 -222 1190 -234 1196 -247 1203 c 2
 -270 1216 l 1
 -367 1339 l 1
 -379 1336 -393 1334 -407 1334 c 0
 -493 1334 -578 1408 -594 1501 c 0
 -596 1511 -597 1521 -597 1531 c 0
 -597 1608 -542 1669 -466 1669 c 0
-421 1413 m 0
 -378 1413 -358 1444 -358 1481 c 0
 -358 1529 -393 1585 -452 1585 c 0
 -490 1585 -519 1554 -519 1515 c 0
 -519 1511 -519 1506 -518 1501 c 0
 -509 1452 -464 1413 -421 1413 c 0
EndSplineSet
Validated: 1
LCarets2: 1 0 
EndChar

StartChar: telishagedola
Encoding: 1440 1440 22
Width: 0
VWidth: 1954
GlyphClass: 4
Flags: W
HStem: 1304 92<-277.929 -172.813> 1588 89<-341.013 -192.259>
VStem: -433 85<1420.98 1581.98> -393 88<1193 1242> -167 85<1402.15 1563.27>
AnchorPoint: "A-55" -148.012 0 mark 0
AnchorPoint: "A-39" -8.01172 0 mark 0
AnchorPoint: "A-57" -848.012 0 basemark 0
AnchorPoint: "A-56" -348.012 0 basemark 0
AnchorPoint: "A-56" -348.012 0 mark 0
AnchorPoint: "A-26" -148.012 0 mark 0
LayerCount: 2
Fore
SplineSet
-327 1181 m 1xd8
 -351 1184 -377 1193 -393 1220 c 1
 -393 1242 l 1xd8
 -344 1349 l 1
 -406 1399 -433 1464 -433 1523 c 0xe8
 -433 1606 -379 1677 -290 1677 c 0
 -195 1677 -103 1593 -85 1491 c 0
 -83 1479 -82 1468 -82 1456 c 0
 -82 1370 -141 1304 -225 1304 c 0
 -240 1304 -256 1306 -271 1311 c 1
 -305 1193 l 1
 -327 1181 l 1xd8
-275 1588 m 0
 -324 1588 -348 1553 -348 1512 c 0xe8
 -348 1459 -307 1396 -241 1396 c 0
 -189 1396 -167 1431 -167 1471 c 0
 -167 1525 -208 1588 -275 1588 c 0
EndSplineSet
Validated: 1
LCarets2: 1 0 
EndChar

StartChar: pazer
Encoding: 1441 1441 23
Width: 0
VWidth: 1954
GlyphClass: 4
Flags: W
HStem: 1312 120<-273.699 -206.471>
VStem: -206 92<1433.95 1602.63>
AnchorPoint: "A-55" -84.4326 0 mark 0
AnchorPoint: "A-57" -544.433 0 basemark 0
AnchorPoint: "A-56" -44.4326 0 basemark 0
AnchorPoint: "A-57" -44.4326 0 mark 0
AnchorPoint: "A-23" -44.4326 0 mark 0
LayerCount: 2
Fore
SplineSet
-431 1604 m 17
 -419 1612 -395 1614 -384 1614 c 1
 -330 1604 l 9
 -301 1438 l 17
 -284 1434 -271 1432 -259 1432 c 0
 -218 1432 -206 1450 -206 1481 c 0
 -206 1511 -218 1555 -225 1606 c 1
 -215 1608 -187 1617 -175 1617 c 0
 -165 1617 -151 1612 -133 1604 c 1
 -124 1554 -114 1496 -114 1446 c 0
 -114 1371 -136 1312 -218 1312 c 0
 -235 1312 -255 1312 -274 1317 c 9
 -254 1204 l 17
 -266 1202 -295 1202 -306 1202 c 0
 -323 1202 -348 1202 -362 1208 c 9
 -431 1604 l 17
EndSplineSet
Validated: 1
LCarets2: 1 0 
EndChar

StartChar: atnahhafukh
Encoding: 1442 1442 24
Width: 0
GlyphClass: 4
Flags: W
HStem: -589 413
VStem: -137 78<-322.117 -176.023> 140 84<-356.655 -182.49>
AnchorPoint: "A-42" -227.196 0 mark 0
AnchorPoint: "A-54" -392.196 0 basemark 0
AnchorPoint: "A-53" -452.196 0 basemark 0
AnchorPoint: "A-52" -452.196 0 basemark 0
AnchorPoint: "A-51" -452.196 0 basemark 0
AnchorPoint: "A-52" -2.19629 0 mark 0
AnchorPoint: "A-50" -452.196 0 basemark 0
AnchorPoint: "A-49" -352.196 0 basemark 0
AnchorPoint: "A-44" 57.8037 0 mark 0
AnchorPoint: "A-40" -2.19629 0 mark 0
LayerCount: 2
Fore
SplineSet
151 -589 m 17
 135 -593 120 -596 102 -596 c 0
 89 -596 76 -594 60 -589 c 9
 37 -457 l 17
 -74 -426 -131 -322 -137 -181 c 1
 -126 -177 -112 -176 -100 -176 c 0
 -86 -176 -73 -178 -59 -181 c 1
 -43 -270 -33 -376 68 -376 c 0
 82 -376 106 -376 130 -344 c 1
 138 -335 140 -317 140 -296 c 0
 140 -253 129 -198 125 -181 c 1
 139 -176 151 -173 164 -173 c 0
 176 -173 189 -175 202 -181 c 1
 215 -227 224 -273 224 -314 c 0
 224 -381 200 -435 128 -457 c 9
 151 -589 l 17
EndSplineSet
Validated: 1
MultipleSubs2: "Add hairspace after last low mark subtable" atnahhafukh hairspace
MultipleSubs2: "Add thinspace before narrow letter subtable" atnahhafukh thinspace
MultipleSubs2: "Add hairspace before low marked Qof" atnahhafukh hairspace
EndChar

StartChar: munah
Encoding: 1443 1443 25
Width: 0
GlyphClass: 4
Flags: W
HStem: -552 87<-34.3979 135>
VStem: -47 278
AnchorPoint: "A-42" -230.8 0 mark 0
AnchorPoint: "A-54" -335.8 0 basemark 0
AnchorPoint: "A-53" -395.8 0 basemark 0
AnchorPoint: "A-52" -395.8 0 basemark 0
AnchorPoint: "A-51" -395.8 0 basemark 0
AnchorPoint: "A-52" -5.7998 0 mark 0
AnchorPoint: "A-50" -345.8 0 basemark 0
AnchorPoint: "A-49" -255.8 0 basemark 0
AnchorPoint: "A-45" 54.2002 0 mark 0
AnchorPoint: "A-40" -5.7998 0 mark 0
LayerCount: 2
Fore
SplineSet
231 -552 m 1
 -30 -552 l 1
 -42 -510 -42 -550 -47 -465 c 1
 135 -463 l 1
 86 -183 l 1
 99 -179 108 -176 124 -176 c 0
 144 -176 148 -180 166 -184 c 1
 231 -552 l 1
EndSplineSet
Validated: 1
LCarets2: 1 0 
MultipleSubs2: "Add hairspace after last low mark subtable" munah hairspace
MultipleSubs2: "Add thinspace before narrow letter subtable" munah thinspace
MultipleSubs2: "Add hairspace before low marked Qof" munah hairspace
EndChar

StartChar: mahapakh
Encoding: 1444 1444 26
Width: 0
VWidth: 1954
GlyphClass: 4
Flags: W
HStem: -585 410
VStem: -73 303
AnchorPoint: "A-42" -228.001 0 mark 0
AnchorPoint: "A-54" -343.001 0 basemark 0
AnchorPoint: "A-53" -403.001 0 basemark 0
AnchorPoint: "A-52" -403.001 0 basemark 0
AnchorPoint: "A-51" -403.001 0 basemark 0
AnchorPoint: "A-52" -3.00098 0 mark 0
AnchorPoint: "A-50" -423.001 0 basemark 0
AnchorPoint: "A-49" -353.001 0 basemark 0
AnchorPoint: "A-44" 56.999 0 mark 0
AnchorPoint: "A-40" -3.00098 0 mark 0
LayerCount: 2
Fore
SplineSet
74 -396 m 1
 230 -498 l 1
 222 -520 210 -572 179 -585 c 1
 -73 -400 l 1
 -83 -390 -78 -378 -73 -364 c 1
 113 -175 l 1
 144 -186 186 -218 192 -254 c 1
 72 -362 l 1
 64 -372 59 -380 74 -396 c 1
EndSplineSet
Validated: 1
LCarets2: 1 0 
MultipleSubs2: "Add hairspace after last low mark subtable" mahapakh hairspace
MultipleSubs2: "Add thinspace before narrow letter subtable" mahapakh thinspace
MultipleSubs2: "Add hairspace before low marked Qof" mahapakh hairspace
EndChar

StartChar: merkha
Encoding: 1445 1445 27
Width: 0
VWidth: 1954
GlyphClass: 4
Flags: W
HStem: -583 407
VStem: 69 78<-490.623 -195.71>
AnchorPoint: "A-42" -190.407 0 mark 0
AnchorPoint: "A-54" -345.407 0 basemark 0
AnchorPoint: "A-53" -405.407 0 basemark 0
AnchorPoint: "A-52" -405.407 0 basemark 0
AnchorPoint: "A-51" -405.407 0 basemark 0
AnchorPoint: "A-51" -45.4072 0 mark 0
AnchorPoint: "A-50" -325.407 0 basemark 0
AnchorPoint: "A-49" -315.407 0 basemark 0
AnchorPoint: "A-43" -15.4072 0 mark 0
AnchorPoint: "A-40" 34.5928 0 mark 0
LayerCount: 2
Fore
SplineSet
35 -491 m 1
 65 -483 69 -472 69 -455 c 0
 69 -442 69 -426 69 -406 c 0
 69 -360 52 -292 35 -191 c 1
 51 -177 42 -176 63 -176 c 0
 72 -176 99 -176 108 -179 c 1
 119 -242 147 -334 147 -415 c 0
 147 -495 120 -563 25 -583 c 1
 21 -576 20 -570 20 -563 c 0
 20 -544 35 -527 35 -502 c 0
 35 -499 36 -495 35 -491 c 1
EndSplineSet
Validated: 1
LCarets2: 1 0 
MultipleSubs2: "Add hairspace after last low mark subtable" merkha hairspace
MultipleSubs2: "Add thinspace before narrow letter subtable" merkha thinspace
MultipleSubs2: "Add hairspace before low marked Qof" merkha hairspace
EndChar

StartChar: darga
Encoding: 1447 1447 29
Width: 0
GlyphClass: 4
Flags: W
HStem: -611 79<-5.27954 96.5018> -261 85<32.9253 117.997>
VStem: -61 86<-346.769 -281.063> 106 95<-513.621 -434.875>
AnchorPoint: "A-42" -228.723 0 mark 0
AnchorPoint: "A-54" -323.723 0 basemark 0
AnchorPoint: "A-53" -383.723 0 basemark 0
AnchorPoint: "A-52" -383.723 0 basemark 0
AnchorPoint: "A-51" -383.723 0 basemark 0
AnchorPoint: "A-52" -3.72266 0 mark 0
AnchorPoint: "A-50" -393.723 0 basemark 0
AnchorPoint: "A-49" -303.723 0 basemark 0
AnchorPoint: "A-43" -3.72266 0 mark 0
AnchorPoint: "A-40" -3.72266 0 mark 0
LayerCount: 2
Fore
SplineSet
131 -261 m 1
 91 -273 25 -279 25 -321 c 0
 25 -323 25 -326 26 -329 c 0
 33 -366 176 -329 199 -457 c 0
 201 -466 201 -474 201 -482 c 0
 201 -587 70 -611 24 -611 c 2
 9 -611 l 1
 1 -599 -7 -576 -7 -553 c 0
 -7 -546 -6 -539 -4 -532 c 1
 19 -522 106 -525 106 -471 c 0
 106 -467 107 -464 106 -460 c 1
 92 -410 -37 -464 -61 -329 c 0
 -63 -320 -61 -312 -61 -304 c 0
 -61 -200 68 -176 106 -176 c 0
 114 -176 118 -176 118 -178 c 0
 125 -190 132 -209 132 -242 c 0
 132 -248 131 -254 131 -261 c 1
EndSplineSet
Validated: 1
LCarets2: 1 0 
MultipleSubs2: "Add hairspace after last low mark subtable" darga hairspace
MultipleSubs2: "Add thinspace before narrow letter subtable" darga thinspace
MultipleSubs2: "Add hairspace before low marked Qof" darga hairspace
EndChar

StartChar: qadma
Encoding: 1448 1448 30
Width: 0
VWidth: 1954
GlyphClass: 4
Flags: W
HStem: 1502 92<-357.469 -287.318>
VStem: -354 226
AnchorPoint: "A-55" -24.5947 0 mark 0
AnchorPoint: "A-57" -454.595 0 basemark 0
AnchorPoint: "A-56" 45.4053 0 basemark 0
AnchorPoint: "A-57" 45.4053 0 mark 0
AnchorPoint: "A-23" 45.4053 0 mark 0
LayerCount: 2
Fore
SplineSet
-354 1594 m 1
 -152 1554 -153 1333 -128 1190 c 1
 -136 1187 -165 1187 -174 1187 c 0
 -195 1187 -193 1191 -214 1205 c 1
 -220 1239 -235 1296 -244 1349 c 0
 -255 1413 -276 1489 -351 1502 c 1
 -355 1526 -358 1542 -358 1559 c 0
 -358 1570 -356 1581 -354 1594 c 1
EndSplineSet
Validated: 1
LCarets2: 1 0 
EndChar

StartChar: telishaqetana
Encoding: 1449 1449 31
Width: 0
VWidth: 1954
GlyphClass: 4
Flags: W
HStem: 1304 88<-330.299 -186.824> 1584 92<-351.158 -199.725>
VStem: -443 87<1416.81 1578.29> -176 82<1400.88 1554.58>
AnchorPoint: "A-55" -158.158 0 mark 0
AnchorPoint: "A-36" 11.8418 0 mark 0
AnchorPoint: "A-57" -148.158 0 basemark 0
AnchorPoint: "A-56" 351.842 0 basemark 0
AnchorPoint: "A-57" 351.842 0 mark 0
AnchorPoint: "A-30" 451.842 0 mark 0
LayerCount: 2
Fore
SplineSet
-299 1676 m 0
 -182 1676 -94 1557 -94 1450 c 0
 -94 1413 -105 1377 -130 1348 c 1
 -44 1240 l 1
 -37 1218 l 1
 -45 1191 -68 1184 -90 1179 c 1
 -114 1191 l 1
 -190 1310 l 1
 -202 1306 -219 1304 -234 1304 c 0
 -332 1304 -422 1387 -440 1489 c 0
 -442 1501 -443 1513 -443 1525 c 0
 -443 1611 -385 1676 -299 1676 c 0
-176 1489 m 0
 -185 1540 -236 1584 -283 1584 c 0
 -334 1584 -356 1549 -356 1509 c 0
 -356 1455 -316 1392 -249 1392 c 0
 -208 1392 -176 1425 -176 1470 c 0
 -176 1476 -175 1483 -176 1489 c 0
EndSplineSet
Validated: 1
LCarets2: 1 0 
EndChar

StartChar: yerahbenyomo
Encoding: 1450 1450 32
Width: 0
GlyphClass: 4
Flags: W
HStem: -583 413
VStem: -138 77<-316.504 -170.023> 139 83<-350.238 -177.422>
AnchorPoint: "A-42" -227.582 0 mark 0
AnchorPoint: "A-54" -392.582 0 basemark 0
AnchorPoint: "A-53" -452.582 0 basemark 0
AnchorPoint: "A-52" -452.582 0 basemark 0
AnchorPoint: "A-51" -452.582 0 basemark 0
AnchorPoint: "A-52" -2.58203 0 mark 0
AnchorPoint: "A-50" -472.582 0 basemark 0
AnchorPoint: "A-49" -402.582 0 basemark 0
AnchorPoint: "A-44" 57.418 0 mark 0
AnchorPoint: "A-40" -2.58203 0 mark 0
LayerCount: 2
Fore
SplineSet
149 -583 m 17
 133 -587 118 -590 100 -590 c 0
 87 -590 74 -588 58 -583 c 9
 35 -451 l 17
 -58 -425 -130 -349 -138 -176 c 1
 -126 -172 -114 -170 -102 -170 c 0
 -88 -170 -75 -172 -61 -176 c 1
 -46 -251 -37 -372 66 -372 c 0
 80 -372 104 -370 128 -338 c 1
 136 -328 139 -311 139 -291 c 0
 139 -248 125 -191 123 -176 c 1
 137 -170 149 -167 162 -167 c 0
 174 -167 187 -170 200 -176 c 1
 213 -221 222 -266 222 -307 c 0
 222 -374 198 -429 126 -451 c 9
 149 -583 l 17
EndSplineSet
Validated: 1
LCarets2: 1 0 
MultipleSubs2: "Add hairspace after last low mark subtable" yerahbenyomo hairspace
MultipleSubs2: "Add thinspace before narrow letter subtable" yerahbenyomo thinspace
MultipleSubs2: "Add hairspace before low marked Qof" yerahbenyomo hairspace
EndChar

StartChar: ole
Encoding: 1451 1451 33
Width: 0
VWidth: 1954
GlyphClass: 4
Flags: W
HStem: 1210 410
VStem: -389 302
AnchorPoint: "A-55" -127.297 0 mark 0
AnchorPoint: "A-57" -557.297 0 basemark 0
AnchorPoint: "A-56" -57.2969 0 basemark 0
AnchorPoint: "A-57" -57.2969 0 mark 0
AnchorPoint: "A-23" -57.2969 0 mark 0
LayerCount: 2
Fore
SplineSet
-243 1400 m 1
 -87 1300 l 1
 -95 1275 -107 1223 -138 1210 c 1
 -389 1395 l 1
 -398 1408 -395 1420 -389 1431 c 1
 -203 1620 l 1
 -173 1610 -135 1580 -125 1541 c 1
 -244 1433 l 2
 -253 1426 -257 1415 -243 1400 c 1
EndSplineSet
Validated: 1
LCarets2: 1 0 
EndChar

StartChar: iluy
Encoding: 1452 1452 34
Width: 0
VWidth: 1954
GlyphClass: 4
Flags: W
HStem: 1189 134<-353.372 -207>
VStem: -360 286
AnchorPoint: "A-55" -119.947 0 mark 0
AnchorPoint: "A-57" -529.947 0 basemark 0
AnchorPoint: "A-56" -29.9473 0 basemark 0
AnchorPoint: "A-57" -29.9473 0 mark 0
AnchorPoint: "A-23" -29.9473 0 mark 0
LayerCount: 2
Fore
SplineSet
-74 1189 m 1
 -346 1189 l 1
 -356 1252 -360 1264 -360 1276 c 0
 -360 1285 -358 1294 -356 1323 c 1
 -207 1323 l 1
 -256 1601 l 1
 -243 1606 -216 1608 -200 1608 c 0
 -189 1608 -160 1601 -145 1595 c 1
 -74 1189 l 1
EndSplineSet
Validated: 1
LCarets2: 1 0 
EndChar

StartChar: dehi
Encoding: 1453 1453 35
Width: 0
VWidth: 1954
GlyphClass: 4
Flags: W
HStem: -583 92<108.318 178.469>
VStem: -51 226
AnchorPoint: "A-69" -307.672 0 mark 0
AnchorPoint: "A-68" -427.672 0 mark 0
AnchorPoint: "A-67" -527.672 0 mark 0
AnchorPoint: "A-66" -367.672 0 mark 0
AnchorPoint: "A-65" -497.672 0 mark 0
AnchorPoint: "A-64" -627.672 0 mark 0
AnchorPoint: "A-46" -427.672 0 mark 0
AnchorPoint: "A-41" -427.672 0 mark 0
LayerCount: 2
Fore
SplineSet
175 -583 m 1
 -27 -543 -26 -322 -51 -179 c 1
 -43 -176 -15 -176 -6 -176 c 0
 15 -176 14 -180 35 -194 c 1
 41 -228 56 -285 65 -338 c 0
 76 -402 97 -478 172 -491 c 1
 176 -515 179 -531 179 -548 c 0
 179 -559 177 -570 175 -583 c 1
EndSplineSet
Validated: 1
LCarets2: 1 0 
MultipleSubs2: "Add hairspace after last low mark subtable" dehi hairspace
MultipleSubs2: "Add thinspace before narrow letter subtable" dehi thinspace
EndChar

StartChar: tsinor
Encoding: 1454 1454 36
Width: 0
VWidth: 1954
GlyphClass: 4
Flags: W
HStem: 1192 80<-177.018 -75.0262> 1387 71<-393.379 -300.287>
VStem: -471 75<1273.56 1385.07> -72 77<1273.09 1383.16>
AnchorPoint: "A-33" 428.126 0 mark 0
AnchorPoint: "A-28" 428.126 0 mark 0
LayerCount: 2
Fore
SplineSet
-72 1325 m 0
 -72 1328 -72 1361 -116 1387 c 1
 -118 1387 -123 1397 -127 1408 c 25
 -114 1456 l 25
 -95 1458 l 17
 -57 1433 -14 1415 3 1318 c 0
 4 1310 5 1303 5 1295 c 0
 5 1236 -40 1199 -99 1192 c 1
 -236 1192 -244 1347 -352 1387 c 1
 -362 1387 l 2
 -382 1387 -396 1360 -396 1334 c 0
 -396 1330 -396 1326 -395 1322 c 8
 -390 1292 -349 1264 -349 1264 c 25
 -343 1241 l 25
 -356 1205 l 25
 -375 1198 l 17
 -413 1223 -455 1243 -468 1318 c 0
 -470 1328 -471 1337 -471 1346 c 0
 -471 1416 -422 1458 -369 1458 c 0
 -329 1458 -292 1438 -259 1410 c 1
 -216 1356 -171 1295 -131 1272 c 1
 -115 1272 l 2
 -84 1272 -76 1295 -72 1325 c 0
EndSplineSet
Validated: 1
LCarets2: 1 0 
EndChar

StartChar: masoracircle
Encoding: 1455 1455 37
Width: 0
VWidth: 1954
GlyphClass: 4
Flags: W
HStem: 1322 95<-330.151 -183.457> 1618 93<-350.461 -203.169>
VStem: -447 89<1444.15 1611.94> -175 87<1427.25 1587.63>
AnchorPoint: "A-55" -93.8115 0 mark 0
AnchorPoint: "A-57" -503.812 0 basemark 0
AnchorPoint: "A-56" -3.81152 0 basemark 0
AnchorPoint: "A-57" -3.81152 0 mark 0
AnchorPoint: "A-24" -3.81152 0 mark 0
LayerCount: 2
Fore
SplineSet
-356 1516 m 0
 -346 1462 -299 1417 -250 1417 c 0
 -208 1417 -175 1452 -175 1498 c 0
 -175 1504 -174 1510 -175 1516 c 0
 -185 1573 -237 1618 -285 1618 c 0
 -328 1618 -358 1583 -358 1537 c 0
 -358 1530 -357 1523 -356 1516 c 0
-444 1516 m 0
 -446 1529 -447 1541 -447 1553 c 0
 -447 1643 -387 1711 -302 1711 c 0
 -203 1711 -110 1624 -91 1516 c 0
 -89 1503 -88 1491 -88 1478 c 0
 -88 1390 -146 1322 -233 1322 c 0
 -330 1322 -425 1410 -444 1516 c 0
EndSplineSet
Validated: 1
LCarets2: 1 0 
EndChar

StartChar: sheva
Encoding: 1456 1456 38
Width: 0
VWidth: 1877
GlyphClass: 4
Flags: W
HStem: -574 398
VStem: -35 203
AnchorPoint: "A-17" -51.9814 0 mark 0
AnchorPoint: "A-14" -51.9814 0 mark 0
AnchorPoint: "A-11" -351.981 0 mark 0
AnchorPoint: "A-8" -176.981 0 mark 0
AnchorPoint: "A-70" -1.98145 0 mark 0
AnchorPoint: "A-50" -1.98145 0 basemark 0
AnchorPoint: "A-49" -251.981 0 basemark 0
AnchorPoint: "A-49" -1.98145 0 mark 0
AnchorPoint: "A-48" -261.981 0 basemark 0
AnchorPoint: "A-47" -211.981 0 basemark 0
AnchorPoint: "A-46" -181.981 0 basemark 0
AnchorPoint: "A-45" -301.981 0 basemark 0
AnchorPoint: "A-44" -301.981 0 basemark 0
AnchorPoint: "A-43" -301.981 0 basemark 0
AnchorPoint: "A-4" -1.98145 0 mark 0
LayerCount: 2
Fore
SplineSet
3 -485 m 1
 19 -447 40 -420 70 -396 c 1
 110 -420 139 -447 168 -485 c 1
 153 -524 132 -551 101 -574 c 1
 63 -551 32 -524 3 -485 c 1
-35 -265 m 1
 -20 -225 0 -198 31 -176 c 1
 70 -198 100 -225 129 -265 c 1
 113 -302 93 -329 62 -353 c 1
 23 -329 -6 -302 -35 -265 c 1
EndSplineSet
Validated: 1
LCarets2: 1 0 
MultipleSubs2: "Add hairspace after last low mark subtable" sheva hairspace
MultipleSubs2: "Add thinspace before narrow letter subtable" sheva thinspace
MultipleSubs2: "Add hairspace before low marked Qof" sheva hairspace
EndChar

StartChar: hatafsegol
Encoding: 1457 1457 39
Width: 0
VWidth: 1877
GlyphClass: 4
Flags: W
HStem: -590 414
AnchorPoint: "A-19" -62.7734 0 mark 0
AnchorPoint: "A-16" -62.7734 0 mark 0
AnchorPoint: "A-13" -362.773 0 mark 0
AnchorPoint: "A-10" -187.773 0 mark 0
AnchorPoint: "A-73" -12.7734 0 mark 0
AnchorPoint: "A-50" -12.7734 0 basemark 0
AnchorPoint: "A-49" -572.773 0 basemark 0
AnchorPoint: "A-48" -542.773 0 basemark 0
AnchorPoint: "A-47" 27.2266 0 basemark 0
AnchorPoint: "A-46" 67.2266 0 basemark 0
AnchorPoint: "A-45" -562.773 0 basemark 0
AnchorPoint: "A-44" -562.773 0 basemark 0
AnchorPoint: "A-43" -562.773 0 basemark 0
AnchorPoint: "A-6" -12.7734 0 mark 0
LayerCount: 2
Fore
SplineSet
-128 -501 m 1
 -114 -464 -91 -437 -60 -413 c 1
 -21 -437 9 -464 38 -501 c 1
 23 -541 2 -568 -29 -590 c 1
 -68 -568 -100 -541 -128 -501 c 1
256 -501 m 1
 270 -464 292 -437 322 -413 c 1
 363 -437 393 -464 420 -501 c 1
 407 -541 385 -568 353 -590 c 1
 315 -568 284 -541 256 -501 c 1
223 -265 m 1
 237 -226 258 -199 288 -176 c 1
 328 -199 360 -226 387 -265 c 1
 373 -303 352 -330 320 -354 c 1
 281 -330 250 -303 223 -265 c 1
-42 -264 m 1
 -27 -224 -6 -197 25 -175 c 1
 63 -197 96 -224 124 -264 c 1
 109 -301 86 -328 56 -352 c 1
 16 -328 -13 -301 -42 -264 c 1
-294 -265 m 1
 -280 -226 -260 -198 -227 -176 c 1
 -189 -198 -157 -226 -130 -265 c 1
 -144 -302 -165 -330 -195 -354 c 1
 -236 -330 -267 -302 -294 -265 c 1
EndSplineSet
Validated: 1
LCarets2: 1 0 
MultipleSubs2: "Add hairspace after last low mark subtable" hatafsegol hairspace
MultipleSubs2: "Add thinspace before narrow letter subtable" hatafsegol thinspace
MultipleSubs2: "Add hairspace before low marked Qof" hatafsegol hairspace
EndChar

StartChar: hatafpatah
Encoding: 1458 1458 40
Width: 0
VWidth: 1877
GlyphClass: 4
Flags: W
HStem: -290 97<-242.52 66.7324>
VStem: -245 314<-290 -194.077>
AnchorPoint: "A-19" -64.4717 0 mark 0
AnchorPoint: "A-16" -64.4717 0 mark 0
AnchorPoint: "A-13" -364.472 0 mark 0
AnchorPoint: "A-10" -189.472 0 mark 0
AnchorPoint: "A-73" -14.4717 0 mark 0
AnchorPoint: "A-50" -14.4717 0 basemark 0
AnchorPoint: "A-49" -524.472 0 basemark 0
AnchorPoint: "A-48" -504.472 0 basemark 0
AnchorPoint: "A-47" 25.5283 0 basemark 0
AnchorPoint: "A-46" 45.5283 0 basemark 0
AnchorPoint: "A-45" -544.472 0 basemark 0
AnchorPoint: "A-44" -534.472 0 basemark 0
AnchorPoint: "A-43" -544.472 0 basemark 0
AnchorPoint: "A-6" -14.4717 0 mark 0
LayerCount: 2
Fore
SplineSet
-229 -193 m 1
 67 -193 l 1
 68 -201 69 -210 69 -218 c 0
 69 -243 63 -266 56 -290 c 1
 -242 -290 l 17
 -244 -280 -245 -271 -245 -263 c 0
 -245 -238 -238 -216 -229 -193 c 1
216 -487 m 1
 232 -449 252 -422 282 -398 c 1
 322 -422 351 -449 380 -487 c 1
 365 -526 344 -553 313 -576 c 1
 275 -553 245 -526 216 -487 c 1
177 -267 m 1
 192 -227 212 -200 243 -178 c 1
 282 -200 312 -227 341 -267 c 1
 325 -304 305 -331 274 -355 c 1
 235 -331 206 -304 177 -267 c 1
EndSplineSet
Validated: 1
LCarets2: 1 0 
MultipleSubs2: "Add hairspace after last low mark subtable" hatafpatah hairspace
MultipleSubs2: "Add thinspace before narrow letter subtable" hatafpatah thinspace
MultipleSubs2: "Add hairspace before low marked Qof" hatafpatah hairspace
EndChar

StartChar: hatafqamats
Encoding: 1459 1459 41
Width: 0
GlyphClass: 4
Flags: W
HStem: -292 97<-245.771 -124 -33 74.6194>
VStem: -248 325<-290.781 -288.319 -279.271 -195>
AnchorPoint: "A-19" -52.8203 0 mark 0
AnchorPoint: "A-16" -52.8203 0 mark 0
AnchorPoint: "A-13" -352.82 0 mark 0
AnchorPoint: "A-10" -177.82 0 mark 0
AnchorPoint: "A-73" -2.82031 0 mark 0
AnchorPoint: "A-50" -2.82031 0 basemark 0
AnchorPoint: "A-49" -532.82 0 basemark 0
AnchorPoint: "A-48" -512.82 0 basemark 0
AnchorPoint: "A-47" 27.1797 0 basemark 0
AnchorPoint: "A-46" 37.1797 0 basemark 0
AnchorPoint: "A-45" -552.82 0 basemark 0
AnchorPoint: "A-44" -552.82 0 basemark 0
AnchorPoint: "A-43" -552.82 0 basemark 0
AnchorPoint: "A-6" -2.82031 0 mark 0
LayerCount: 2
Fore
SplineSet
64 -292 m 1
 -33 -292 l 1
 9 -532 l 1
 -6 -535 -22 -535 -38 -535 c 1
 -53 -535 -65 -535 -81 -532 c 1
 -124 -292 l 1
 -248 -292 l 17
 -249 -284 -248 -277 -248 -270 c 0
 -248 -243 -243 -219 -234 -195 c 1
 77 -195 l 1
 77 -201 77 -206 77 -212 c 0
 77 -240 73 -266 64 -292 c 1
221 -487 m 1
 237 -449 257 -422 287 -398 c 1
 327 -422 356 -449 385 -487 c 1
 370 -526 349 -553 318 -576 c 1
 280 -553 250 -526 221 -487 c 1
182 -267 m 1
 197 -227 217 -200 248 -178 c 1
 287 -200 317 -227 346 -267 c 1
 330 -304 310 -331 279 -355 c 1
 240 -331 211 -304 182 -267 c 1
EndSplineSet
Validated: 1
LCarets2: 1 0 
MultipleSubs2: "Add hairspace after last low mark subtable" hatafqamats hairspace
MultipleSubs2: "Add thinspace before narrow letter subtable" hatafqamats thinspace
MultipleSubs2: "Add hairspace before low marked Qof" hatafqamats hairspace
EndChar

StartChar: hiriq
Encoding: 1460 1460 42
Width: 0
VWidth: 1877
GlyphClass: 4
Flags: W
HStem: -354 177
VStem: -36 165
AnchorPoint: "A-59" 246.403 0 mark 0
AnchorPoint: "A-17" -74.5967 0 mark 0
AnchorPoint: "A-14" -74.5967 0 mark 0
AnchorPoint: "A-11" -374.597 0 mark 0
AnchorPoint: "A-8" -199.597 0 mark 0
AnchorPoint: "A-70" -24.5967 0 mark 0
AnchorPoint: "A-50" -24.5967 0 basemark 0
AnchorPoint: "A-49" -274.597 0 basemark 0
AnchorPoint: "A-49" -24.5967 0 mark 0
AnchorPoint: "A-48" -264.597 0 basemark 0
AnchorPoint: "A-47" -234.597 0 basemark 0
AnchorPoint: "A-46" -214.597 0 basemark 0
AnchorPoint: "A-45" -324.597 0 basemark 0
AnchorPoint: "A-44" -324.597 0 basemark 0
AnchorPoint: "A-43" -324.597 0 basemark 0
AnchorPoint: "A-4" -24.5967 0 mark 0
LayerCount: 2
Fore
SplineSet
-36 -266 m 1
 -21 -226 -1 -199 30 -177 c 1
 69 -199 100 -226 129 -266 c 1
 113 -303 92 -330 61 -354 c 1
 22 -330 -7 -303 -36 -266 c 1
EndSplineSet
Validated: 1
LCarets2: 1 0 
MultipleSubs2: "Add hairspace after last low mark subtable" hiriq hairspace
MultipleSubs2: "Add thinspace before narrow letter subtable" hiriq thinspace
MultipleSubs2: "Add hairspace before low marked Qof" hiriq hairspace
EndChar

StartChar: tsere
Encoding: 1461 1461 43
Width: 0
VWidth: 1877
GlyphClass: 4
Flags: W
HStem: -353 177
VStem: -155 404
AnchorPoint: "A-18" -54.2734 0 mark 0
AnchorPoint: "A-15" -54.2734 0 mark 0
AnchorPoint: "A-12" -354.273 0 mark 0
AnchorPoint: "A-9" -179.273 0 mark 0
AnchorPoint: "A-71" -4.27344 0 mark 0
AnchorPoint: "A-50" -4.27344 0 basemark 0
AnchorPoint: "A-49" -414.273 0 basemark 0
AnchorPoint: "A-48" -394.273 0 basemark 0
AnchorPoint: "A-47" -104.273 0 basemark 0
AnchorPoint: "A-46" -84.2734 0 basemark 0
AnchorPoint: "A-45" -434.273 0 basemark 0
AnchorPoint: "A-44" -404.273 0 basemark 0
AnchorPoint: "A-43" -434.273 0 basemark 0
AnchorPoint: "A-5" -4.27344 0 mark 0
LayerCount: 2
Fore
SplineSet
85 -265 m 1
 98 -225 120 -198 152 -176 c 1
 191 -198 221 -225 249 -265 c 1
 235 -302 214 -329 183 -353 c 1
 142 -329 112 -302 85 -265 c 1
-155 -265 m 1
 -142 -225 -121 -198 -90 -176 c 1
 -50 -198 -19 -225 9 -265 c 1
 -5 -302 -26 -329 -58 -353 c 1
 -98 -329 -128 -302 -155 -265 c 1
EndSplineSet
Validated: 1
LCarets2: 1 0 
MultipleSubs2: "Add hairspace after last low mark subtable" tsere hairspace
MultipleSubs2: "Add thinspace before narrow letter subtable" tsere thinspace
MultipleSubs2: "Add hairspace before low marked Qof" tsere hairspace
EndChar

StartChar: segol
Encoding: 1462 1462 44
Width: 0
VWidth: 1877
GlyphClass: 4
Flags: W
HStem: -588 412
VStem: -163 420
AnchorPoint: "A-18" -54.2734 0 mark 0
AnchorPoint: "A-15" -54.2734 0 mark 0
AnchorPoint: "A-12" -354.273 0 mark 0
AnchorPoint: "A-9" -179.273 0 mark 0
AnchorPoint: "A-71" -4.27344 0 mark 0
AnchorPoint: "A-50" -4.27344 0 basemark 0
AnchorPoint: "A-49" -414.273 0 basemark 0
AnchorPoint: "A-48" -394.273 0 basemark 0
AnchorPoint: "A-47" -104.273 0 basemark 0
AnchorPoint: "A-46" -54.2734 0 basemark 0
AnchorPoint: "A-45" -434.273 0 basemark 0
AnchorPoint: "A-44" -404.273 0 basemark 0
AnchorPoint: "A-43" -434.273 0 basemark 0
AnchorPoint: "A-5" -4.27344 0 mark 0
LayerCount: 2
Fore
SplineSet
6 -499 m 1
 22 -461 42 -434 73 -410 c 1
 112 -434 142 -461 171 -499 c 1
 156 -538 134 -565 104 -588 c 1
 65 -565 35 -538 6 -499 c 1
94 -265 m 1
 108 -226 129 -198 161 -176 c 1
 200 -198 230 -226 257 -265 c 1
 243 -302 223 -330 192 -354 c 1
 151 -330 121 -302 94 -265 c 1
-163 -265 m 1
 -150 -225 -129 -198 -98 -176 c 1
 -58 -198 -28 -225 0 -265 c 1
 -14 -302 -35 -329 -67 -353 c 1
 -107 -329 -136 -302 -163 -265 c 1
EndSplineSet
Validated: 1
LCarets2: 1 0 
MultipleSubs2: "Add hairspace after last low mark subtable" segol hairspace
MultipleSubs2: "Add thinspace before narrow letter subtable" segol thinspace
MultipleSubs2: "Add hairspace before low marked Qof" segol hairspace
EndChar

StartChar: patah
Encoding: 1463 1463 45
Width: 0
VWidth: 1877
GlyphClass: 4
Flags: W
HStem: -273 97<-115.722 193.732>
VStem: -118 314<-273 -177.077>
AnchorPoint: "A-18" -53.8896 0 mark 0
AnchorPoint: "A-15" -53.8896 0 mark 0
AnchorPoint: "A-12" -353.89 0 mark 0
AnchorPoint: "A-9" -178.89 0 mark 0
AnchorPoint: "A-71" -3.88965 0 mark 0
AnchorPoint: "A-50" -3.88965 0 basemark 0
AnchorPoint: "A-49" -383.89 0 basemark 0
AnchorPoint: "A-50" -3.88965 0 mark 0
AnchorPoint: "A-48" -343.89 0 basemark 0
AnchorPoint: "A-47" -113.89 0 basemark 0
AnchorPoint: "A-46" -93.8896 0 basemark 0
AnchorPoint: "A-45" -403.89 0 basemark 0
AnchorPoint: "A-44" -373.89 0 basemark 0
AnchorPoint: "A-43" -403.89 0 basemark 0
AnchorPoint: "A-5" -3.88965 0 mark 0
LayerCount: 2
Fore
SplineSet
-102 -176 m 1
 194 -176 l 1
 195 -184 196 -193 196 -201 c 0
 196 -226 190 -249 183 -273 c 1
 -115 -273 l 17
 -117 -263 -118 -254 -118 -244 c 0
 -118 -220 -111 -199 -102 -176 c 1
EndSplineSet
Validated: 1
LCarets2: 1 0 
MultipleSubs2: "Add hairspace after last low mark subtable" patah hairspace
MultipleSubs2: "Add thinspace before narrow letter subtable" patah thinspace
MultipleSubs2: "Add hairspace before low marked Qof" patah hairspace
EndChar

StartChar: qamats
Encoding: 1464 1464 46
Width: 0
VWidth: 1877
GlyphClass: 4
Flags: W
HStem: -291 97<-117.771 5 95 202.619>
VStem: -120 325<-289.781 -287.319 -278.271 -194>
AnchorPoint: "A-18" -52.7402 0 mark 0
AnchorPoint: "A-15" -52.7402 0 mark 0
AnchorPoint: "A-12" -352.74 0 mark 0
AnchorPoint: "A-9" -177.74 0 mark 0
AnchorPoint: "A-71" -2.74023 0 mark 0
AnchorPoint: "A-50" -2.74023 0 basemark 0
AnchorPoint: "A-49" -382.74 0 basemark 0
AnchorPoint: "A-48" -342.74 0 basemark 0
AnchorPoint: "A-47" -112.74 0 basemark 0
AnchorPoint: "A-46" -72.7402 0 basemark 0
AnchorPoint: "A-45" -402.74 0 basemark 0
AnchorPoint: "A-44" -362.74 0 basemark 0
AnchorPoint: "A-43" -402.74 0 basemark 0
AnchorPoint: "A-5" -2.74023 0 mark 0
LayerCount: 2
Fore
SplineSet
192 -291 m 1
 95 -291 l 1
 137 -531 l 1
 122 -534 106 -534 90 -534 c 1
 75 -534 63 -534 47 -531 c 1
 5 -291 l 1
 -120 -291 l 17
 -121 -283 -120 -276 -120 -269 c 0
 -120 -242 -115 -218 -106 -194 c 1
 205 -194 l 1
 205 -200 205 -205 205 -211 c 0
 205 -239 201 -265 192 -291 c 1
EndSplineSet
Validated: 1
LCarets2: 1 0 
MultipleSubs2: "Add hairspace after last low mark subtable" qamats hairspace
MultipleSubs2: "Add thinspace before narrow letter subtable" qamats thinspace
MultipleSubs2: "Add hairspace before low marked Qof" qamats hairspace
EndChar

StartChar: holam
Encoding: 1465 1465 47
Width: 0
VWidth: 1774
GlyphClass: 4
Flags: W
HStem: 1208 175
VStem: -500 165
AnchorPoint: "A-35" -603 0 basemark 0
AnchorPoint: "A-34" 337 0 basemark 0
AnchorPoint: "A-33" 32 200 basemark 0
AnchorPoint: "A-22" -453 0 mark 0
AnchorPoint: "A-21" -385 0 mark 0
AnchorPoint: "A-20" -303 0 mark 0
LayerCount: 2
Fore
SplineSet
-500 1296 m 1
 -485 1334 -465 1361 -434 1383 c 1
 -395 1361 -364 1334 -335 1296 c 1
 -350 1257 -372 1230 -403 1208 c 1
 -441 1230 -472 1257 -500 1296 c 1
EndSplineSet
Validated: 1
LCarets2: 1 0 
Position2: "Move Holam to Left subtable" dx=-190 dy=0 dh=0 dv=0
EndChar

StartChar: qubuts
Encoding: 1467 1467 49
Width: 0
VWidth: 1877
GlyphClass: 4
Flags: W
HStem: -608 445
VStem: -210 555
AnchorPoint: "A-18" -55.5254 0 mark 0
AnchorPoint: "A-15" -55.5254 0 mark 0
AnchorPoint: "A-12" -355.525 0 mark 0
AnchorPoint: "A-9" -180.525 0 mark 0
AnchorPoint: "A-72" -5.52539 0 mark 0
AnchorPoint: "A-50" -5.52539 0 basemark 0
AnchorPoint: "A-49" -445.525 0 basemark 0
AnchorPoint: "A-48" -425.525 0 basemark 0
AnchorPoint: "A-47" -75.5254 0 basemark 0
AnchorPoint: "A-46" -35.5254 0 basemark 0
AnchorPoint: "A-45" -455.525 0 basemark 0
AnchorPoint: "A-44" -455.525 0 basemark 0
AnchorPoint: "A-43" -455.525 0 basemark 0
AnchorPoint: "A-5" -5.52539 0 mark 0
LayerCount: 2
Fore
SplineSet
181 -519 m 1
 196 -481 216 -454 246 -430 c 1
 287 -454 318 -481 345 -519 c 1
 331 -558 311 -585 278 -608 c 1
 240 -585 209 -558 181 -519 c 1
-15 -384 m 1
 1 -346 21 -319 52 -297 c 1
 91 -319 121 -346 150 -384 c 1
 135 -423 114 -450 83 -473 c 1
 45 -450 14 -423 -15 -384 c 1
-210 -252 m 1
 -197 -212 -176 -185 -144 -163 c 1
 -105 -185 -75 -212 -47 -252 c 1
 -61 -289 -82 -316 -113 -340 c 1
 -154 -316 -183 -289 -210 -252 c 1
EndSplineSet
Validated: 1
LCarets2: 1 0 
MultipleSubs2: "Add hairspace after last low mark subtable" qubuts hairspace
MultipleSubs2: "Add thinspace before narrow letter subtable" qubuts thinspace
MultipleSubs2: "Add hairspace before low marked Qof" qubuts hairspace
EndChar

StartChar: dagesh
Encoding: 1468 1468 50
Width: 4
GlyphClass: 4
Flags: W
HStem: 414 208
VStem: -186 193
AnchorPoint: "A-3" 0.163086 0 mark 0
LayerCount: 2
Fore
SplineSet
-186 518 m 1
 -166 557 -142 590 -108 622 c 1
 -64 591 -29 559 7 518 c 1
 -16 477 -40 445 -71 414 c 1
 -114 445 -149 477 -186 518 c 1
EndSplineSet
Validated: 1
LCarets2: 1 0 
EndChar

StartChar: meteg
Encoding: 1469 1469 51
Width: 0
VWidth: 1706
GlyphClass: 4
Flags: W
HStem: -567 385
VStem: -12 157
AnchorPoint: "A-63" -181.465 0 mark 0
AnchorPoint: "A-62" -321.465 0 mark 0
AnchorPoint: "A-61" -451.465 0 mark 0
AnchorPoint: "A-17" -51.4648 0 mark 0
AnchorPoint: "A-11" -376.465 0 mark 0
AnchorPoint: "A-8" -201.465 0 mark 0
AnchorPoint: "A-73" -501.465 0 basemark 0
AnchorPoint: "A-72" -401.465 0 basemark 0
AnchorPoint: "A-71" -361.465 0 basemark 0
AnchorPoint: "A-70" -281.465 0 basemark 0
AnchorPoint: "A-54" -301.465 0 basemark 0
AnchorPoint: "A-53" -351.465 0 basemark 0
AnchorPoint: "A-52" -351.465 0 basemark 0
AnchorPoint: "A-51" -351.465 0 basemark 0
AnchorPoint: "A-54" -31.4648 0 mark 0
AnchorPoint: "A-50" -341.465 0 basemark 0
AnchorPoint: "A-49" -251.465 0 basemark 0
AnchorPoint: "A-48" -301.465 0 basemark 0
AnchorPoint: "A-47" -221.465 0 basemark 0
AnchorPoint: "A-46" -241.465 0 basemark 0
AnchorPoint: "A-45" -331.465 0 basemark 0
AnchorPoint: "A-44" -331.465 0 basemark 0
AnchorPoint: "A-43" -301.465 0 basemark 0
AnchorPoint: "A-48" -31.4648 0 mark 0
AnchorPoint: "A-4" -1.46484 0 mark 0
LayerCount: 2
Fore
SplineSet
77 -182 m 1
 145 -567 l 1
 131 -571 117 -573 101 -573 c 0
 86 -573 72 -571 56 -567 c 1
 -12 -182 l 17
 2 -178 16 -176 31 -176 c 0
 47 -176 61 -178 77 -182 c 1
EndSplineSet
Validated: 1
LCarets2: 1 0 
MultipleSubs2: "Add hairspace after last low mark subtable" meteg hairspace
MultipleSubs2: "Add thinspace before narrow letter subtable" meteg thinspace
MultipleSubs2: "Add hairspace before low marked Qof" meteg hairspace
EndChar

StartChar: makaf
Encoding: 1470 1470 52
Width: 743
GlyphClass: 2
Flags: W
HStem: 835 178<128.204 613.77>
VStem: 125 493<838 1013>
AnchorPoint: "A-32" 562.304 0 basechar 0
AnchorPoint: "A-31" 562.304 0 basechar 0
AnchorPoint: "A-30" 662.304 0 basechar 0
AnchorPoint: "A-29" 662.304 0 basechar 0
AnchorPoint: "A-28" 742.304 0 basechar 0
AnchorPoint: "A-27" 242.304 0 basechar 0
AnchorPoint: "A-26" 742.304 0 basechar 0
AnchorPoint: "A-25" 242.304 0 basechar 0
AnchorPoint: "A-24" 562.304 0 basechar 0
AnchorPoint: "A-23" 562.304 0 basechar 0
LayerCount: 2
Fore
SplineSet
136 1013 m 1
 614 1016 l 1
 617 991 618 967 618 945 c 0
 618 908 614 874 607 838 c 1
 129 835 l 17
 126 861 125 886 125 910 c 0
 125 946 128 980 136 1013 c 1
EndSplineSet
EndChar

StartChar: rafe
Encoding: 1471 1471 53
Width: 9
VWidth: 1877
GlyphClass: 4
Flags: W
HStem: 1203 119<-425.86 -8.28003>
VStem: -431 428<1186.59 1302.5>
AnchorPoint: "A-24" 0 0 mark 0
LayerCount: 2
Fore
SplineSet
-412 1322 m 1
 -3 1322 l 1
 -3 1316 -3 1310 -3 1304 c 0
 -3 1268 -8 1237 -21 1203 c 1
 -431 1203 l 17
 -431 1209 -431 1215 -431 1221 c 0
 -431 1257 -426 1290 -412 1322 c 1
EndSplineSet
Validated: 1
LCarets2: 1 0 
EndChar

StartChar: paseq
Encoding: 1472 1472 54
Width: 578
VWidth: 1826
GlyphClass: 2
Flags: W
VStem: 125 328
LayerCount: 2
Fore
SplineSet
125 1085 m 1
 157 1109 192 1126 235 1132 c 1
 453 -97 l 1
 419 -123 383 -138 341 -143 c 1
 125 1085 l 1
EndSplineSet
EndChar

StartChar: shindot
Encoding: 1473 1473 55
Width: 0
VWidth: 1877
GlyphClass: 4
Flags: W
HStem: 1215 177
VStem: -313 166
AnchorPoint: "A-60" -356.931 0 mark 0
LayerCount: 2
Fore
SplineSet
-313 1304 m 1
 -298 1341 -276 1369 -246 1392 c 1
 -207 1369 -176 1341 -147 1304 c 1
 -163 1266 -184 1237 -215 1215 c 1
 -253 1237 -285 1266 -313 1304 c 1
EndSplineSet
Validated: 1
EndChar

StartChar: sindot
Encoding: 1474 1474 56
Width: 0
VWidth: 1877
GlyphClass: 4
Flags: W
HStem: 1212 177
VStem: -312 165
AnchorPoint: "A-60" 380.099 0 mark 0
LayerCount: 2
Fore
SplineSet
-312 1301 m 1
 -298 1338 -277 1366 -245 1389 c 1
 -206 1366 -176 1338 -147 1301 c 1
 -163 1263 -183 1234 -214 1212 c 1
 -254 1234 -285 1263 -312 1301 c 1
EndSplineSet
Validated: 1
EndChar

StartChar: sofpasuq
Encoding: 1475 1475 57
Width: 668
GlyphClass: 2
Flags: W
HStem: -20 21G<395.5 454.5>
VStem: 125 418
LayerCount: 2
Fore
SplineSet
363 333 m 1
 439 273 490 218 543 148 c 1
 517 82 479 26 430 -20 c 1
 361 32 299 84 244 154 c 1
 276 228 315 281 363 333 c 1
244 982 m 1
 320 922 371 867 423 797 c 1
 397 731 360 675 311 629 c 1
 242 681 180 734 125 803 c 1
 156 878 196 930 244 982 c 1
EndSplineSet
EndChar

StartChar: upperdot
Encoding: 1476 1476 58
Width: 0
VWidth: 1774
GlyphClass: 4
Flags: W
HStem: 1627 273
VStem: -440 257
AnchorPoint: "A-1" -2.54102 -8 mark 0
LayerCount: 2
Fore
SplineSet
-440 1764 m 1
 -417 1823 -386 1865 -338 1900 c 1
 -277 1865 -228 1823 -183 1764 c 1
 -207 1703 -240 1661 -289 1627 c 1
 -349 1661 -396 1703 -440 1764 c 1
EndSplineSet
Validated: 1
LCarets2: 1 0 
EndChar

StartChar: lowerdot
Encoding: 1477 1477 59
Width: 0
GlyphClass: 4
Flags: W
HStem: -883 273
VStem: 3 257
AnchorPoint: "A-1" -0.959961 0 mark 0
LayerCount: 2
Fore
SplineSet
3 -746 m 1
 26 -686 59 -644 107 -610 c 1
 168 -644 214 -686 260 -746 c 1
 235 -807 204 -849 155 -883 c 1
 95 -849 47 -807 3 -746 c 1
EndSplineSet
Validated: 1
LCarets2: 1 0 
EndChar

StartChar: nunhapukha
Encoding: 1478 1478 60
Width: 718
GlyphClass: 2
Flags: W
HStem: 799 181<276.75 404.61>
VStem: 44 170<416.781 736.578>
AnchorPoint: "A-32" 429 0 basechar 0
AnchorPoint: "A-31" 429 0 basechar 0
AnchorPoint: "A-30" 599 0 basechar 0
AnchorPoint: "A-29" 599 0 basechar 0
AnchorPoint: "A-28" 599 0 basechar 0
AnchorPoint: "A-27" 249 0 basechar 0
AnchorPoint: "A-26" 559 0 basechar 0
AnchorPoint: "A-25" 49 0 basechar 0
AnchorPoint: "A-24" 429 0 basechar 0
AnchorPoint: "A-23" 429 0 basechar 0
AnchorPoint: "A-2" 429 0 basechar 0
AnchorPoint: "A-1" 429 0 basechar 0
AnchorPoint: "A-0" 429 0 basechar 0
LayerCount: 2
Fore
SplineSet
401 985 m 1
 416 934 436 864 467 799 c 1
 452 800 438 799 425 799 c 0
 311 799 214 756 214 587 c 0
 214 542 222 483 259 366 c 1
 266 360 l 1
 361 251 449 233 531 186 c 1
 589 100 609 -21 618 -64 c 1
 435 -29 356 6 233 93 c 1
 160 233 123 310 99 386 c 1
 89 411 44 548 44 636 c 0
 44 690 53 736 69 777 c 1
 78 805 l 1
 64 821 l 1
 34 850 0 894 0 942 c 0
 0 990 15 1039 37 1093 c 1
 171 1096 l 1
 195 1016 265 980 343 980 c 0
 362 980 381 981 401 985 c 1
EndSplineSet
Validated: 1
EndChar

StartChar: qamatsqatan
Encoding: 1479 1479 61
Width: 0
VWidth: 1877
GlyphClass: 4
Flags: W
HStem: -291 97<-117.771 3 95 202.619>
VStem: -120 325<-289.781 -287.319 -278.271 -194>
AnchorPoint: "A-18" -52.7402 0 mark 0
AnchorPoint: "A-15" -52.7402 0 mark 0
AnchorPoint: "A-12" -352.74 0 mark 0
AnchorPoint: "A-9" -177.74 0 mark 0
AnchorPoint: "A-50" -2.74023 0 basemark 0
AnchorPoint: "A-49" -382.74 0 basemark 0
AnchorPoint: "A-48" -342.74 0 basemark 0
AnchorPoint: "A-47" -2.74023 0 basemark 0
AnchorPoint: "A-46" -2.74023 0 basemark 0
AnchorPoint: "A-45" -2.74023 0 basemark 0
AnchorPoint: "A-44" -2.74023 0 basemark 0
AnchorPoint: "A-43" -2.74023 0 basemark 0
AnchorPoint: "A-5" -2.74023 0 mark 0
LayerCount: 2
Fore
SplineSet
192 -291 m 1
 95 -291 l 1
 153 -632 l 1
 138 -635 122 -635 106 -635 c 1
 91 -635 79 -635 63 -632 c 1
 3 -291 l 1
 -120 -291 l 1
 -121 -283 -120 -276 -120 -269 c 0
 -120 -242 -115 -218 -106 -194 c 1
 205 -194 l 1
 205 -200 205 -205 205 -211 c 0
 205 -239 201 -265 192 -291 c 1
EndSplineSet
Validated: 1
MultipleSubs2: "Add hairspace after last low mark subtable" qamatsqatan hairspace
MultipleSubs2: "Add thinspace before narrow letter subtable" qamatsqatan thinspace
MultipleSubs2: "Add hairspace before low marked Qof" qamatsqatan hairspace
EndChar

StartChar: alef
Encoding: 1488 1488 62
Width: 1247
GlyphClass: 2
Flags: W
VStem: 356 103<60.0645 396.969> 906 150<683.913 975.305>
AnchorPoint: "A-69" 849 0 basechar 0
AnchorPoint: "A-68" 849 0 basechar 0
AnchorPoint: "A-67" 849 0 basechar 0
AnchorPoint: "A-66" 849 0 basechar 0
AnchorPoint: "A-65" 849 0 basechar 0
AnchorPoint: "A-64" 849 0 basechar 0
AnchorPoint: "A-63" 849 0 basechar 0
AnchorPoint: "A-62" 849 0 basechar 0
AnchorPoint: "A-61" 849 0 basechar 0
AnchorPoint: "A-59" 254 0 basechar 0
AnchorPoint: "A-55" 1194 0 basechar 0
AnchorPoint: "A-42" 874 0 basechar 0
AnchorPoint: "A-39" 849 0 basechar 0
AnchorPoint: "A-36" 849 0 basechar 0
AnchorPoint: "A-21" -176 0 basechar 0
AnchorPoint: "A-16" 849 0 basechar 0
AnchorPoint: "A-15" 849 0 basechar 0
AnchorPoint: "A-14" 849 0 basechar 0
AnchorPoint: "A-13" 849 0 basechar 0
AnchorPoint: "A-12" 849 0 basechar 0
AnchorPoint: "A-11" 849 0 basechar 0
AnchorPoint: "A-10" 849 0 basechar 0
AnchorPoint: "A-9" 849 0 basechar 0
AnchorPoint: "A-8" 849 0 basechar 0
AnchorPoint: "A-41" 849 0 basechar 0
AnchorPoint: "A-40" 849 0 basechar 0
AnchorPoint: "A-32" 849 0 basechar 0
AnchorPoint: "A-31" 849 0 basechar 0
AnchorPoint: "A-30" 849 0 basechar 0
AnchorPoint: "A-29" 849 0 basechar 0
AnchorPoint: "A-28" 739 0 basechar 0
AnchorPoint: "A-27" 849 0 basechar 0
AnchorPoint: "A-26" 1194 0 basechar 0
AnchorPoint: "A-25" 404 0 basechar 0
AnchorPoint: "A-24" 849 0 basechar 0
AnchorPoint: "A-23" 849 0 basechar 0
AnchorPoint: "A-20" 294 0 basechar 0
AnchorPoint: "A-7" 849 0 basechar 0
AnchorPoint: "A-6" 849 0 basechar 0
AnchorPoint: "A-5" 849 0 basechar 0
AnchorPoint: "A-4" 849 0 basechar 0
AnchorPoint: "A-2" 849 0 basechar 0
AnchorPoint: "A-1" 849 0 basechar 0
AnchorPoint: "A-0" 849 0 basechar 0
LayerCount: 2
Fore
SplineSet
215 1071 m 1
 282 982 322 911 356 824 c 1
 554 778 705 717 860 611 c 1
 891 659 906 715 906 768 c 0
 906 826 889 880 858 923 c 1
 894 983 930 1028 986 1071 c 1
 1035 1011 1056 945 1056 877 c 0
 1056 768 1007 652 940 551 c 1
 1065 440 1158 273 1213 121 c 1
 1191 63 1164 18 1121 -40 c 1
 1078 103 1003 275 853 418 c 16
 742 524 571 594 414 626 c 1
 446 460 459 264 459 90 c 1
 437 35 399 -11 356 -40 c 1
 356 358 293 646 107 919 c 1
 136 980 171 1027 215 1071 c 1
EndSplineSet
LCarets2: 1 0 
MultipleSubs2: "Add hairspace before low marked Qof" alef hairspace
Substitution2: "'jalt' Wide Letter Alternatives in Hebrew subtable" alef.wide
EndChar

StartChar: bet
Encoding: 1489 1489 63
Width: 965
GlyphClass: 2
Flags: W
HStem: -50 207<218.073 382.583> 898 172<182.812 345.576>
VStem: 647 150<469.669 668.146> 676 186<625.886 772.528>
AnchorPoint: "A-69" 601 0 basechar 0
AnchorPoint: "A-68" 601 0 basechar 0
AnchorPoint: "A-67" 601 0 basechar 0
AnchorPoint: "A-66" 601 0 basechar 0
AnchorPoint: "A-65" 601 0 basechar 0
AnchorPoint: "A-64" 601 0 basechar 0
AnchorPoint: "A-63" 601 0 basechar 0
AnchorPoint: "A-62" 601 0 basechar 0
AnchorPoint: "A-61" 601 0 basechar 0
AnchorPoint: "A-59" 96 0 basechar 0
AnchorPoint: "A-55" 866 0 basechar 0
AnchorPoint: "A-42" 601 0 basechar 0
AnchorPoint: "A-39" 596 0 basechar 0
AnchorPoint: "A-36" 601 0 basechar 0
AnchorPoint: "A-21" -334 0 basechar 0
AnchorPoint: "A-16" 601 0 basechar 0
AnchorPoint: "A-15" 601 0 basechar 0
AnchorPoint: "A-14" 601 0 basechar 0
AnchorPoint: "A-13" 601 0 basechar 0
AnchorPoint: "A-12" 601 0 basechar 0
AnchorPoint: "A-11" 601 0 basechar 0
AnchorPoint: "A-10" 611 0 basechar 0
AnchorPoint: "A-9" 611 0 basechar 0
AnchorPoint: "A-8" 601 0 basechar 0
AnchorPoint: "A-41" 601 0 basechar 0
AnchorPoint: "A-40" 601 0 basechar 0
AnchorPoint: "A-32" 596 0 basechar 0
AnchorPoint: "A-31" 596 0 basechar 0
AnchorPoint: "A-30" 596 0 basechar 0
AnchorPoint: "A-29" 616 0 basechar 0
AnchorPoint: "A-28" 581 0 basechar 0
AnchorPoint: "A-27" 576 0 basechar 0
AnchorPoint: "A-26" 866 0 basechar 0
AnchorPoint: "A-25" 166 0 basechar 0
AnchorPoint: "A-24" 601 0 basechar 0
AnchorPoint: "A-23" 596 0 basechar 0
AnchorPoint: "A-20" 76 0 basechar 0
AnchorPoint: "A-7" 601 0 basechar 0
AnchorPoint: "A-6" 601 0 basechar 0
AnchorPoint: "A-5" 601 0 basechar 0
AnchorPoint: "A-4" 601 0 basechar 0
AnchorPoint: "A-2" 596 0 basechar 0
AnchorPoint: "A-1" 596 0 basechar 0
AnchorPoint: "A-0" 596 0 basechar 0
LayerCount: 2
Fore
SplineSet
202 1070 m 1xd0
 422 1017 658 972 784 905 c 0
 856 867 862 818 862 751 c 0xd0
 862 700 833 670 811 609 c 0
 801 582 797 562 797 543 c 0xe0
 797 509 815 488 854 461 c 0
 893 434 946 425 958 401 c 0
 963 391 966 379 966 367 c 0
 966 338 949 303 905 248 c 0
 825 152 415 -50 110 -50 c 1
 122 22 165 92 230 157 c 1
 409 188 637 240 734 312 c 1
 707 341 690 352 676 372 c 0xd0
 657 398 647 430 647 466 c 0
 647 476 644 486 647 498 c 0xe0
 659 556 676 610 676 671 c 0
 676 724 657 768 608 785 c 16
 383 864 199 872 62 898 c 1
 96 973 142 1031 202 1070 c 1xd0
EndSplineSet
LCarets2: 1 0 
MultipleSubs2: "Add hairspace before low marked Qof" bet hairspace
EndChar

StartChar: gimel
Encoding: 1490 1490 64
Width: 695
GlyphClass: 2
Flags: W
VStem: 617 96<69.4688 132.906>
AnchorPoint: "A-69" 487 0 basechar 0
AnchorPoint: "A-68" 457 0 basechar 0
AnchorPoint: "A-67" 487 0 basechar 0
AnchorPoint: "A-66" 487 0 basechar 0
AnchorPoint: "A-65" 487 0 basechar 0
AnchorPoint: "A-64" 487 0 basechar 0
AnchorPoint: "A-63" 487 0 basechar 0
AnchorPoint: "A-62" 487 0 basechar 0
AnchorPoint: "A-61" 487 0 basechar 0
AnchorPoint: "A-59" 127 0 basechar 0
AnchorPoint: "A-55" 582 0 basechar 0
AnchorPoint: "A-42" 487 0 basechar 0
AnchorPoint: "A-39" 472 0 basechar 0
AnchorPoint: "A-36" 469 0 basechar 0
AnchorPoint: "A-22" -23 0 basechar 0
AnchorPoint: "A-21" -303 0 basechar 0
AnchorPoint: "A-16" 487 0 basechar 0
AnchorPoint: "A-15" 487 0 basechar 0
AnchorPoint: "A-14" 487 0 basechar 0
AnchorPoint: "A-13" 487 0 basechar 0
AnchorPoint: "A-12" 487 0 basechar 0
AnchorPoint: "A-11" 487 0 basechar 0
AnchorPoint: "A-10" 487 0 basechar 0
AnchorPoint: "A-9" 487 0 basechar 0
AnchorPoint: "A-8" 487 0 basechar 0
AnchorPoint: "A-41" 327 10 basechar 0
AnchorPoint: "A-40" 487 0 basechar 0
AnchorPoint: "A-32" 472 0 basechar 0
AnchorPoint: "A-31" 472 0 basechar 0
AnchorPoint: "A-30" 652 0 basechar 0
AnchorPoint: "A-29" 652 0 basechar 0
AnchorPoint: "A-28" 512 0 basechar 0
AnchorPoint: "A-27" 292 0 basechar 0
AnchorPoint: "A-26" 582 0 basechar 0
AnchorPoint: "A-25" 147 0 basechar 0
AnchorPoint: "A-24" 472 0 basechar 0
AnchorPoint: "A-23" 472 0 basechar 0
AnchorPoint: "A-20" 217 0 basechar 0
AnchorPoint: "A-7" 487 0 basechar 0
AnchorPoint: "A-6" 487 0 basechar 0
AnchorPoint: "A-5" 487 0 basechar 0
AnchorPoint: "A-4" 487 0 basechar 0
AnchorPoint: "A-2" 572 0 basechar 0
AnchorPoint: "A-1" 572 0 basechar 0
AnchorPoint: "A-0" 572 0 basechar 0
LayerCount: 2
Fore
SplineSet
219 1080 m 1
 455 879 713 455 713 117 c 1
 699 50 668 -2 617 -45 c 1
 591 85 567 167 540 252 c 1
 508 182 320 -16 175 -45 c 1
 175 20 187 81 206 129 c 1
 271 187 364 237 424 302 c 0
 460 341 475 379 475 420 c 0
 475 461 459 506 428 561 c 0
 351 699 212 810 96 918 c 1
 130 985 170 1041 219 1080 c 1
EndSplineSet
LCarets2: 1 0 
MultipleSubs2: "Add hairspace before narrowletter subtable subtable" hairspace gimel
MultipleSubs2: "Add hairspace before low marked Qof" gimel hairspace
EndChar

StartChar: dalet
Encoding: 1491 1491 65
Width: 955
GlyphClass: 2
Flags: W
HStem: -28 21G<591.5 648.5> 906 164<5.9945 315.631>
VStem: 427 114<486.588 721.149>
AnchorPoint: "A-69" 599 0 basechar 0
AnchorPoint: "A-68" 519 0 basechar 0
AnchorPoint: "A-67" 399 0 basechar 0
AnchorPoint: "A-66" 599 0 basechar 0
AnchorPoint: "A-65" 499 0 basechar 0
AnchorPoint: "A-64" 399 0 basechar 0
AnchorPoint: "A-63" 599 0 basechar 0
AnchorPoint: "A-62" 499 0 basechar 0
AnchorPoint: "A-61" 399 0 basechar 0
AnchorPoint: "A-59" 29 0 basechar 0
AnchorPoint: "A-55" 829 -10 basechar 0
AnchorPoint: "A-42" 514 0 basechar 0
AnchorPoint: "A-39" 519 0 basechar 0
AnchorPoint: "A-36" 525 0 basechar 0
AnchorPoint: "A-21" -401 0 basechar 0
AnchorPoint: "A-19" 409 0 basechar 0
AnchorPoint: "A-18" 564 0 basechar 0
AnchorPoint: "A-17" 564 0 basechar 0
AnchorPoint: "A-16" 409 0 basechar 0
AnchorPoint: "A-15" 564 0 basechar 0
AnchorPoint: "A-14" 564 0 basechar 0
AnchorPoint: "A-13" 409 0 basechar 0
AnchorPoint: "A-12" 564 0 basechar 0
AnchorPoint: "A-11" 564 0 basechar 0
AnchorPoint: "A-10" 409 0 basechar 0
AnchorPoint: "A-9" 564 0 basechar 0
AnchorPoint: "A-8" 564 0 basechar 0
AnchorPoint: "A-41" 359 0 basechar 0
AnchorPoint: "A-40" 709 0 basechar 0
AnchorPoint: "A-32" 519 0 basechar 0
AnchorPoint: "A-31" 519 0 basechar 0
AnchorPoint: "A-30" 519 0 basechar 0
AnchorPoint: "A-29" 519 0 basechar 0
AnchorPoint: "A-28" 514 0 basechar 0
AnchorPoint: "A-27" 519 0 basechar 0
AnchorPoint: "A-26" 829 -10 basechar 0
AnchorPoint: "A-25" 9 0 basechar 0
AnchorPoint: "A-24" 525 0 basechar 0
AnchorPoint: "A-23" 519 0 basechar 0
AnchorPoint: "A-20" -71 0 basechar 0
AnchorPoint: "A-7" 509 0 basechar 0
AnchorPoint: "A-6" 574 0 basechar 0
AnchorPoint: "A-5" 714 0 basechar 0
AnchorPoint: "A-4" 714 0 basechar 0
AnchorPoint: "A-2" 519 0 basechar 0
AnchorPoint: "A-1" 519 0 basechar 0
AnchorPoint: "A-0" 519 0 basechar 0
LayerCount: 2
Fore
SplineSet
-67 906 m 1
 -54 973 -27 1035 21 1070 c 1
 296 1070 638 976 734 913 c 1
 736 908 736 900 736 891 c 0
 736 855 727 798 717 764 c 1
 674 757 636 744 592 725 c 0
 560 708 541 684 541 648 c 0
 541 636 543 625 546 611 c 0
 587 457 657 305 717 160 c 1
 717 85 674 23 623 -28 c 1
 560 102 499 262 446 433 c 0
 434 472 427 526 427 575 c 0
 427 619 432 659 441 686 c 0
 460 742 490 790 502 812 c 1
 255 892 63 906 -67 906 c 1
EndSplineSet
LCarets2: 1 0 
MultipleSubs2: "Add hairspace before low marked Qof" dalet hairspace
Substitution2: "'jalt' Wide Letter Alternatives in Hebrew subtable" dalet.wide
EndChar

StartChar: he
Encoding: 1492 1492 66
Width: 1164
GlyphClass: 2
Flags: W
HStem: 898 170<190.325 460.64>
VStem: 232 74<485.609 501.542> 1052 107<94.8792 319.245>
AnchorPoint: "A-69" 803 0 basechar 0
AnchorPoint: "A-68" 803 0 basechar 0
AnchorPoint: "A-67" 803 0 basechar 0
AnchorPoint: "A-66" 803 0 basechar 0
AnchorPoint: "A-65" 803 0 basechar 0
AnchorPoint: "A-64" 803 0 basechar 0
AnchorPoint: "A-63" 803 0 basechar 0
AnchorPoint: "A-62" 803 0 basechar 0
AnchorPoint: "A-61" 803 0 basechar 0
AnchorPoint: "A-59" 218 0 basechar 0
AnchorPoint: "A-55" 1138 0 basechar 0
AnchorPoint: "A-42" 803 0 basechar 0
AnchorPoint: "A-39" 808 0 basechar 0
AnchorPoint: "A-36" 801 0 basechar 0
AnchorPoint: "A-21" -212 0 basechar 0
AnchorPoint: "A-16" 803 0 basechar 0
AnchorPoint: "A-15" 803 0 basechar 0
AnchorPoint: "A-14" 803 0 basechar 0
AnchorPoint: "A-13" 803 0 basechar 0
AnchorPoint: "A-12" 803 0 basechar 0
AnchorPoint: "A-11" 803 0 basechar 0
AnchorPoint: "A-10" 803 0 basechar 0
AnchorPoint: "A-9" 803 0 basechar 0
AnchorPoint: "A-8" 803 0 basechar 0
AnchorPoint: "A-41" 768 0 basechar 0
AnchorPoint: "A-40" 803 0 basechar 0
AnchorPoint: "A-32" 808 0 basechar 0
AnchorPoint: "A-31" 808 0 basechar 0
AnchorPoint: "A-30" 808 0 basechar 0
AnchorPoint: "A-29" 808 0 basechar 0
AnchorPoint: "A-28" 703 0 basechar 0
AnchorPoint: "A-27" 808 0 basechar 0
AnchorPoint: "A-26" 1138 0 basechar 0
AnchorPoint: "A-25" 298 0 basechar 0
AnchorPoint: "A-24" 801 0 basechar 0
AnchorPoint: "A-23" 808 0 basechar 0
AnchorPoint: "A-20" 218 0 basechar 0
AnchorPoint: "A-7" 803 0 basechar 0
AnchorPoint: "A-6" 803 0 basechar 0
AnchorPoint: "A-5" 803 0 basechar 0
AnchorPoint: "A-4" 803 0 basechar 0
AnchorPoint: "A-2" 808 0 basechar 0
AnchorPoint: "A-1" 808 0 basechar 0
AnchorPoint: "A-0" 808 0 basechar 0
LayerCount: 2
Fore
SplineSet
306 593 m 1
 376 366 432 255 500 137 c 1
 500 65 465 -7 439 -39 c 1
 362 28 262 200 238 323 c 1
 235 342 232 364 232 388 c 0
 232 477 258 584 306 593 c 1
207 1068 m 1
 342 1068 570 1033 782 944 c 16
 913 889 998 806 1058 666 c 16
 1138 480 1159 338 1159 147 c 1
 1144 63 1103 0 1052 -43 c 1
 1052 95 1037 242 980 413 c 16
 896 664 773 766 635 809 c 8
 424 875 225 898 75 898 c 1
 106 961 156 1030 207 1068 c 1
EndSplineSet
LCarets2: 1 0 
MultipleSubs2: "Add hairspace before low marked Qof" he hairspace
Substitution2: "'jalt' Wide Letter Alternatives in Hebrew subtable" he.wide
EndChar

StartChar: vav
Encoding: 1493 1493 67
Width: 611
GlyphClass: 2
Flags: W
VStem: 474 97<52.1166 312.625>
AnchorPoint: "A-69" 445 0 basechar 0
AnchorPoint: "A-68" 430 0 basechar 0
AnchorPoint: "A-67" 485 0 basechar 0
AnchorPoint: "A-66" 445 0 basechar 0
AnchorPoint: "A-65" 365 0 basechar 0
AnchorPoint: "A-64" 445 0 basechar 0
AnchorPoint: "A-63" 445 0 basechar 0
AnchorPoint: "A-62" 365 0 basechar 0
AnchorPoint: "A-61" 445 0 basechar 0
AnchorPoint: "A-59" 200 0 basechar 0
AnchorPoint: "A-55" 590 0 basechar 0
AnchorPoint: "A-42" 545 0 basechar 0
AnchorPoint: "A-39" 480 0 basechar 0
AnchorPoint: "A-36" 480 0 basechar 0
AnchorPoint: "A-21" 320 0 basechar 0
AnchorPoint: "A-16" 480 0 basechar 0
AnchorPoint: "A-15" 490 0 basechar 0
AnchorPoint: "A-14" 525 0 basechar 0
AnchorPoint: "A-13" 490 0 basechar 0
AnchorPoint: "A-12" 545 0 basechar 0
AnchorPoint: "A-11" 545 0 basechar 0
AnchorPoint: "A-10" 490 0 basechar 0
AnchorPoint: "A-9" 545 0 basechar 0
AnchorPoint: "A-8" 545 0 basechar 0
AnchorPoint: "A-41" 200 0 basechar 0
AnchorPoint: "A-40" 475 0 basechar 0
AnchorPoint: "A-32" 480 0 basechar 0
AnchorPoint: "A-31" 480 0 basechar 0
AnchorPoint: "A-30" 640 0 basechar 0
AnchorPoint: "A-29" 700 0 basechar 0
AnchorPoint: "A-28" 685 0 basechar 0
AnchorPoint: "A-27" 300 0 basechar 0
AnchorPoint: "A-26" 590 0 basechar 0
AnchorPoint: "A-25" 220 0 basechar 0
AnchorPoint: "A-24" 480 0 basechar 0
AnchorPoint: "A-23" 480 0 basechar 0
AnchorPoint: "A-20" 320 0 basechar 0
AnchorPoint: "A-7" 490 0 basechar 0
AnchorPoint: "A-6" 490 0 basechar 0
AnchorPoint: "A-5" 545 0 basechar 0
AnchorPoint: "A-4" 545 0 basechar 0
AnchorPoint: "A-2" 480 0 basechar 0
AnchorPoint: "A-1" 480 0 basechar 0
AnchorPoint: "A-0" 480 0 basechar 0
LayerCount: 2
Fore
SplineSet
170 1068 m 1
 375 937 489 762 528 555 c 8
 564 372 571 251 571 77 c 1
 552 39 518 -16 474 -43 c 1
 474 160 428 353 368 517 c 0
 303 698 200 772 57 898 c 1
 83 966 119 1024 170 1068 c 1
EndSplineSet
LCarets2: 1 0 
MultipleSubs2: "Add hairspace before narrowletter subtable subtable" hairspace vav
MultipleSubs2: "Add hairspace before low marked Qof" vav hairspace
EndChar

StartChar: zain
Encoding: 1494 1494 68
Width: 733
GlyphClass: 2
Flags: W
VStem: 215 144<483.55 696.341>
AnchorPoint: "A-69" 467 0 basechar 0
AnchorPoint: "A-68" 447 0 basechar 0
AnchorPoint: "A-67" 467 0 basechar 0
AnchorPoint: "A-66" 467 0 basechar 0
AnchorPoint: "A-65" 467 0 basechar 0
AnchorPoint: "A-64" 467 0 basechar 0
AnchorPoint: "A-63" 467 0 basechar 0
AnchorPoint: "A-62" 467 0 basechar 0
AnchorPoint: "A-61" 467 0 basechar 0
AnchorPoint: "A-59" 277 0 basechar 0
AnchorPoint: "A-55" 777 0 basechar 0
AnchorPoint: "A-42" 577 0 basechar 0
AnchorPoint: "A-39" 582 0 basechar 0
AnchorPoint: "A-36" 597 0 basechar 0
AnchorPoint: "A-22" 17 0 basechar 0
AnchorPoint: "A-21" -153 0 basechar 0
AnchorPoint: "A-16" 547 0 basechar 0
AnchorPoint: "A-15" 507 0 basechar 0
AnchorPoint: "A-14" 557 0 basechar 0
AnchorPoint: "A-13" 567 0 basechar 0
AnchorPoint: "A-12" 577 0 basechar 0
AnchorPoint: "A-11" 577 0 basechar 0
AnchorPoint: "A-10" 567 0 basechar 0
AnchorPoint: "A-9" 577 0 basechar 0
AnchorPoint: "A-8" 577 0 basechar 0
AnchorPoint: "A-41" 217 0 basechar 0
AnchorPoint: "A-40" 517 0 basechar 0
AnchorPoint: "A-32" 597 0 basechar 0
AnchorPoint: "A-31" 597 0 basechar 0
AnchorPoint: "A-30" 717 0 basechar 0
AnchorPoint: "A-29" 737 0 basechar 0
AnchorPoint: "A-28" 762 0 basechar 0
AnchorPoint: "A-27" 497 0 basechar 0
AnchorPoint: "A-26" 777 0 basechar 0
AnchorPoint: "A-25" 307 0 basechar 0
AnchorPoint: "A-24" 597 0 basechar 0
AnchorPoint: "A-23" 582 0 basechar 0
AnchorPoint: "A-20" 227 0 basechar 0
AnchorPoint: "A-7" 567 0 basechar 0
AnchorPoint: "A-6" 567 0 basechar 0
AnchorPoint: "A-5" 577 0 basechar 0
AnchorPoint: "A-4" 577 0 basechar 0
AnchorPoint: "A-2" 582 0 basechar 0
AnchorPoint: "A-1" 582 0 basechar 0
AnchorPoint: "A-0" 582 0 basechar 0
LayerCount: 2
Fore
SplineSet
232 1068 m 1
 370 1003 522 917 645 794 c 1
 631 727 595 659 557 616 c 1
 492 657 449 690 405 724 c 1
 374 690 359 656 359 608 c 16
 359 538 490 307 574 189 c 1
 577 167 579 145 579 125 c 0
 579 50 558 -11 524 -43 c 1
 379 153 215 464 215 573 c 0
 215 636 272 712 311 787 c 1
 251 831 174 859 116 886 c 1
 136 941 177 1024 232 1068 c 1
EndSplineSet
LCarets2: 1 0 
MultipleSubs2: "Add hairspace before narrowletter subtable subtable" hairspace zain
MultipleSubs2: "Add hairspace before low marked Qof" zain hairspace
EndChar

StartChar: het
Encoding: 1495 1495 69
Width: 1170
GlyphClass: 2
Flags: W
VStem: 323 133<105.223 426.887> 1057 121<97.4451 339.016>
AnchorPoint: "A-69" 788 0 basechar 0
AnchorPoint: "A-68" 788 0 basechar 0
AnchorPoint: "A-67" 788 0 basechar 0
AnchorPoint: "A-66" 788 0 basechar 0
AnchorPoint: "A-65" 788 0 basechar 0
AnchorPoint: "A-64" 788 0 basechar 0
AnchorPoint: "A-63" 788 0 basechar 0
AnchorPoint: "A-62" 788 0 basechar 0
AnchorPoint: "A-61" 788 0 basechar 0
AnchorPoint: "A-59" 158 0 basechar 0
AnchorPoint: "A-55" 1128 0 basechar 0
AnchorPoint: "A-42" 788 0 basechar 0
AnchorPoint: "A-39" 778 0 basechar 0
AnchorPoint: "A-36" 778 0 basechar 0
AnchorPoint: "A-21" -272 0 basechar 0
AnchorPoint: "A-16" 788 0 basechar 0
AnchorPoint: "A-15" 788 0 basechar 0
AnchorPoint: "A-14" 788 0 basechar 0
AnchorPoint: "A-13" 788 0 basechar 0
AnchorPoint: "A-12" 788 0 basechar 0
AnchorPoint: "A-11" 788 0 basechar 0
AnchorPoint: "A-10" 788 0 basechar 0
AnchorPoint: "A-9" 788 0 basechar 0
AnchorPoint: "A-8" 788 0 basechar 0
AnchorPoint: "A-41" 738 0 basechar 0
AnchorPoint: "A-40" 788 0 basechar 0
AnchorPoint: "A-32" 778 0 basechar 0
AnchorPoint: "A-31" 778 0 basechar 0
AnchorPoint: "A-30" 778 0 basechar 0
AnchorPoint: "A-29" 778 0 basechar 0
AnchorPoint: "A-28" 643 0 basechar 0
AnchorPoint: "A-27" 778 0 basechar 0
AnchorPoint: "A-26" 1128 0 basechar 0
AnchorPoint: "A-25" 238 0 basechar 0
AnchorPoint: "A-24" 778 0 basechar 0
AnchorPoint: "A-23" 778 0 basechar 0
AnchorPoint: "A-20" 158 0 basechar 0
AnchorPoint: "A-7" 788 0 basechar 0
AnchorPoint: "A-6" 788 0 basechar 0
AnchorPoint: "A-5" 788 0 basechar 0
AnchorPoint: "A-4" 788 0 basechar 0
AnchorPoint: "A-3" 788 0 basechar 0
AnchorPoint: "A-2" 778 0 basechar 0
AnchorPoint: "A-1" 778 0 basechar 0
AnchorPoint: "A-0" 778 0 basechar 0
LayerCount: 2
Fore
SplineSet
267 1068 m 1
 308 1044 331 1022 408 1012 c 0
 555 990 651 971 796 916 c 16
 950 856 1040 747 1091 616 c 0
 1147 471 1178 321 1178 138 c 1
 1158 65 1112 -5 1057 -43 c 1
 1047 1 1041 169 1021 300 c 0
 999 428 956 533 896 613 c 0
 848 678 776 725 697 759 c 8
 574 814 458 821 361 821 c 1
 426 688 456 456 456 147 c 1
 436 65 381 -14 323 -43 c 1
 323 104 316 189 302 333 c 0
 283 528 253 640 193 806 c 8
 181 838 141 853 134 870 c 1
 170 950 211 1015 267 1068 c 1
EndSplineSet
LCarets2: 1 0 
MultipleSubs2: "Add hairspace before low marked Qof" het hairspace
EndChar

StartChar: tet
Encoding: 1496 1496 70
Width: 1295
GlyphClass: 2
Flags: W
HStem: -44 190<650.604 847.628> 856 182<665.646 928.218>
VStem: 1041 135<344.005 723.787>
AnchorPoint: "A-69" 873 0 basechar 0
AnchorPoint: "A-68" 873 0 basechar 0
AnchorPoint: "A-67" 873 0 basechar 0
AnchorPoint: "A-66" 873 0 basechar 0
AnchorPoint: "A-65" 873 0 basechar 0
AnchorPoint: "A-64" 873 0 basechar 0
AnchorPoint: "A-63" 873 0 basechar 0
AnchorPoint: "A-62" 873 0 basechar 0
AnchorPoint: "A-61" 873 0 basechar 0
AnchorPoint: "A-59" 283 0 basechar 0
AnchorPoint: "A-55" 1243 0 basechar 0
AnchorPoint: "A-42" 873 0 basechar 0
AnchorPoint: "A-39" 873 0 basechar 0
AnchorPoint: "A-36" 873 0 basechar 0
AnchorPoint: "A-21" -147 0 basechar 0
AnchorPoint: "A-16" 873 0 basechar 0
AnchorPoint: "A-15" 873 0 basechar 0
AnchorPoint: "A-14" 873 0 basechar 0
AnchorPoint: "A-13" 873 0 basechar 0
AnchorPoint: "A-12" 873 0 basechar 0
AnchorPoint: "A-11" 873 0 basechar 0
AnchorPoint: "A-10" 873 0 basechar 0
AnchorPoint: "A-9" 873 0 basechar 0
AnchorPoint: "A-8" 873 0 basechar 0
AnchorPoint: "A-41" 823 0 basechar 0
AnchorPoint: "A-40" 873 0 basechar 0
AnchorPoint: "A-32" 873 0 basechar 0
AnchorPoint: "A-31" 873 0 basechar 0
AnchorPoint: "A-30" 873 0 basechar 0
AnchorPoint: "A-29" 873 0 basechar 0
AnchorPoint: "A-28" 768 0 basechar 0
AnchorPoint: "A-27" 873 0 basechar 0
AnchorPoint: "A-26" 1243 0 basechar 0
AnchorPoint: "A-25" 343 0 basechar 0
AnchorPoint: "A-24" 873 0 basechar 0
AnchorPoint: "A-23" 873 0 basechar 0
AnchorPoint: "A-20" 263 0 basechar 0
AnchorPoint: "A-7" 873 0 basechar 0
AnchorPoint: "A-6" 873 0 basechar 0
AnchorPoint: "A-5" 873 0 basechar 0
AnchorPoint: "A-4" 873 0 basechar 0
AnchorPoint: "A-2" 873 0 basechar 0
AnchorPoint: "A-1" 873 0 basechar 0
AnchorPoint: "A-0" 873 0 basechar 0
LayerCount: 2
Fore
SplineSet
238 1070 m 1
 320 937 413 731 435 680 c 0
 486 557 551 343 640 205 c 0
 664 167 701 146 742 146 c 0
 766 146 793 154 819 171 c 0
 904 226 949 260 995 320 c 0
 1034 369 1041 446 1041 497 c 0
 1041 584 1015 695 983 750 c 0
 942 822 873 856 800 856 c 0
 764 856 729 847 693 832 c 8
 631 806 600 778 551 735 c 1
 551 800 551 865 568 921 c 1
 638 986 722 1038 836 1038 c 16
 1027 1038 1138 887 1165 728 c 0
 1172 684 1176 641 1176 598 c 0
 1176 458 1138 333 1075 217 c 0
 1022 121 935 38 826 -13 c 0
 785 -32 744 -44 706 -44 c 0
 658 -44 616 -26 578 13 c 0
 499 95 432 296 319 526 c 8
 252 662 179 769 112 856 c 1
 129 924 187 1017 238 1070 c 1
EndSplineSet
LCarets2: 1 0 
MultipleSubs2: "Add hairspace before low marked Qof" tet hairspace
EndChar

StartChar: yod
Encoding: 1497 1497 71
Width: 662
GlyphClass: 2
Flags: W
VStem: 429 135<522.696 650.369>
AnchorPoint: "A-69" 556 0 basechar 0
AnchorPoint: "A-68" 546 0 basechar 0
AnchorPoint: "A-67" 556 0 basechar 0
AnchorPoint: "A-66" 556 0 basechar 0
AnchorPoint: "A-65" 556 0 basechar 0
AnchorPoint: "A-64" 556 0 basechar 0
AnchorPoint: "A-63" 556 0 basechar 0
AnchorPoint: "A-62" 556 0 basechar 0
AnchorPoint: "A-61" 556 0 basechar 0
AnchorPoint: "A-59" 346 0 basechar 0
AnchorPoint: "A-55" 746 0 basechar 0
AnchorPoint: "A-42" 586 0 basechar 0
AnchorPoint: "A-39" 601 0 basechar 0
AnchorPoint: "A-36" 626 0 basechar 0
AnchorPoint: "A-22" 56 0 basechar 0
AnchorPoint: "A-21" -84 0 basechar 0
AnchorPoint: "A-16" 576 0 basechar 0
AnchorPoint: "A-15" 576 0 basechar 0
AnchorPoint: "A-14" 576 0 basechar 0
AnchorPoint: "A-13" 576 0 basechar 0
AnchorPoint: "A-12" 576 0 basechar 0
AnchorPoint: "A-11" 576 0 basechar 0
AnchorPoint: "A-10" 576 0 basechar 0
AnchorPoint: "A-9" 596 0 basechar 0
AnchorPoint: "A-8" 576 0 basechar 0
AnchorPoint: "A-41" 266 0 basechar 0
AnchorPoint: "A-40" 586 0 basechar 0
AnchorPoint: "A-32" 626 0 basechar 0
AnchorPoint: "A-31" 626 0 basechar 0
AnchorPoint: "A-30" 786 0 basechar 0
AnchorPoint: "A-29" 846 0 basechar 0
AnchorPoint: "A-28" 831 0 basechar 0
AnchorPoint: "A-27" 481 0 basechar 0
AnchorPoint: "A-26" 746 0 basechar 0
AnchorPoint: "A-25" 346 0 basechar 0
AnchorPoint: "A-24" 626 0 basechar 0
AnchorPoint: "A-23" 601 0 basechar 0
AnchorPoint: "A-20" 276 0 basechar 0
AnchorPoint: "A-7" 576 0 basechar 0
AnchorPoint: "A-6" 576 0 basechar 0
AnchorPoint: "A-5" 576 0 basechar 0
AnchorPoint: "A-4" 576 0 basechar 0
AnchorPoint: "A-2" 601 0 basechar 0
AnchorPoint: "A-1" 601 0 basechar 0
AnchorPoint: "A-0" 601 0 basechar 0
LayerCount: 2
Fore
SplineSet
163 1082 m 1
 381 976 564 858 564 575 c 1
 542 469 492 390 429 330 c 1
 429 349 429 368 429 388 c 0
 429 475 424 575 376 674 c 0
 316 797 191 833 39 901 c 1
 70 973 96 1029 163 1082 c 1
EndSplineSet
LCarets2: 1 0 
MultipleSubs2: "Add hairspace before narrowletter subtable subtable" hairspace yod
MultipleSubs2: "Add hairspace before low marked Qof" yod hairspace
EndChar

StartChar: finalkaf
Encoding: 1498 1498 72
Width: 879
GlyphClass: 2
Flags: W
HStem: 720 135<658.937 720.143> 903 167<30.0597 234.469>
VStem: 410 108<429.522 682.804> 641 82<-222.287 -197.045>
AnchorPoint: "A-69" 200 0 basechar 0
AnchorPoint: "A-68" 130 0 basechar 0
AnchorPoint: "A-67" 10 0 basechar 0
AnchorPoint: "A-66" 200 0 basechar 0
AnchorPoint: "A-65" 130 0 basechar 0
AnchorPoint: "A-64" 10 0 basechar 0
AnchorPoint: "A-63" 200 0 basechar 0
AnchorPoint: "A-62" 130 0 basechar 0
AnchorPoint: "A-61" 10 0 basechar 0
AnchorPoint: "A-59" -30 0 basechar 0
AnchorPoint: "A-55" 770 0 basechar 0
AnchorPoint: "A-42" 110 0 basechar 0
AnchorPoint: "A-39" 460 0 basechar 0
AnchorPoint: "A-36" 466 0 basechar 0
AnchorPoint: "A-21" -460 0 basechar 0
AnchorPoint: "A-16" 20 0 basechar 0
AnchorPoint: "A-15" 140 0 basechar 0
AnchorPoint: "A-14" 280 0 basechar 0
AnchorPoint: "A-13" -150 0 basechar 0
AnchorPoint: "A-12" -30 0 basechar 0
AnchorPoint: "A-11" 110 0 basechar 0
AnchorPoint: "A-10" 20 0 basechar 0
AnchorPoint: "A-9" 140 0 basechar 0
AnchorPoint: "A-8" 280 0 basechar 0
AnchorPoint: "A-41" 450 0 basechar 0
AnchorPoint: "A-40" 330 0 basechar 0
AnchorPoint: "A-32" 460 0 basechar 0
AnchorPoint: "A-31" 460 0 basechar 0
AnchorPoint: "A-30" 460 0 basechar 0
AnchorPoint: "A-29" 460 0 basechar 0
AnchorPoint: "A-28" 455 0 basechar 0
AnchorPoint: "A-27" 460 0 basechar 0
AnchorPoint: "A-26" 770 0 basechar 0
AnchorPoint: "A-25" -30 0 basechar 0
AnchorPoint: "A-24" 466 0 basechar 0
AnchorPoint: "A-23" 460 0 basechar 0
AnchorPoint: "A-20" -110 0 basechar 0
AnchorPoint: "A-7" 120 0 basechar 0
AnchorPoint: "A-6" 200 0 basechar 0
AnchorPoint: "A-5" 310 0 basechar 0
AnchorPoint: "A-4" 330 0 basechar 0
AnchorPoint: "A-2" 460 0 basechar 0
AnchorPoint: "A-1" 460 0 basechar 0
AnchorPoint: "A-0" 460 0 basechar 0
LayerCount: 2
Fore
SplineSet
45 1070 m 1
 304 1034 537 964 750 855 c 1
 750 806 733 758 714 720 c 1
 675 720 640 714 596 700 c 16
 538 681 518 643 518 599 c 0
 518 585 520 570 525 555 c 0
 598 308 646 146 723 -107 c 1
 723 -199 694 -307 641 -360 c 1
 583 -104 511 110 427 376 c 0
 415 412 410 454 410 497 c 0
 410 601 439 714 482 789 c 1
 299 850 142 884 -42 903 c 1
 -28 970 -3 1031 45 1070 c 1
EndSplineSet
LCarets2: 1 0 
MultipleSubs2: "Add hairspace before low marked Qof" finalkaf hairspace
EndChar

StartChar: kaf
Encoding: 1499 1499 73
Width: 894
GlyphClass: 2
Flags: W
HStem: -41 173<167.325 330.297> 905 165<158.422 392.383>
VStem: 699 139<311.043 660.825>
AnchorPoint: "A-69" 525 0 basechar 0
AnchorPoint: "A-68" 525 0 basechar 0
AnchorPoint: "A-67" 525 0 basechar 0
AnchorPoint: "A-66" 525 0 basechar 0
AnchorPoint: "A-65" 525 0 basechar 0
AnchorPoint: "A-64" 525 0 basechar 0
AnchorPoint: "A-63" 525 0 basechar 0
AnchorPoint: "A-62" 525 0 basechar 0
AnchorPoint: "A-61" 525 0 basechar 0
AnchorPoint: "A-59" 65 0 basechar 0
AnchorPoint: "A-55" 825 0 basechar 0
AnchorPoint: "A-42" 525 0 basechar 0
AnchorPoint: "A-39" 555 0 basechar 0
AnchorPoint: "A-36" 555 0 basechar 0
AnchorPoint: "A-21" -365 0 basechar 0
AnchorPoint: "A-16" 525 0 basechar 0
AnchorPoint: "A-15" 525 0 basechar 0
AnchorPoint: "A-14" 525 0 basechar 0
AnchorPoint: "A-13" 525 0 basechar 0
AnchorPoint: "A-12" 525 0 basechar 0
AnchorPoint: "A-11" 525 0 basechar 0
AnchorPoint: "A-10" 525 0 basechar 0
AnchorPoint: "A-9" 525 0 basechar 0
AnchorPoint: "A-8" 525 0 basechar 0
AnchorPoint: "A-41" 445 0 basechar 0
AnchorPoint: "A-40" 525 0 basechar 0
AnchorPoint: "A-32" 555 0 basechar 0
AnchorPoint: "A-31" 555 0 basechar 0
AnchorPoint: "A-30" 575 0 basechar 0
AnchorPoint: "A-29" 595 0 basechar 0
AnchorPoint: "A-28" 550 0 basechar 0
AnchorPoint: "A-27" 515 0 basechar 0
AnchorPoint: "A-26" 825 0 basechar 0
AnchorPoint: "A-25" 125 0 basechar 0
AnchorPoint: "A-24" 555 0 basechar 0
AnchorPoint: "A-23" 555 0 basechar 0
AnchorPoint: "A-20" 25 0 basechar 0
AnchorPoint: "A-7" 525 0 basechar 0
AnchorPoint: "A-6" 525 0 basechar 0
AnchorPoint: "A-5" 525 0 basechar 0
AnchorPoint: "A-4" 525 0 basechar 0
AnchorPoint: "A-2" 555 0 basechar 0
AnchorPoint: "A-1" 555 0 basechar 0
AnchorPoint: "A-0" 555 0 basechar 0
LayerCount: 2
Fore
SplineSet
178 1070 m 1
 355 1043 540 1014 654 929 c 0
 797 821 838 675 838 487 c 16
 838 397 789 284 738 202 c 0
 682 110 435 -5 99 -41 c 1
 111 19 139 84 178 132 c 1
 354 188 555 222 685 311 c 1
 694 354 699 403 699 452 c 0
 699 512 691 572 676 611 c 0
 628 739 558 835 362 867 c 8
 236 887 154 905 36 905 c 1
 68 977 117 1031 178 1070 c 1
EndSplineSet
LCarets2: 1 0 
MultipleSubs2: "Add hairspace before low marked Qof" kaf hairspace
Substitution2: "'jalt' Wide Letter Alternatives in Hebrew subtable" kaf.wide
EndChar

StartChar: lamed
Encoding: 1500 1500 74
Width: 817
GlyphClass: 2
Flags: W
VStem: 320 185<66.2772 293.065> 549 155<540.374 770.418>
AnchorPoint: "A-69" 287 0 basechar 0
AnchorPoint: "A-68" 257 0 basechar 0
AnchorPoint: "A-67" 287 0 basechar 0
AnchorPoint: "A-66" 287 0 basechar 0
AnchorPoint: "A-65" 257 0 basechar 0
AnchorPoint: "A-64" 287 0 basechar 0
AnchorPoint: "A-63" 287 0 basechar 0
AnchorPoint: "A-62" 257 0 basechar 0
AnchorPoint: "A-61" 287 0 basechar 0
AnchorPoint: "A-59" -23 0 basechar 0
AnchorPoint: "A-55" 757 0 basechar 0
AnchorPoint: "A-42" 387 0 basechar 0
AnchorPoint: "A-39" 527 0 basechar 0
AnchorPoint: "A-36" 597 0 basechar 0
AnchorPoint: "A-21" -453 0 basechar 0
AnchorPoint: "A-16" 387 0 basechar 0
AnchorPoint: "A-15" 387 0 basechar 0
AnchorPoint: "A-14" 387 0 basechar 0
AnchorPoint: "A-13" 387 0 basechar 0
AnchorPoint: "A-12" 387 0 basechar 0
AnchorPoint: "A-11" 387 0 basechar 0
AnchorPoint: "A-10" 397 0 basechar 0
AnchorPoint: "A-9" 407 0 basechar 0
AnchorPoint: "A-8" 397 0 basechar 0
AnchorPoint: "A-41" 227 0 basechar 0
AnchorPoint: "A-40" 387 0 basechar 0
AnchorPoint: "A-32" 807 0 basechar 0
AnchorPoint: "A-31" 627 0 basechar 0
AnchorPoint: "A-30" 237 0 basechar 0
AnchorPoint: "A-29" 207 0 basechar 0
AnchorPoint: "A-28" 162 0 basechar 0
AnchorPoint: "A-27" 457 0 basechar 0
AnchorPoint: "A-26" 757 0 basechar 0
AnchorPoint: "A-25" -243 0 basechar 0
AnchorPoint: "A-24" 597 0 basechar 0
AnchorPoint: "A-23" 527 0 basechar 0
AnchorPoint: "A-20" -279 0 basechar 0
AnchorPoint: "A-7" 407 0 basechar 0
AnchorPoint: "A-6" 387 0 basechar 0
AnchorPoint: "A-5" 407 0 basechar 0
AnchorPoint: "A-4" 407 0 basechar 0
AnchorPoint: "A-2" 547 0 basechar 0
AnchorPoint: "A-1" 584 0 basechar 0
AnchorPoint: "A-0" 527 0 basechar 0
LayerCount: 2
Fore
SplineSet
45 1370 m 1
 57 1283 57 1220 71 1145 c 0
 81 1099 88 1070 146 1046 c 0
 225 1012 385 996 535 952 c 16
 677 909 704 774 704 655 c 0
 704 573 625 499 564 420 c 0
 512 354 505 324 505 246 c 0
 505 220 506 188 506 147 c 1
 467 57 414 5 349 -43 c 1
 337 -18 320 69 320 125 c 0
 320 135 319 144 320 152 c 0
 342 275 387 351 467 459 c 16
 509 514 549 562 549 639 c 0
 549 669 542 703 528 744 c 0
 521 761 516 768 496 777 c 0
 414 806 221 847 64 886 c 8
 13 898 -25 924 -40 973 c 16
 -71 1072 -81 1135 -96 1237 c 1
 -67 1292 -16 1341 45 1370 c 1
EndSplineSet
LCarets2: 1 0 
MultipleSubs2: "Add hairspace before low marked Qof" lamed hairspace
MultipleSubs2: "Add thispace after Lamed subtable" lamed thinspace
Substitution2: "'jalt' Wide Letter Alternatives in Hebrew subtable" lamed.wide
EndChar

StartChar: finalmem
Encoding: 1501 1501 75
Width: 1144
GlyphClass: 2
Flags: W
HStem: -63 182<531.503 711.804>
VStem: 937 138<485.501 683.948> 992 141<255.811 377.376>
AnchorPoint: "A-69" 770 0 basechar 0
AnchorPoint: "A-68" 770 0 basechar 0
AnchorPoint: "A-67" 770 0 basechar 0
AnchorPoint: "A-66" 770 0 basechar 0
AnchorPoint: "A-65" 770 0 basechar 0
AnchorPoint: "A-64" 770 0 basechar 0
AnchorPoint: "A-63" 770 0 basechar 0
AnchorPoint: "A-62" 770 0 basechar 0
AnchorPoint: "A-61" 770 0 basechar 0
AnchorPoint: "A-59" 205 0 basechar 0
AnchorPoint: "A-55" 1105 0 basechar 0
AnchorPoint: "A-42" 770 0 basechar 0
AnchorPoint: "A-39" 775 0 basechar 0
AnchorPoint: "A-36" 775 0 basechar 0
AnchorPoint: "A-21" -225 0 basechar 0
AnchorPoint: "A-16" 770 0 basechar 0
AnchorPoint: "A-15" 770 0 basechar 0
AnchorPoint: "A-14" 770 0 basechar 0
AnchorPoint: "A-13" 770 0 basechar 0
AnchorPoint: "A-12" 770 0 basechar 0
AnchorPoint: "A-11" 770 0 basechar 0
AnchorPoint: "A-10" 770 0 basechar 0
AnchorPoint: "A-9" 770 0 basechar 0
AnchorPoint: "A-8" 770 0 basechar 0
AnchorPoint: "A-41" 665 0 basechar 0
AnchorPoint: "A-40" 770 0 basechar 0
AnchorPoint: "A-32" 775 0 basechar 0
AnchorPoint: "A-31" 205 0 basechar 0
AnchorPoint: "A-30" 775 0 basechar 0
AnchorPoint: "A-29" 775 0 basechar 0
AnchorPoint: "A-28" 690 0 basechar 0
AnchorPoint: "A-27" 775 0 basechar 0
AnchorPoint: "A-26" 1105 0 basechar 0
AnchorPoint: "A-25" 245 0 basechar 0
AnchorPoint: "A-24" 775 0 basechar 0
AnchorPoint: "A-23" 775 0 basechar 0
AnchorPoint: "A-20" 165 0 basechar 0
AnchorPoint: "A-7" 770 0 basechar 0
AnchorPoint: "A-6" 770 0 basechar 0
AnchorPoint: "A-5" 770 0 basechar 0
AnchorPoint: "A-4" 770 0 basechar 0
AnchorPoint: "A-3" 785 0 basechar 0
AnchorPoint: "A-2" 775 0 basechar 0
AnchorPoint: "A-1" 775 0 basechar 0
AnchorPoint: "A-0" 775 0 basechar 0
LayerCount: 2
Fore
SplineSet
352 837 m 1xc0
 408 588 471 365 529 170 c 0
 541 134 575 119 613 119 c 0
 622 119 628 118 635 120 c 0
 736 134 992 247 992 312 c 0xa0
 992 343 932 373 922 431 c 0
 922 433 922 437 922 440 c 0
 922 462 932 498 937 532 c 0
 937 535 937 541 937 544 c 0
 937 553 937 561 937 568 c 0
 937 641 905 697 823 731 c 0
 686 786 541 805 352 837 c 1xc0
181 1070 m 1
 389 1036 625 1007 891 913 c 16
 1012 870 1075 791 1075 673 c 0xc0
 1075 612 1061 557 1049 482 c 1
 1080 443 1119 389 1126 365 c 0
 1131 350 1133 331 1133 311 c 0
 1133 277 1126 239 1102 208 c 0
 1082 182 1032 155 976 123 c 0
 887 70 797 15 672 -36 c 16
 636 -51 600 -63 561 -63 c 0
 551 -63 539 -65 529 -63 c 0
 473 -54 411 -5 391 63 c 0
 316 328 261 578 208 877 c 1
 147 889 123 892 48 906 c 1
 74 962 128 1032 181 1070 c 1
EndSplineSet
LCarets2: 1 0 
MultipleSubs2: "Add hairspace before low marked Qof" finalmem hairspace
Substitution2: "'jalt' Wide Letter Alternatives in Hebrew subtable" finalmem.wide
EndChar

StartChar: mem
Encoding: 1502 1502 76
Width: 1191
GlyphClass: 2
Flags: W
HStem: -62 193<376.906 494.293> 860 186<628.875 845.638>
VStem: 345 117<395.795 649.685> 977 130<363.631 634.096>
AnchorPoint: "A-69" 779 0 basechar 0
AnchorPoint: "A-68" 779 0 basechar 0
AnchorPoint: "A-67" 779 0 basechar 0
AnchorPoint: "A-66" 779 0 basechar 0
AnchorPoint: "A-65" 779 0 basechar 0
AnchorPoint: "A-64" 779 0 basechar 0
AnchorPoint: "A-63" 779 0 basechar 0
AnchorPoint: "A-62" 779 0 basechar 0
AnchorPoint: "A-61" 779 0 basechar 0
AnchorPoint: "A-59" 209 0 basechar 0
AnchorPoint: "A-55" 1169 0 basechar 0
AnchorPoint: "A-42" 779 0 basechar 0
AnchorPoint: "A-39" 809 0 basechar 0
AnchorPoint: "A-36" 809 0 basechar 0
AnchorPoint: "A-21" -221 0 basechar 0
AnchorPoint: "A-16" 779 0 basechar 0
AnchorPoint: "A-15" 779 0 basechar 0
AnchorPoint: "A-14" 779 0 basechar 0
AnchorPoint: "A-13" 779 0 basechar 0
AnchorPoint: "A-12" 779 0 basechar 0
AnchorPoint: "A-11" 779 0 basechar 0
AnchorPoint: "A-10" 779 0 basechar 0
AnchorPoint: "A-9" 779 0 basechar 0
AnchorPoint: "A-8" 779 0 basechar 0
AnchorPoint: "A-41" 759 0 basechar 0
AnchorPoint: "A-40" 779 0 basechar 0
AnchorPoint: "A-32" 809 10 basechar 0
AnchorPoint: "A-31" 809 0 basechar 0
AnchorPoint: "A-30" 809 0 basechar 0
AnchorPoint: "A-29" 809 0 basechar 0
AnchorPoint: "A-28" 694 0 basechar 0
AnchorPoint: "A-27" 809 0 basechar 0
AnchorPoint: "A-26" 1169 0 basechar 0
AnchorPoint: "A-25" 329 0 basechar 0
AnchorPoint: "A-24" 809 0 basechar 0
AnchorPoint: "A-23" 809 0 basechar 0
AnchorPoint: "A-20" 249 0 basechar 0
AnchorPoint: "A-7" 779 0 basechar 0
AnchorPoint: "A-6" 779 0 basechar 0
AnchorPoint: "A-5" 779 0 basechar 0
AnchorPoint: "A-4" 779 0 basechar 0
AnchorPoint: "A-2" 809 0 basechar 0
AnchorPoint: "A-1" 809 0 basechar 0
AnchorPoint: "A-0" 809 0 basechar 0
LayerCount: 2
Fore
SplineSet
327 590 m 0
 300 677 182 832 64 899 c 1
 98 972 130 1017 179 1066 c 1
 300 977 370 876 414 775 c 1
 428 840 481 904 554 959 c 24
 631 1014 728 1046 781 1046 c 0
 873 1046 939 993 977 933 c 0
 1015 872 1044 815 1064 752 c 0
 1083 691 1094 623 1104 544 c 0
 1106 530 1107 520 1107 508 c 0
 1107 496 1105 485 1100 471 c 0
 1069 375 1046 310 993 218 c 8
 967 170 937 146 888 124 c 0
 687 30 509 -24 289 -62 c 1
 311 11 343 73 387 131 c 1
 495 162 600 196 697 232 c 0
 822 280 941 346 977 401 c 1
 977 509 946 614 888 744 c 0
 852 823 816 860 755 860 c 0
 651 860 484 714 452 687 c 1
 459 656 462 626 462 590 c 0
 462 549 456 505 441 457 c 8
 417 382 390 333 327 292 c 1
 339 333 345 387 345 439 c 0
 345 497 338 553 327 590 c 0
EndSplineSet
LCarets2: 1 0 
MultipleSubs2: "Add hairspace before low marked Qof" mem hairspace
EndChar

StartChar: finalnun
Encoding: 1503 1503 77
Width: 612
GlyphClass: 2
Flags: HW
VStem: 481 111<-153.029 150.142>
AnchorPoint: "A-69" 42 0 basechar 0
AnchorPoint: "A-68" -48 0 basechar 0
AnchorPoint: "A-67" -178 0 basechar 0
AnchorPoint: "A-66" 42 0 basechar 0
AnchorPoint: "A-65" -48 0 basechar 0
AnchorPoint: "A-64" -178 0 basechar 0
AnchorPoint: "A-63" 42 0 basechar 0
AnchorPoint: "A-62" -48 0 basechar 0
AnchorPoint: "A-61" -178 0 basechar 0
AnchorPoint: "A-59" 272 0 basechar 0
AnchorPoint: "A-55" 502 0 basechar 0
AnchorPoint: "A-42" -8 0 basechar 0
AnchorPoint: "A-39" 392 0 basechar 0
AnchorPoint: "A-36" 392 0 basechar 0
AnchorPoint: "A-21" -158 0 basechar 0
AnchorPoint: "A-16" -158 0 basechar 0
AnchorPoint: "A-15" -48 0 basechar 0
AnchorPoint: "A-14" 97 0 basechar 0
AnchorPoint: "A-13" -328 0 basechar 0
AnchorPoint: "A-12" -188 0 basechar 0
AnchorPoint: "A-11" -73 0 basechar 0
AnchorPoint: "A-10" -158 0 basechar 0
AnchorPoint: "A-9" -48 0 basechar 0
AnchorPoint: "A-8" 97 0 basechar 0
AnchorPoint: "A-41" 302 0 basechar 0
AnchorPoint: "A-40" 202 0 basechar 0
AnchorPoint: "A-32" 392 0 basechar 0
AnchorPoint: "A-31" 392 0 basechar 0
AnchorPoint: "A-30" 572 0 basechar 0
AnchorPoint: "A-29" 632 0 basechar 0
AnchorPoint: "A-28" 497 0 basechar 0
AnchorPoint: "A-27" 192 0 basechar 0
AnchorPoint: "A-26" 502 0 basechar 0
AnchorPoint: "A-25" 112 0 basechar 0
AnchorPoint: "A-24" 392 0 basechar 0
AnchorPoint: "A-23" 392 0 basechar 0
AnchorPoint: "A-20" 202 0 basechar 0
AnchorPoint: "A-7" -28 0 basechar 0
AnchorPoint: "A-6" 12 0 basechar 0
AnchorPoint: "A-5" 142 0 basechar 0
AnchorPoint: "A-4" 272 0 basechar 0
AnchorPoint: "A-3" 272 0 basechar 0
AnchorPoint: "A-2" 552 0 basechar 0
AnchorPoint: "A-1" 552 0 basechar 0
AnchorPoint: "A-0" 552 0 basechar 0
LayerCount: 2
Fore
SplineSet
173 1065 m 1
 376 937 490 704 534 477 c 8
 577 252 592 46 592 -109 c 1
 573 -191 530 -253 481 -297 c 1
 481 -128 458 119 402 372 c 0
 337 655 216 769 52 902 c 1
 84 972 127 1021 173 1065 c 1
EndSplineSet
LCarets2: 1 0 
MultipleSubs2: "Add hairspace before narrowletter subtable subtable" hairspace finalnun
MultipleSubs2: "Add hairspace before low marked Qof" finalnun hairspace
EndChar

StartChar: nun
Encoding: 1504 1504 78
Width: 653
GlyphClass: 2
Flags: W
VStem: 476 118<301.43 627.981>
AnchorPoint: "A-69" 400 0 basechar 0
AnchorPoint: "A-68" 400 0 basechar 0
AnchorPoint: "A-67" 400 0 basechar 0
AnchorPoint: "A-66" 400 0 basechar 0
AnchorPoint: "A-65" 400 0 basechar 0
AnchorPoint: "A-64" 400 0 basechar 0
AnchorPoint: "A-63" 400 0 basechar 0
AnchorPoint: "A-62" 400 0 basechar 0
AnchorPoint: "A-61" 400 0 basechar 0
AnchorPoint: "A-59" 150 0 basechar 0
AnchorPoint: "A-55" 700 0 basechar 0
AnchorPoint: "A-42" 470 0 basechar 0
AnchorPoint: "A-39" 530 0 basechar 0
AnchorPoint: "A-36" 550 0 basechar 0
AnchorPoint: "A-22" -30 0 basechar 0
AnchorPoint: "A-21" -255 0 basechar 0
AnchorPoint: "A-16" 470 0 basechar 0
AnchorPoint: "A-15" 470 0 basechar 0
AnchorPoint: "A-14" 470 0 basechar 0
AnchorPoint: "A-13" 470 0 basechar 0
AnchorPoint: "A-12" 470 0 basechar 0
AnchorPoint: "A-11" 470 0 basechar 0
AnchorPoint: "A-10" 470 0 basechar 0
AnchorPoint: "A-9" 470 0 basechar 0
AnchorPoint: "A-8" 470 0 basechar 0
AnchorPoint: "A-41" 230 0 basechar 0
AnchorPoint: "A-40" 470 0 basechar 0
AnchorPoint: "A-32" 550 0 basechar 0
AnchorPoint: "A-31" 550 0 basechar 0
AnchorPoint: "A-30" 700 0 basechar 0
AnchorPoint: "A-29" 720 0 basechar 0
AnchorPoint: "A-28" 635 0 basechar 0
AnchorPoint: "A-27" 410 0 basechar 0
AnchorPoint: "A-26" 700 0 basechar 0
AnchorPoint: "A-25" 270 0 basechar 0
AnchorPoint: "A-24" 550 0 basechar 0
AnchorPoint: "A-23" 530 0 basechar 0
AnchorPoint: "A-20" 210 0 basechar 0
AnchorPoint: "A-7" 470 0 basechar 0
AnchorPoint: "A-6" 470 0 basechar 0
AnchorPoint: "A-5" 470 0 basechar 0
AnchorPoint: "A-4" 470 0 basechar 0
AnchorPoint: "A-2" 530 0 basechar 0
AnchorPoint: "A-1" 530 0 basechar 0
AnchorPoint: "A-0" 530 0 basechar 0
LayerCount: 2
Fore
SplineSet
155 1070 m 1
 338 1026 549 858 580 628 c 0
 589 565 594 518 594 474 c 0
 594 401 580 330 551 199 c 1
 471 100 307 10 203 -50 c 1
 200 -26 198 -2 198 22 c 0
 198 70 205 119 222 165 c 1
 302 220 384 267 476 327 c 1
 476 336 476 345 476 355 c 0
 476 488 473 601 376 717 c 0
 294 814 187 858 68 897 c 1
 88 974 114 1024 155 1070 c 1
EndSplineSet
LCarets2: 1 0 
MultipleSubs2: "Add hairspace before narrowletter subtable subtable" hairspace nun
MultipleSubs2: "Add hairspace before low marked Qof" nun hairspace
EndChar

StartChar: samekh
Encoding: 1505 1505 79
Width: 1131
GlyphClass: 2
Flags: W
HStem: -43 198<604.403 759.307>
VStem: 996 143<321.328 593.607>
AnchorPoint: "A-69" 842 0 basechar 0
AnchorPoint: "A-68" 842 0 basechar 0
AnchorPoint: "A-67" 842 0 basechar 0
AnchorPoint: "A-66" 842 0 basechar 0
AnchorPoint: "A-65" 842 0 basechar 0
AnchorPoint: "A-64" 842 0 basechar 0
AnchorPoint: "A-63" 842 0 basechar 0
AnchorPoint: "A-62" 842 0 basechar 0
AnchorPoint: "A-61" 842 0 basechar 0
AnchorPoint: "A-59" 262 0 basechar 0
AnchorPoint: "A-55" 1182 0 basechar 0
AnchorPoint: "A-42" 842 0 basechar 0
AnchorPoint: "A-39" 832 0 basechar 0
AnchorPoint: "A-36" 842 0 basechar 0
AnchorPoint: "A-21" -158 0 basechar 0
AnchorPoint: "A-16" 842 0 basechar 0
AnchorPoint: "A-15" 842 0 basechar 0
AnchorPoint: "A-14" 842 0 basechar 0
AnchorPoint: "A-13" 842 0 basechar 0
AnchorPoint: "A-12" 842 0 basechar 0
AnchorPoint: "A-11" 842 0 basechar 0
AnchorPoint: "A-10" 842 0 basechar 0
AnchorPoint: "A-9" 842 0 basechar 0
AnchorPoint: "A-8" 842 0 basechar 0
AnchorPoint: "A-41" 762 0 basechar 0
AnchorPoint: "A-40" 842 0 basechar 0
AnchorPoint: "A-32" 832 0 basechar 0
AnchorPoint: "A-31" 832 0 basechar 0
AnchorPoint: "A-30" 832 0 basechar 0
AnchorPoint: "A-29" 832 0 basechar 0
AnchorPoint: "A-28" 747 0 basechar 0
AnchorPoint: "A-27" 832 0 basechar 0
AnchorPoint: "A-26" 1182 0 basechar 0
AnchorPoint: "A-25" 322 0 basechar 0
AnchorPoint: "A-24" 842 0 basechar 0
AnchorPoint: "A-23" 832 0 basechar 0
AnchorPoint: "A-20" 262 0 basechar 0
AnchorPoint: "A-7" 842 0 basechar 0
AnchorPoint: "A-6" 842 0 basechar 0
AnchorPoint: "A-5" 842 0 basechar 0
AnchorPoint: "A-4" 842 0 basechar 0
AnchorPoint: "A-2" 832 0 basechar 0
AnchorPoint: "A-1" 832 0 basechar 0
AnchorPoint: "A-0" 832 0 basechar 0
LayerCount: 2
Fore
SplineSet
398 821 m 1
 458 608 531 385 603 201 c 0
 615 170 641 155 673 155 c 0
 692 155 714 160 736 172 c 0
 815 213 903 269 956 324 c 0
 985 353 996 386 996 422 c 0
 996 449 989 477 984 503 c 0
 936 694 835 737 676 769 c 0
 577 789 490 806 398 821 c 1
166 1040 m 1
 340 1013 789 909 932 849 c 0
 1051 801 1139 680 1139 557 c 0
 1139 432 1124 325 1025 209 c 0
 957 127 860 54 763 3 c 0
 703 -28 653 -43 612 -43 c 0
 539 -43 492 1 470 73 c 0
 397 298 314 583 251 839 c 1
 195 849 113 863 40 880 c 1
 66 947 118 1004 166 1040 c 1
EndSplineSet
LCarets2: 1 0 
MultipleSubs2: "Add hairspace before low marked Qof" samekh hairspace
EndChar

StartChar: ayin
Encoding: 1506 1506 80
Width: 1097
GlyphClass: 2
Flags: W
VStem: 305 201<-71.3642 20.8883> 815 135<438.414 749.203>
AnchorPoint: "A-69" 737 0 basechar 0
AnchorPoint: "A-68" 737 0 basechar 0
AnchorPoint: "A-67" 737 0 basechar 0
AnchorPoint: "A-66" 737 0 basechar 0
AnchorPoint: "A-65" 737 0 basechar 0
AnchorPoint: "A-64" 737 0 basechar 0
AnchorPoint: "A-63" 737 0 basechar 0
AnchorPoint: "A-62" 737 0 basechar 0
AnchorPoint: "A-61" 737 0 basechar 0
AnchorPoint: "A-59" 227 0 basechar 0
AnchorPoint: "A-55" 1157 0 basechar 0
AnchorPoint: "A-42" 737 0 basechar 0
AnchorPoint: "A-39" 767 0 basechar 0
AnchorPoint: "A-36" 767 0 basechar 0
AnchorPoint: "A-21" -203 0 basechar 0
AnchorPoint: "A-16" 777 0 basechar 0
AnchorPoint: "A-15" 737 0 basechar 0
AnchorPoint: "A-14" 737 0 basechar 0
AnchorPoint: "A-13" 777 0 basechar 0
AnchorPoint: "A-12" 737 0 basechar 0
AnchorPoint: "A-11" 737 0 basechar 0
AnchorPoint: "A-10" 777 0 basechar 0
AnchorPoint: "A-9" 737 0 basechar 0
AnchorPoint: "A-8" 737 0 basechar 0
AnchorPoint: "A-41" 577 0 basechar 0
AnchorPoint: "A-40" 737 0 basechar 0
AnchorPoint: "A-32" 767 0 basechar 0
AnchorPoint: "A-31" 767 0 basechar 0
AnchorPoint: "A-30" 767 0 basechar 0
AnchorPoint: "A-29" 767 0 basechar 0
AnchorPoint: "A-28" 712 0 basechar 0
AnchorPoint: "A-27" 767 0 basechar 0
AnchorPoint: "A-26" 1157 0 basechar 0
AnchorPoint: "A-25" 297 0 basechar 0
AnchorPoint: "A-24" 767 0 basechar 0
AnchorPoint: "A-23" 767 0 basechar 0
AnchorPoint: "A-20" 207 0 basechar 0
AnchorPoint: "A-7" 697 0 basechar 0
AnchorPoint: "A-6" 777 0 basechar 0
AnchorPoint: "A-5" 737 0 basechar 0
AnchorPoint: "A-4" 737 0 basechar 0
AnchorPoint: "A-3" 792 40 basechar 0
AnchorPoint: "A-2" 767 0 basechar 0
AnchorPoint: "A-1" 767 0 basechar 0
AnchorPoint: "A-0" 767 0 basechar 0
LayerCount: 2
Fore
SplineSet
163 1070 m 1
 433 846 590 509 622 280 c 1
 743 401 815 459 815 558 c 0
 815 710 759 788 675 878 c 1
 697 953 725 1015 771 1070 c 1
 889 956 950 808 950 625 c 0
 950 524 919 454 890 386 c 0
 825 232 704 156 573 40 c 8
 544 14 515 6 506 -30 c 16
 479 -138 404 -172 305 -201 c 1
 305 -169 298 -138 298 -100 c 0
 298 -71 301 -41 315 0 c 0
 341 77 439 123 511 198 c 1
 470 478 267 694 76 889 c 1
 91 962 112 1010 163 1070 c 1
EndSplineSet
LCarets2: 1 0 
Substitution2: "Automatic Alternate Ayin Subtable" ayin.alt
MultipleSubs2: "Add hairspace before low marked Qof" ayin hairspace
Substitution2: "'salt' Stylistic Alternatives in Hebrew subtable" ayin.alt
EndChar

StartChar: finalpe
Encoding: 1507 1507 81
Width: 1055
GlyphClass: 2
Flags: W
VStem: 188 148<658.16 858.568> 929 104<-179.407 109.63>
AnchorPoint: "A-69" 585 0 basechar 0
AnchorPoint: "A-68" 475 0 basechar 0
AnchorPoint: "A-67" 365 0 basechar 0
AnchorPoint: "A-66" 585 0 basechar 0
AnchorPoint: "A-65" 475 0 basechar 0
AnchorPoint: "A-64" 365 0 basechar 0
AnchorPoint: "A-63" 585 0 basechar 0
AnchorPoint: "A-62" 475 0 basechar 0
AnchorPoint: "A-61" 365 0 basechar 0
AnchorPoint: "A-59" 245 0 basechar 0
AnchorPoint: "A-55" 995 0 basechar 0
AnchorPoint: "A-42" 505 0 basechar 0
AnchorPoint: "A-39" 745 0 basechar 0
AnchorPoint: "A-36" 745 0 basechar 0
AnchorPoint: "A-21" -185 0 basechar 0
AnchorPoint: "A-16" 335 0 basechar 0
AnchorPoint: "A-15" 485 0 basechar 0
AnchorPoint: "A-14" 615 0 basechar 0
AnchorPoint: "A-13" 205 0 basechar 0
AnchorPoint: "A-12" 325 0 basechar 0
AnchorPoint: "A-11" 465 0 basechar 0
AnchorPoint: "A-10" 335 0 basechar 0
AnchorPoint: "A-9" 485 0 basechar 0
AnchorPoint: "A-8" 615 0 basechar 0
AnchorPoint: "A-41" 815 0 basechar 0
AnchorPoint: "A-40" 705 0 basechar 0
AnchorPoint: "A-32" 745 0 basechar 0
AnchorPoint: "A-31" 745 0 basechar 0
AnchorPoint: "A-30" 785 0 basechar 0
AnchorPoint: "A-29" 805 0 basechar 0
AnchorPoint: "A-28" 730 0 basechar 0
AnchorPoint: "A-27" 685 0 basechar 0
AnchorPoint: "A-26" 995 0 basechar 0
AnchorPoint: "A-25" 335 0 basechar 0
AnchorPoint: "A-24" 745 0 basechar 0
AnchorPoint: "A-23" 745 0 basechar 0
AnchorPoint: "A-20" 245 0 basechar 0
AnchorPoint: "A-7" 505 0 basechar 0
AnchorPoint: "A-6" 565 0 basechar 0
AnchorPoint: "A-5" 675 0 basechar 0
AnchorPoint: "A-4" 705 0 basechar 0
AnchorPoint: "A-2" 745 0 basechar 0
AnchorPoint: "A-1" 745 0 basechar 0
AnchorPoint: "A-0" 745 0 basechar 0
LayerCount: 2
Fore
SplineSet
395 1070 m 1
 554 1050 677 999 796 898 c 0
 875 830 923 729 949 611 c 0
 990 435 1033 137 1033 -102 c 1
 1033 -191 982 -259 929 -310 c 1
 929 -121 902 2 871 202 c 0
 844 388 819 533 739 666 c 0
 662 797 522 871 372 893 c 1
 348 844 336 801 336 765 c 0
 336 683 392 630 493 586 c 1
 493 523 468 467 434 423 c 1
 286 464 188 560 188 703 c 16
 188 824 298 990 395 1070 c 1
EndSplineSet
LCarets2: 1 0 
MultipleSubs2: "Add hairspace before low marked Qof" finalpe hairspace
EndChar

StartChar: pe
Encoding: 1508 1508 82
Width: 1056
GlyphClass: 2
Flags: W
HStem: -41 188<354.138 517.101>
VStem: 192 155<675.986 857.059> 861 135<354.118 651.453>
AnchorPoint: "A-69" 699 0 basechar 0
AnchorPoint: "A-68" 699 0 basechar 0
AnchorPoint: "A-67" 699 0 basechar 0
AnchorPoint: "A-66" 699 0 basechar 0
AnchorPoint: "A-65" 699 0 basechar 0
AnchorPoint: "A-64" 699 0 basechar 0
AnchorPoint: "A-63" 699 0 basechar 0
AnchorPoint: "A-62" 699 0 basechar 0
AnchorPoint: "A-61" 699 0 basechar 0
AnchorPoint: "A-59" 209 0 basechar 0
AnchorPoint: "A-55" 1049 0 basechar 0
AnchorPoint: "A-42" 699 0 basechar 0
AnchorPoint: "A-39" 779 0 basechar 0
AnchorPoint: "A-36" 780 0 basechar 0
AnchorPoint: "A-21" -221 0 basechar 0
AnchorPoint: "A-16" 709 0 basechar 0
AnchorPoint: "A-15" 709 0 basechar 0
AnchorPoint: "A-14" 709 0 basechar 0
AnchorPoint: "A-13" 709 0 basechar 0
AnchorPoint: "A-12" 709 0 basechar 0
AnchorPoint: "A-11" 709 0 basechar 0
AnchorPoint: "A-10" 709 0 basechar 0
AnchorPoint: "A-9" 709 0 basechar 0
AnchorPoint: "A-8" 709 0 basechar 0
AnchorPoint: "A-41" 619 0 basechar 0
AnchorPoint: "A-40" 699 0 basechar 0
AnchorPoint: "A-32" 779 0 basechar 0
AnchorPoint: "A-31" 779 0 basechar 0
AnchorPoint: "A-30" 829 0 basechar 0
AnchorPoint: "A-29" 849 0 basechar 0
AnchorPoint: "A-28" 694 0 basechar 0
AnchorPoint: "A-27" 709 0 basechar 0
AnchorPoint: "A-26" 1049 0 basechar 0
AnchorPoint: "A-25" 359 0 basechar 0
AnchorPoint: "A-24" 780 0 basechar 0
AnchorPoint: "A-23" 779 0 basechar 0
AnchorPoint: "A-20" 289 0 basechar 0
AnchorPoint: "A-7" 709 0 basechar 0
AnchorPoint: "A-6" 709 0 basechar 0
AnchorPoint: "A-5" 709 0 basechar 0
AnchorPoint: "A-4" 709 0 basechar 0
AnchorPoint: "A-2" 779 0 basechar 0
AnchorPoint: "A-1" 779 0 basechar 0
AnchorPoint: "A-0" 779 0 basechar 0
LayerCount: 2
Fore
SplineSet
416 1070 m 1
 544 1044 662 1025 795 946 c 16
 899 885 955 768 981 664 c 0
 991 621 996 576 996 533 c 0
 996 487 991 442 981 403 c 0
 962 331 885 193 849 166 c 0
 731 72 450 -41 300 -41 c 1
 300 26 324 89 363 147 c 1
 542 190 745 239 854 372 c 1
 857 399 861 425 861 452 c 0
 861 570 820 684 733 761 c 0
 663 822 508 889 373 889 c 1
 356 843 347 806 347 775 c 0
 347 698 399 655 510 594 c 1
 496 526 469 485 421 451 c 1
 291 451 192 582 192 705 c 0
 192 833 326 1017 416 1070 c 1
EndSplineSet
LCarets2: 1 0 
MultipleSubs2: "Add hairspace before low marked Qof" pe hairspace
EndChar

StartChar: finaltsadi
Encoding: 1509 1509 83
Width: 1074
GlyphClass: 2
Flags: W
VStem: 682 162<688.595 948.342> 709 130<-177.926 89.4566>
AnchorPoint: "A-69" 1052 0 basechar 0
AnchorPoint: "A-68" 1102 0 basechar 0
AnchorPoint: "A-67" 1102 0 basechar 0
AnchorPoint: "A-66" 1052 0 basechar 0
AnchorPoint: "A-65" 1102 0 basechar 0
AnchorPoint: "A-64" 1102 0 basechar 0
AnchorPoint: "A-63" 1052 0 basechar 0
AnchorPoint: "A-62" 1102 0 basechar 0
AnchorPoint: "A-61" 1102 0 basechar 0
AnchorPoint: "A-59" 522 0 basechar 0
AnchorPoint: "A-55" 994 0 basechar 0
AnchorPoint: "A-42" 1202 0 basechar 0
AnchorPoint: "A-39" 644 0 basechar 0
AnchorPoint: "A-36" 644 0 basechar 0
AnchorPoint: "A-21" 92 0 basechar 0
AnchorPoint: "A-16" 1412 0 basechar 0
AnchorPoint: "A-15" 1302 0 basechar 0
AnchorPoint: "A-14" 1162 0 basechar 0
AnchorPoint: "A-13" 1412 0 basechar 0
AnchorPoint: "A-12" 1302 0 basechar 0
AnchorPoint: "A-11" 1162 0 basechar 0
AnchorPoint: "A-10" 1412 0 basechar 0
AnchorPoint: "A-9" 1302 0 basechar 0
AnchorPoint: "A-8" 1162 0 basechar 0
AnchorPoint: "A-41" 892 0 basechar 0
AnchorPoint: "A-40" 1172 0 basechar 0
AnchorPoint: "A-32" 644 0 basechar 0
AnchorPoint: "A-31" 644 0 basechar 0
AnchorPoint: "A-30" 654 0 basechar 0
AnchorPoint: "A-29" 654 0 basechar 0
AnchorPoint: "A-28" 659 0 basechar 0
AnchorPoint: "A-27" 614 0 basechar 0
AnchorPoint: "A-26" 994 0 basechar 0
AnchorPoint: "A-25" 174 0 basechar 0
AnchorPoint: "A-24" 644 0 basechar 0
AnchorPoint: "A-23" 644 0 basechar 0
AnchorPoint: "A-20" 452 0 basechar 0
AnchorPoint: "A-7" 1392 0 basechar 0
AnchorPoint: "A-6" 1332 0 basechar 0
AnchorPoint: "A-5" 1212 0 basechar 0
AnchorPoint: "A-4" 1102 0 basechar 0
AnchorPoint: "A-3" 552 0 basechar 0
AnchorPoint: "A-2" 1002 0 basechar 0
AnchorPoint: "A-1" 1002 0 basechar 0
AnchorPoint: "A-0" 1002 0 basechar 0
LayerCount: 2
Fore
SplineSet
190 1070 m 1x40
 315 790 455 716 586 579 c 1
 646 637 682 704 682 784 c 0
 682 816 677 851 663 889 c 1
 689 962 728 1021 781 1070 c 1
 825 1002 844 934 844 867 c 0x80
 844 729 762 601 661 507 c 1
 760 369 839 157 839 -135 c 1
 813 -231 757 -299 709 -333 c 1
 709 -195 709 188 509 422 c 0
 364 593 154 731 79 895 c 1
 98 962 139 1024 190 1070 c 1x40
EndSplineSet
LCarets2: 1 0 
MultipleSubs2: "Add hairspace before low marked Qof" finaltsadi hairspace
EndChar

StartChar: tsadi
Encoding: 1510 1510 84
Width: 1073
GlyphClass: 2
Flags: W
HStem: -58 195<301.141 428.512>
VStem: 115 121<870 919.706> 712 172<686.861 943.062> 823 131<329.157 451.054>
AnchorPoint: "A-69" 684 0 basechar 0
AnchorPoint: "A-68" 684 0 basechar 0
AnchorPoint: "A-67" 684 0 basechar 0
AnchorPoint: "A-66" 684 0 basechar 0
AnchorPoint: "A-65" 684 0 basechar 0
AnchorPoint: "A-64" 684 0 basechar 0
AnchorPoint: "A-63" 684 0 basechar 0
AnchorPoint: "A-62" 684 0 basechar 0
AnchorPoint: "A-61" 684 0 basechar 0
AnchorPoint: "A-59" 224 0 basechar 0
AnchorPoint: "A-55" 1074 0 basechar 0
AnchorPoint: "A-42" 684 0 basechar 0
AnchorPoint: "A-39" 724 0 basechar 0
AnchorPoint: "A-36" 724 0 basechar 0
AnchorPoint: "A-21" -206 0 basechar 0
AnchorPoint: "A-16" 684 0 basechar 0
AnchorPoint: "A-15" 684 0 basechar 0
AnchorPoint: "A-14" 684 0 basechar 0
AnchorPoint: "A-13" 684 0 basechar 0
AnchorPoint: "A-12" 684 0 basechar 0
AnchorPoint: "A-11" 684 0 basechar 0
AnchorPoint: "A-10" 684 0 basechar 0
AnchorPoint: "A-9" 684 0 basechar 0
AnchorPoint: "A-8" 684 0 basechar 0
AnchorPoint: "A-41" 544 0 basechar 0
AnchorPoint: "A-40" 684 0 basechar 0
AnchorPoint: "A-32" 724 0 basechar 0
AnchorPoint: "A-31" 724 0 basechar 0
AnchorPoint: "A-30" 724 0 basechar 0
AnchorPoint: "A-29" 744 0 basechar 0
AnchorPoint: "A-28" 709 0 basechar 0
AnchorPoint: "A-27" 684 0 basechar 0
AnchorPoint: "A-26" 1074 0 basechar 0
AnchorPoint: "A-25" 264 0 basechar 0
AnchorPoint: "A-24" 724 0 basechar 0
AnchorPoint: "A-23" 724 0 basechar 0
AnchorPoint: "A-20" 164 0 basechar 0
AnchorPoint: "A-7" 684 0 basechar 0
AnchorPoint: "A-6" 684 0 basechar 0
AnchorPoint: "A-5" 684 0 basechar 0
AnchorPoint: "A-4" 684 0 basechar 0
AnchorPoint: "A-2" 724 0 basechar 0
AnchorPoint: "A-1" 724 0 basechar 0
AnchorPoint: "A-0" 724 0 basechar 0
LayerCount: 2
Fore
SplineSet
236 1070 m 1xd0
 282 870 526 736 688 652 c 1
 703 678 712 712 712 750 c 0xe0
 712 794 700 842 678 881 c 1
 712 954 762 1029 823 1070 c 1xd0
 867 998 884 930 884 867 c 0xe0
 884 761 836 669 792 604 c 1
 850 577 946 533 953 470 c 0
 953 465 954 459 954 454 c 0
 954 377 901 258 845 205 c 0
 720 82 379 -58 215 -58 c 1
 215 15 262 86 313 137 c 1
 639 212 823 338 823 384 c 0
 823 430 791 455 685 494 c 0
 576 537 409 603 301 676 c 0
 211 739 127 830 115 871 c 1
 130 944 176 1026 236 1070 c 1xd0
EndSplineSet
LCarets2: 1 0 
MultipleSubs2: "Add hairspace before low marked Qof" tsadi hairspace
EndChar

StartChar: kof
Encoding: 1511 1511 85
Width: 1224
GlyphClass: 2
Flags: W
HStem: -13 21G<784 813>
VStem: 550 116<-161.118 -82.6621> 763 191<81.1455 230.986>
AnchorPoint: "A-69" 851 0 basechar 0
AnchorPoint: "A-68" 851 0 basechar 0
AnchorPoint: "A-67" 851 0 basechar 0
AnchorPoint: "A-66" 851 0 basechar 0
AnchorPoint: "A-65" 851 0 basechar 0
AnchorPoint: "A-64" 851 0 basechar 0
AnchorPoint: "A-63" 851 0 basechar 0
AnchorPoint: "A-62" 851 0 basechar 0
AnchorPoint: "A-61" 851 0 basechar 0
AnchorPoint: "A-59" 311 0 basechar 0
AnchorPoint: "A-55" 1231 0 basechar 0
AnchorPoint: "A-42" 1081 0 basechar 0
AnchorPoint: "A-39" 881 0 basechar 0
AnchorPoint: "A-36" 881 0 basechar 0
AnchorPoint: "A-21" -119 0 basechar 0
AnchorPoint: "A-16" 1121 0 basechar 0
AnchorPoint: "A-15" 1011 0 basechar 0
AnchorPoint: "A-14" 891 0 basechar 0
AnchorPoint: "A-13" 1121 0 basechar 0
AnchorPoint: "A-12" 1011 0 basechar 0
AnchorPoint: "A-11" 891 0 basechar 0
AnchorPoint: "A-10" 1131 0 basechar 0
AnchorPoint: "A-9" 1121 0 basechar 0
AnchorPoint: "A-8" 1051 0 basechar 0
AnchorPoint: "A-41" 711 0 basechar 0
AnchorPoint: "A-40" 911 0 basechar 0
AnchorPoint: "A-32" 881 0 basechar 0
AnchorPoint: "A-31" 881 0 basechar 0
AnchorPoint: "A-30" 881 0 basechar 0
AnchorPoint: "A-29" 881 0 basechar 0
AnchorPoint: "A-28" 796 0 basechar 0
AnchorPoint: "A-27" 881 0 basechar 0
AnchorPoint: "A-26" 1231 0 basechar 0
AnchorPoint: "A-25" 361 0 basechar 0
AnchorPoint: "A-24" 881 0 basechar 0
AnchorPoint: "A-23" 881 0 basechar 0
AnchorPoint: "A-20" 291 0 basechar 0
AnchorPoint: "A-7" 1121 0 basechar 0
AnchorPoint: "A-6" 1061 0 basechar 0
AnchorPoint: "A-5" 971 0 basechar 0
AnchorPoint: "A-4" 851 0 basechar 0
AnchorPoint: "A-2" 881 0 basechar 0
AnchorPoint: "A-1" 881 0 basechar 0
AnchorPoint: "A-0" 881 0 basechar 0
LayerCount: 2
Fore
SplineSet
144 1070 m 1
 415 1022 850 973 959 944 c 0
 1053 918 1168 767 1168 608 c 1
 1119 478 985 306 961 257 c 0
 956 247 954 232 954 217 c 0
 954 208 954 203 954 194 c 0
 954 175 954 152 949 125 c 1
 932 94 900 75 867 45 c 24
 840 21 831 11 795 -13 c 1
 773 13 763 48 763 86 c 0
 763 134 778 185 807 231 c 0
 880 350 963 490 1024 586 c 1
 1009 661 976 733 954 750 c 0
 927 774 562 823 359 847 c 1
 484 528 593 270 666 -51 c 1
 666 -165 630 -243 550 -310 c 1
 550 -310 458 316 192 871 c 1
 129 881 74 890 11 900 c 1
 42 967 84 1022 144 1070 c 1
EndSplineSet
LCarets2: 1 0 
MultipleSubs2: "Add hairspace before low marked Qof" kof hairspace
EndChar

StartChar: resh
Encoding: 1512 1512 86
Width: 855
GlyphClass: 2
Flags: W
HStem: 869 170<103.614 234.606>
VStem: 731 106<71.5467 263.151>
AnchorPoint: "A-69" 722 0 basechar 0
AnchorPoint: "A-68" 622 0 basechar 0
AnchorPoint: "A-67" 522 0 basechar 0
AnchorPoint: "A-66" 722 0 basechar 0
AnchorPoint: "A-65" 622 0 basechar 0
AnchorPoint: "A-64" 522 0 basechar 0
AnchorPoint: "A-63" 722 0 basechar 0
AnchorPoint: "A-62" 622 0 basechar 0
AnchorPoint: "A-61" 522 0 basechar 0
AnchorPoint: "A-59" 32 0 basechar 0
AnchorPoint: "A-55" 812 0 basechar 0
AnchorPoint: "A-42" 632 0 basechar 0
AnchorPoint: "A-39" 482 0 basechar 0
AnchorPoint: "A-36" 482 0 basechar 0
AnchorPoint: "A-21" -398 0 basechar 0
AnchorPoint: "A-19" 542 0 basechar 0
AnchorPoint: "A-18" 632 0 basechar 0
AnchorPoint: "A-17" 682 0 basechar 0
AnchorPoint: "A-16" 542 0 basechar 0
AnchorPoint: "A-15" 632 0 basechar 0
AnchorPoint: "A-14" 682 0 basechar 0
AnchorPoint: "A-13" 512 0 basechar 0
AnchorPoint: "A-12" 602 0 basechar 0
AnchorPoint: "A-11" 652 0 basechar 0
AnchorPoint: "A-10" 542 0 basechar 0
AnchorPoint: "A-9" 632 0 basechar 0
AnchorPoint: "A-8" 682 0 basechar 0
AnchorPoint: "A-41" 482 0 basechar 0
AnchorPoint: "A-40" 732 0 basechar 0
AnchorPoint: "A-32" 482 0 basechar 0
AnchorPoint: "A-31" 482 0 basechar 0
AnchorPoint: "A-30" 482 0 basechar 0
AnchorPoint: "A-29" 482 0 basechar 0
AnchorPoint: "A-28" 517 0 basechar 0
AnchorPoint: "A-27" 482 0 basechar 0
AnchorPoint: "A-26" 812 0 basechar 0
AnchorPoint: "A-25" 32 0 basechar 0
AnchorPoint: "A-24" 482 0 basechar 0
AnchorPoint: "A-23" 482 0 basechar 0
AnchorPoint: "A-20" -58 0 basechar 0
AnchorPoint: "A-7" 587 0 basechar 0
AnchorPoint: "A-6" 652 0 basechar 0
AnchorPoint: "A-5" 792 0 basechar 0
AnchorPoint: "A-4" 832 0 basechar 0
AnchorPoint: "A-2" 482 0 basechar 0
AnchorPoint: "A-1" 482 0 basechar 0
AnchorPoint: "A-0" 482 0 basechar 0
LayerCount: 2
Fore
SplineSet
119 1039 m 1
 300 998 535 956 660 831 c 0
 786 703 837 292 837 123 c 1
 822 41 791 0 731 -43 c 1
 731 53 708 174 677 307 c 0
 641 461 613 590 516 691 c 0
 397 816 146 843 -13 869 c 1
 21 949 63 991 119 1039 c 1
EndSplineSet
LCarets2: 1 0 
MultipleSubs2: "Add hairspace before low marked Qof" resh hairspace
Substitution2: "'jalt' Wide Letter Alternatives in Hebrew subtable" resh.wide
EndChar

StartChar: shin
Encoding: 1513 1513 87
Width: 1367
GlyphClass: 2
Flags: W
HStem: -33 189<603.523 775.327>
VStem: 650 145<553.243 784.743> 1045 155<415.993 738.506>
AnchorPoint: "A-69" 819 0 basechar 0
AnchorPoint: "A-68" 819 0 basechar 0
AnchorPoint: "A-67" 819 0 basechar 0
AnchorPoint: "A-66" 819 0 basechar 0
AnchorPoint: "A-65" 819 0 basechar 0
AnchorPoint: "A-64" 819 0 basechar 0
AnchorPoint: "A-63" 819 0 basechar 0
AnchorPoint: "A-62" 819 0 basechar 0
AnchorPoint: "A-61" 819 0 basechar 0
AnchorPoint: "A-59" 154 0 basechar 0
AnchorPoint: "A-55" 1404 0 basechar 0
AnchorPoint: "A-42" 819 0 basechar 0
AnchorPoint: "A-39" 844 0 basechar 0
AnchorPoint: "A-36" 844 0 basechar 0
AnchorPoint: "A-21" -276 0 basechar 0
AnchorPoint: "A-16" 819 0 basechar 0
AnchorPoint: "A-15" 819 0 basechar 0
AnchorPoint: "A-14" 819 0 basechar 0
AnchorPoint: "A-13" 819 0 basechar 0
AnchorPoint: "A-12" 819 0 basechar 0
AnchorPoint: "A-11" 819 0 basechar 0
AnchorPoint: "A-10" 819 0 basechar 0
AnchorPoint: "A-9" 819 0 basechar 0
AnchorPoint: "A-8" 819 0 basechar 0
AnchorPoint: "A-41" 819 0 basechar 0
AnchorPoint: "A-40" 819 0 basechar 0
AnchorPoint: "A-32" 844 0 basechar 0
AnchorPoint: "A-31" 844 0 basechar 0
AnchorPoint: "A-30" 654 0 basechar 0
AnchorPoint: "A-29" 754 0 basechar 0
AnchorPoint: "A-28" 639 0 basechar 0
AnchorPoint: "A-27" 934 0 basechar 0
AnchorPoint: "A-26" 1404 0 basechar 0
AnchorPoint: "A-25" 204 0 basechar 0
AnchorPoint: "A-24" 844 0 basechar 0
AnchorPoint: "A-23" 844 0 basechar 0
AnchorPoint: "A-20" 74 0 basechar 0
AnchorPoint: "A-7" 819 0 basechar 0
AnchorPoint: "A-6" 819 0 basechar 0
AnchorPoint: "A-5" 819 0 basechar 0
AnchorPoint: "A-4" 819 0 basechar 0
AnchorPoint: "A-2" 844 0 basechar 0
AnchorPoint: "A-1" 844 0 basechar 0
AnchorPoint: "A-0" 844 0 basechar 0
LayerCount: 2
Fore
SplineSet
237 1069 m 1
 358 883 461 638 510 474 c 1
 594 513 650 600 650 673 c 0
 650 743 575 834 529 882 c 1
 561 971 623 1031 686 1069 c 1
 749 967 795 853 795 742 c 0
 795 658 775 587 749 544 c 0
 703 465 634 397 544 353 c 1
 573 254 599 156 674 156 c 0
 742 156 940 304 1029 423 c 1
 1039 462 1045 501 1045 539 c 0
 1045 647 1005 753 928 888 c 1
 962 975 1019 1026 1072 1069 c 1
 1147 973 1200 793 1200 607 c 24
 1200 412 1062 234 980 155 c 8
 879 58 759 -33 672 -33 c 0
 530 -33 471 129 411 274 c 16
 350 421 307 560 246 673 c 0
 200 760 151 822 96 880 c 1
 128 957 170 1016 237 1069 c 1
EndSplineSet
LCarets2: 1 0 
MultipleSubs2: "Add hairspace before low marked Qof" shin hairspace
EndChar

StartChar: tav
Encoding: 1514 1514 88
Width: 1150
GlyphClass: 2
Flags: W
HStem: -24 21G<163.5 204.5> 909 161<217.898 306.587>
VStem: 1039 107<111.814 272.227>
AnchorPoint: "A-69" 775 0 basechar 0
AnchorPoint: "A-68" 775 0 basechar 0
AnchorPoint: "A-67" 775 0 basechar 0
AnchorPoint: "A-66" 775 0 basechar 0
AnchorPoint: "A-65" 775 0 basechar 0
AnchorPoint: "A-64" 775 0 basechar 0
AnchorPoint: "A-63" 775 0 basechar 0
AnchorPoint: "A-62" 775 0 basechar 0
AnchorPoint: "A-61" 775 0 basechar 0
AnchorPoint: "A-59" 130 0 basechar 0
AnchorPoint: "A-55" 1140 0 basechar 0
AnchorPoint: "A-42" 775 0 basechar 0
AnchorPoint: "A-39" 800 0 basechar 0
AnchorPoint: "A-36" 816 0 basechar 0
AnchorPoint: "A-21" -275 0 basechar 0
AnchorPoint: "A-16" 775 0 basechar 0
AnchorPoint: "A-15" 775 0 basechar 0
AnchorPoint: "A-14" 775 0 basechar 0
AnchorPoint: "A-13" 775 0 basechar 0
AnchorPoint: "A-12" 775 0 basechar 0
AnchorPoint: "A-11" 775 0 basechar 0
AnchorPoint: "A-10" 775 0 basechar 0
AnchorPoint: "A-9" 775 0 basechar 0
AnchorPoint: "A-8" 775 0 basechar 0
AnchorPoint: "A-41" 750 0 basechar 0
AnchorPoint: "A-40" 775 0 basechar 0
AnchorPoint: "A-32" 800 0 basechar 0
AnchorPoint: "A-31" 800 0 basechar 0
AnchorPoint: "A-30" 800 0 basechar 0
AnchorPoint: "A-29" 800 0 basechar 0
AnchorPoint: "A-28" 615 0 basechar 0
AnchorPoint: "A-27" 800 0 basechar 0
AnchorPoint: "A-26" 1140 0 basechar 0
AnchorPoint: "A-25" 250 0 basechar 0
AnchorPoint: "A-24" 816 0 basechar 0
AnchorPoint: "A-23" 800 0 basechar 0
AnchorPoint: "A-20" 170 0 basechar 0
AnchorPoint: "A-7" 775 0 basechar 0
AnchorPoint: "A-6" 775 0 basechar 0
AnchorPoint: "A-5" 775 0 basechar 0
AnchorPoint: "A-4" 775 0 basechar 0
AnchorPoint: "A-2" 800 0 basechar 0
AnchorPoint: "A-1" 800 0 basechar 0
AnchorPoint: "A-0" 800 0 basechar 0
LayerCount: 2
Fore
SplineSet
240 1070 m 1
 445 1070 645 1002 817 918 c 0
 882 887 990 816 1039 693 c 0
 1099 548 1146 356 1146 165 c 1
 1129 85 1102 25 1039 -33 c 1
 1005 259 955 552 863 660 c 0
 755 785 614 808 488 846 c 1
 541 643 573 445 573 365 c 0
 573 358 571 351 571 346 c 0
 568 322 536 230 493 167 c 16
 457 114 242 3 167 -24 c 1
 160 -9 157 12 157 34 c 0
 157 83 173 145 187 179 c 1
 269 217 360 256 440 317 c 1
 402 512 363 684 310 879 c 1
 237 893 176 899 87 909 c 1
 113 979 158 1026 240 1070 c 1
EndSplineSet
LCarets2: 1 0 
MultipleSubs2: "Add hairspace before low marked Qof" tav hairspace
Substitution2: "'jalt' Wide Letter Alternatives in Hebrew subtable" tav.wide
EndChar

StartChar: zerononjoin
Encoding: 8204 8204 96
Width: 5
GlyphClass: 2
Flags: W
HStem: 1613 281
VStem: -456 299
LayerCount: 2
Fore
SplineSet
-432 1894 m 1
 -312 1786 l 1
 -232 1893 l 1
 -195 1860 l 1
 -276 1753 l 1
 -157 1646 l 1
 -183 1613 l 1
 -300 1719 l 1
 -382 1613 l 1
 -419 1646 l 1
 -338 1753 l 1
 -456 1860 l 1
 -432 1894 l 1
EndSplineSet
Validated: 1
EndChar

StartChar: zerojoin
Encoding: 8205 8205 97
Width: 8
GlyphClass: 2
Flags: W
HStem: 1637 140<-473 -446 -139 -120> 1730 47<-446 -155>
VStem: -498 403
LayerCount: 2
Fore
SplineSet
-139 1637 m 1xa0
 -155 1730 l 1
 -446 1730 l 1x60
 -430 1637 l 1
 -473 1637 l 1xa0
 -498 1777 l 1x60
 -120 1777 l 1
 -95 1637 l 1
 -139 1637 l 1xa0
EndSplineSet
Validated: 1
EndChar

StartChar: lrm
Encoding: 8206 8206 98
Width: 6
GlyphClass: 2
Flags: W
HStem: 1730 47<-445 -214>
VStem: -453 328
LayerCount: 2
Fore
SplineSet
-305 1860 m 1
 -281 1894 l 1
 -125 1753 l 1
 -231 1612 l 1
 -268 1646 l 1
 -204 1730 l 1
 -445 1730 l 1
 -453 1777 l 1
 -214 1777 l 1
 -305 1860 l 1
EndSplineSet
Validated: 1
EndChar

StartChar: rlm
Encoding: 8207 8207 99
Width: 6
GlyphClass: 2
Flags: W
HStem: 1730 47<-397 -165>
VStem: -486 329
LayerCount: 2
Fore
SplineSet
-305 1647 m 1
 -330 1613 l 1
 -486 1754 l 1
 -380 1895 l 1
 -343 1861 l 1
 -406 1777 l 1
 -165 1777 l 1
 -157 1730 l 1
 -397 1730 l 1
 -305 1647 l 1
EndSplineSet
Validated: 1
EndChar

StartChar: quoteleft
Encoding: 8216 8216 100
Width: 384
GlyphClass: 2
Flags: W
HStem: 703 659
VStem: -160 190<1070.2 1275.96>
LayerCount: 2
Fore
SplineSet
-119 1362 m 1
 -61 1324 -8 1278 40 1212 c 1
 33 1189 30 1166 30 1141 c 0
 30 1121 32 1101 36 1080 c 0
 55 973 117 852 183 720 c 1
 178 712 159 703 147 703 c 1
 30 833 -126 1026 -155 1188 c 0
 -158 1205 -160 1222 -160 1239 c 0
 -160 1284 -148 1325 -119 1362 c 1
EndSplineSet
Validated: 1
EndChar

StartChar: newshekel
Encoding: 8362 8362 106
Width: 1769
VWidth: 1706
GlyphClass: 2
Flags: W
HStem: -36 186<815.633 1091.52>
VStem: 253 133<106.78 426.523> 1446 129<352.51 603.151>
LayerCount: 2
Fore
SplineSet
1347 736 m 0
 1311 816 1292 828 1241 893 c 1
 1241 966 1299 1047 1345 1091 c 1
 1384 1031 1408 996 1446 935 c 0
 1485 872 1511 814 1531 751 c 0
 1551 688 1562 618 1572 538 c 0
 1574 524 1575 514 1575 502 c 0
 1575 490 1573 478 1568 464 c 0
 1537 365 1514 301 1463 207 c 8
 1436 158 1407 133 1359 109 c 1
 1202 32 1032 -16 872 -36 c 1
 860 -38 850 -36 840 -36 c 0
 773 -36 722 -4 691 56 c 0
 669 97 623 292 572 541 c 1
 608 608 652 647 708 681 c 1
 735 558 780 347 811 207 c 0
 820 168 850 150 891 150 c 0
 900 150 909 150 918 152 c 0
 995 162 1083 186 1167 220 c 0
 1283 266 1412 337 1446 393 c 1
 1446 502 1407 603 1347 736 c 0
287 838 m 1
 354 703 386 464 386 150 c 1
 366 65 311 -16 253 -43 c 1
 253 105 230 192 230 340 c 16
 230 536 180 652 119 821 c 8
 107 855 67 870 60 887 c 1
 96 971 137 1036 193 1091 c 1
 234 1067 277 1047 335 1033 c 24
 530 985 684 993 838 935 c 0
 993 875 1082 768 1137 631 c 0
 1152 593 1164 557 1176 521 c 1
 1157 449 1120 398 1053 357 c 1
 1026 458 985 568 942 628 c 0
 893 696 823 745 739 771 c 0
 609 809 499 838 287 838 c 1
EndSplineSet
Validated: 1
EndChar

StartChar: Euro
Encoding: 8364 8364 107
Width: 1020
VWidth: 1706
GlyphClass: 2
Flags: W
HStem: -38 181<454.032 643.621> 1072 174<352.253 647.254>
VStem: 119 128<589.526 944.828>
LayerCount: 2
Fore
SplineSet
686 1215 m 1
 686 1152 664 1068 628 1046 c 1
 563 1063 514 1072 473 1072 c 0
 424 1072 385 1061 346 1046 c 0
 319 1037 295 1008 288 998 c 0
 257 959 247 843 247 715 c 0
 247 696 255 676 258 652 c 1
 649 777 l 1
 649 736 648 695 633 659 c 1
 285 548 l 1
 294 519 304 488 314 459 c 1
 666 572 l 1
 668 562 667 551 667 541 c 0
 667 510 662 480 650 454 c 1
 353 360 l 1
 368 324 384 295 399 271 c 0
 431 223 466 143 521 143 c 0
 526 143 529 145 532 145 c 0
 672 177 783 239 882 295 c 1
 884 281 886 266 886 249 c 0
 886 208 879 162 865 135 c 1
 809 96 681 7 548 -29 c 0
 524 -36 504 -38 485 -38 c 0
 430 -38 397 -12 365 26 c 0
 319 79 259 189 210 314 c 1
 138 290 l 1
 136 302 137 312 137 324 c 0
 137 353 142 381 152 408 c 1
 174 415 l 1
 164 446 155 474 148 505 c 1
 142 503 l 1
 140 513 140 526 140 536 c 1
 126 596 119 652 119 701 c 0
 119 781 126 829 150 906 c 0
 193 1044 288 1195 416 1231 c 0
 455 1241 492 1246 526 1246 c 0
 620 1246 686 1215 686 1215 c 1
EndSplineSet
Validated: 1
EndChar

StartChar: dottedcircle
Encoding: 9676 9676 108
Width: 1153
GlyphClass: 2
Flags: W
HStem: -12 143<506.202 625.156> 48 143<278.202 397.156 713.202 832.156> 222 143<86.0792 204.855 845.079 963.855> 456 143<-10.9208 107.855 859.202 978.033> 690 143<3.44708 122.033 762.447 881.033> 864 143<134.202 253.156 570.079 688.855> 924 143<341.202 460.156>
VStem: -19 137<463.001 591.248> -5 137<697.722 825.248> 78 137<229.001 357.248> 126 137<871.119 999.775> 270 137<55.1191 183.775> 333 137<931.119 1059.78> 498 137<-4.88086 123.775> 562 137<871.001 999.248> 705 137<55.1191 183.775> 754 137<697.722 825.248> 837 137<229.001 296.677 305.551 357.248 471.089 595.555>
AnchorPoint: "A-69" 662 0 basechar 0
AnchorPoint: "A-68" 662 0 basechar 0
AnchorPoint: "A-67" 662 0 basechar 0
AnchorPoint: "A-66" 662 0 basechar 0
AnchorPoint: "A-65" 662 0 basechar 0
AnchorPoint: "A-64" 662 0 basechar 0
AnchorPoint: "A-63" 662 0 basechar 0
AnchorPoint: "A-62" 662 0 basechar 0
AnchorPoint: "A-61" 662 0 basechar 0
AnchorPoint: "A-59" 0 0 basechar 0
AnchorPoint: "A-55" 1032 0 basechar 0
AnchorPoint: "A-42" 662 0 basechar 0
AnchorPoint: "A-39" 622 0 basechar 0
AnchorPoint: "A-36" 622 0 basechar 0
AnchorPoint: "A-21" -430 0 basechar 0
AnchorPoint: "A-16" 622 0 basechar 0
AnchorPoint: "A-15" 622 0 basechar 0
AnchorPoint: "A-14" 622 0 basechar 0
AnchorPoint: "A-13" 622 0 basechar 0
AnchorPoint: "A-12" 622 0 basechar 0
AnchorPoint: "A-11" 622 0 basechar 0
AnchorPoint: "A-10" 622 0 basechar 0
AnchorPoint: "A-9" 622 0 basechar 0
AnchorPoint: "A-8" 622 0 basechar 0
AnchorPoint: "A-60" 622 0 basechar 0
AnchorPoint: "A-41" 630 0 basechar 0
AnchorPoint: "A-40" 662 0 basechar 0
AnchorPoint: "A-32" 622 0 basechar 0
AnchorPoint: "A-31" 622 0 basechar 0
AnchorPoint: "A-30" 500 0 basechar 0
AnchorPoint: "A-29" 622 0 basechar 0
AnchorPoint: "A-28" 485 0 basechar 0
AnchorPoint: "A-27" 622 0 basechar 0
AnchorPoint: "A-26" 1032 0 basechar 0
AnchorPoint: "A-25" 150 0 basechar 0
AnchorPoint: "A-24" 622 0 basechar 0
AnchorPoint: "A-23" 622 0 basechar 0
AnchorPoint: "A-20" -80 0 basechar 0
AnchorPoint: "A-7" 622 0 basechar 0
AnchorPoint: "A-6" 622 0 basechar 0
AnchorPoint: "A-5" 622 0 basechar 0
AnchorPoint: "A-4" 622 0 basechar 0
AnchorPoint: "A-3" 622 0 basechar 0
AnchorPoint: "A-2" 622 0 basechar 0
AnchorPoint: "A-1" 622 0 basechar 0
AnchorPoint: "A-0" 622 0 basechar 0
LayerCount: 2
Fore
SplineSet
-19 527 m 0x39
 -20 535 -19 542 -19 548 c 0
 -19 582 -1 599 36 599 c 0
 81 599 108 575 116 527 c 0
 117 520 118 513 118 507 c 0
 118 473 99 456 61 456 c 0
 17 456 -11 480 -19 527 c 0x39
851 527 m 0
 850 535 851 542 851 548 c 0
 851 582 869 599 906 599 c 0
 951 599 978 575 986 527 c 0
 987 520 988 513 988 506 c 0
 988 473 970 456 932 456 c 0
 888 456 859 480 851 527 c 0
333 995 m 0x3a08
 332 1002 333 1009 333 1015 c 0
 333 1050 352 1067 389 1067 c 0
 434 1067 460 1043 468 995 c 0
 469 988 470 981 470 974 c 0
 470 941 452 924 414 924 c 0
 370 924 341 948 333 995 c 0x3a08
498 59 m 0xb804
 497 66 498 73 498 79 c 0
 498 114 517 131 554 131 c 0
 599 131 625 107 633 59 c 0
 634 52 635 45 635 38 c 0
 635 5 617 -12 579 -12 c 0
 535 -12 506 12 498 59 c 0xb804
754 761 m 0x380080
 753 769 754 776 754 782 c 0
 754 816 772 833 809 833 c 0
 854 833 881 809 889 761 c 0
 890 754 891 747 891 740 c 0x380080
 891 707 875 690 837 690 c 0x380040
 793 690 762 714 754 761 c 0x380080
837 293 m 0x380040
 836 301 837 308 837 314 c 0
 837 348 855 365 892 365 c 0
 937 365 964 341 972 293 c 0
 973 286 974 279 974 273 c 0
 974 239 955 222 917 222 c 0
 873 222 845 246 837 293 c 0x380040
-5 761 m 0x3880
 -6 769 -5 776 -5 782 c 0
 -5 816 13 833 50 833 c 0
 95 833 122 809 130 761 c 0
 131 754 132 747 132 740 c 0x3880
 132 707 116 690 78 690 c 0x3840
 34 690 3 714 -5 761 c 0x3880
78 293 m 0x3840
 77 301 78 308 78 314 c 0
 78 348 96 365 133 365 c 0
 178 365 205 341 213 293 c 0
 214 286 215 279 215 273 c 0
 215 239 196 222 158 222 c 0
 114 222 86 246 78 293 c 0x3840
126 935 m 0x3c20
 125 942 126 949 126 955 c 0
 126 990 145 1007 182 1007 c 0
 227 1007 253 983 261 935 c 0
 262 928 263 921 263 914 c 0
 263 881 245 864 207 864 c 0
 163 864 134 888 126 935 c 0x3c20
562 935 m 0x3c02
 561 943 562 950 562 956 c 0
 562 990 580 1007 617 1007 c 0
 662 1007 689 983 697 935 c 0
 698 928 699 921 699 915 c 0
 699 881 680 864 642 864 c 0
 598 864 570 888 562 935 c 0x3c02
270 119 m 0x7810
 269 126 270 133 270 139 c 0
 270 174 289 191 326 191 c 0
 371 191 397 167 405 119 c 0
 406 112 407 105 407 98 c 0
 407 65 389 48 351 48 c 0
 307 48 278 72 270 119 c 0x7810
705 119 m 0x7801
 704 126 705 133 705 139 c 0
 705 174 724 191 761 191 c 0
 806 191 832 167 840 119 c 0
 841 112 842 105 842 98 c 0
 842 65 824 48 786 48 c 0
 742 48 713 72 705 119 c 0x7801
EndSplineSet
Validated: 1
LCarets2: 1 0 
MultipleSubs2: "Add hairspace before low marked Qof" dottedcircle hairspace
EndChar

StartChar: yodhiriq
Encoding: 64285 64285 109
Width: 599
GlyphClass: 2
Flags: W
VStem: 329 135<514.696 642.369>
AnchorPoint: "A-69" 458 0 basechar 0
AnchorPoint: "A-68" 458 0 basechar 0
AnchorPoint: "A-67" 458 0 basechar 0
AnchorPoint: "A-66" 458 0 basechar 0
AnchorPoint: "A-65" 458 0 basechar 0
AnchorPoint: "A-64" 458 0 basechar 0
AnchorPoint: "A-63" 458 0 basechar 0
AnchorPoint: "A-62" 458 0 basechar 0
AnchorPoint: "A-61" 458 0 basechar 0
AnchorPoint: "A-59" 248 0 basechar 0
AnchorPoint: "A-55" 648 0 basechar 0
AnchorPoint: "A-42" 488 0 basechar 0
AnchorPoint: "A-39" 518 0 basechar 0
AnchorPoint: "A-36" 528 0 basechar 0
AnchorPoint: "A-21" -182 0 basechar 0
AnchorPoint: "A-16" 478 0 basechar 0
AnchorPoint: "A-15" 478 0 basechar 0
AnchorPoint: "A-14" 478 0 basechar 0
AnchorPoint: "A-13" 478 0 basechar 0
AnchorPoint: "A-12" 478 0 basechar 0
AnchorPoint: "A-11" 478 0 basechar 0
AnchorPoint: "A-10" 478 0 basechar 0
AnchorPoint: "A-9" 478 0 basechar 0
AnchorPoint: "A-8" 478 0 basechar 0
AnchorPoint: "A-41" 168 0 basechar 0
AnchorPoint: "A-40" 488 0 basechar 0
AnchorPoint: "A-32" 528 0 basechar 0
AnchorPoint: "A-31" 528 0 basechar 0
AnchorPoint: "A-30" 688 0 basechar 0
AnchorPoint: "A-29" 748 0 basechar 0
AnchorPoint: "A-28" 733 0 basechar 0
AnchorPoint: "A-27" 348 0 basechar 0
AnchorPoint: "A-26" 648 0 basechar 0
AnchorPoint: "A-25" 248 0 basechar 0
AnchorPoint: "A-24" 528 0 basechar 0
AnchorPoint: "A-23" 518 0 basechar 0
AnchorPoint: "A-20" 188 0 basechar 0
AnchorPoint: "A-7" 478 0 basechar 0
AnchorPoint: "A-6" 478 0 basechar 0
AnchorPoint: "A-5" 478 0 basechar 0
AnchorPoint: "A-4" 478 0 basechar 0
AnchorPoint: "A-2" 518 0 basechar 0
AnchorPoint: "A-1" 518 0 basechar 0
AnchorPoint: "A-0" 518 0 basechar 0
LayerCount: 2
Fore
SplineSet
345 -266 m 1
 360 -226 380 -199 411 -177 c 1
 450 -199 481 -226 510 -266 c 1
 494 -303 473 -330 442 -354 c 1
 403 -330 374 -303 345 -266 c 1
63 1074 m 1
 281 968 464 850 464 567 c 1
 442 461 392 382 329 322 c 1
 329 341 329 360 329 380 c 0
 329 467 324 567 276 666 c 0
 216 789 91 825 -61 893 c 1
 -30 965 -4 1021 63 1074 c 1
EndSplineSet
Validated: 1
LCarets2: 1 0 
MultipleSubs2: "Add hairspace before low marked Qof" yodhiriq hairspace
EndChar

StartChar: jsvarika
Encoding: 64286 64286 110
Width: 0
GlyphClass: 4
Flags: W
HStem: 1188 102<-322.379 -117.659>
VStem: -428 369
AnchorPoint: "A-55" -232.831 0 mark 0
AnchorPoint: "A-57" -512.831 0 basemark 0
AnchorPoint: "A-56" -12.8311 0 basemark 0
AnchorPoint: "A-57" -12.8311 0 mark 0
AnchorPoint: "A-24" -12.8311 0 mark 0
LayerCount: 2
Fore
SplineSet
-59 1304 m 1
 -88 1267 -134 1188 -219 1188 c 0
 -297 1188 -357 1263 -398 1306 c 1
 -428 1380 l 1
 -365 1329 -283 1290 -233 1290 c 0
 -168 1290 -93 1338 -59 1380 c 1
 -59 1304 l 1
EndSplineSet
Validated: 1
LCarets2: 1 0 
EndChar

StartChar: yodyodpatah
Encoding: 64287 64287 111
Width: 1076
GlyphClass: 2
Flags: W
HStem: 158 97<179.527 938.732>
VStem: 329 135<510.696 638.369> 729 135<544.696 672.369>
AnchorPoint: "A-69" 559 0 basechar 0
AnchorPoint: "A-68" 559 0 basechar 0
AnchorPoint: "A-67" 559 0 basechar 0
AnchorPoint: "A-66" 559 0 basechar 0
AnchorPoint: "A-65" 559 0 basechar 0
AnchorPoint: "A-64" 559 0 basechar 0
AnchorPoint: "A-63" 559 0 basechar 0
AnchorPoint: "A-62" 559 0 basechar 0
AnchorPoint: "A-61" 559 0 basechar 0
AnchorPoint: "A-59" 39 0 basechar 0
AnchorPoint: "A-55" 939 0 basechar 0
AnchorPoint: "A-42" 559 0 basechar 0
AnchorPoint: "A-39" 549 0 basechar 0
AnchorPoint: "A-36" 549 0 basechar 0
AnchorPoint: "A-21" -391 0 basechar 0
AnchorPoint: "A-16" 549 0 basechar 0
AnchorPoint: "A-15" 549 0 basechar 0
AnchorPoint: "A-14" 549 0 basechar 0
AnchorPoint: "A-13" 549 0 basechar 0
AnchorPoint: "A-12" 549 0 basechar 0
AnchorPoint: "A-11" 549 0 basechar 0
AnchorPoint: "A-10" 549 0 basechar 0
AnchorPoint: "A-9" 549 0 basechar 0
AnchorPoint: "A-8" 549 0 basechar 0
AnchorPoint: "A-41" 479 0 basechar 0
AnchorPoint: "A-40" 559 0 basechar 0
AnchorPoint: "A-32" 549 0 basechar 0
AnchorPoint: "A-31" 549 0 basechar 0
AnchorPoint: "A-30" 549 0 basechar 0
AnchorPoint: "A-29" 549 0 basechar 0
AnchorPoint: "A-28" 524 0 basechar 0
AnchorPoint: "A-27" 549 0 basechar 0
AnchorPoint: "A-26" 939 0 basechar 0
AnchorPoint: "A-25" 39 0 basechar 0
AnchorPoint: "A-24" 549 0 basechar 0
AnchorPoint: "A-23" 549 0 basechar 0
AnchorPoint: "A-20" -31 0 basechar 0
AnchorPoint: "A-7" 549 0 basechar 0
AnchorPoint: "A-6" 549 0 basechar 0
AnchorPoint: "A-5" 549 0 basechar 0
AnchorPoint: "A-4" 549 0 basechar 0
AnchorPoint: "A-2" 549 0 basechar 0
AnchorPoint: "A-1" 549 0 basechar 0
AnchorPoint: "A-0" 549 0 basechar 0
LayerCount: 2
Fore
SplineSet
463 1104 m 1
 681 998 864 880 864 597 c 1
 842 491 792 412 729 352 c 1
 729 371 729 390 729 410 c 0
 729 497 724 597 676 696 c 0
 616 819 491 855 339 923 c 1
 370 995 396 1051 463 1104 c 1
63 1070 m 1
 281 964 464 846 464 563 c 1
 442 457 392 378 329 318 c 1
 329 337 329 356 329 376 c 0
 329 463 324 563 276 662 c 0
 216 785 91 821 -61 889 c 1
 -30 961 -4 1017 63 1070 c 1
194 255 m 1
 939 255 l 1
 940 247 941 238 941 230 c 0
 941 205 935 182 928 158 c 1
 180 158 l 17
 178 167 177 176 177 185 c 0
 177 210 184 232 194 255 c 1
EndSplineSet
Validated: 1
LCarets2: 1 3 
MultipleSubs2: "Add hairspace before low marked Qof" yodyodpatah hairspace
EndChar

StartChar: ayin.alt
Encoding: 64288 64288 112
Width: 1081
GlyphClass: 2
Flags: W
VStem: 809 125<321.36 677.498>
AnchorPoint: "A-69" 633 0 basechar 0
AnchorPoint: "A-68" 633 0 basechar 0
AnchorPoint: "A-67" 633 0 basechar 0
AnchorPoint: "A-66" 633 0 basechar 0
AnchorPoint: "A-65" 633 0 basechar 0
AnchorPoint: "A-64" 633 0 basechar 0
AnchorPoint: "A-63" 633 0 basechar 0
AnchorPoint: "A-62" 633 0 basechar 0
AnchorPoint: "A-61" 633 0 basechar 0
AnchorPoint: "A-59" 143 0 basechar 0
AnchorPoint: "A-55" 1083 0 basechar 0
AnchorPoint: "A-42" 633 0 basechar 0
AnchorPoint: "A-39" 713 0 basechar 0
AnchorPoint: "A-36" 713 0 basechar 0
AnchorPoint: "A-21" -287 0 basechar 0
AnchorPoint: "A-16" 633 0 basechar 0
AnchorPoint: "A-15" 633 0 basechar 0
AnchorPoint: "A-14" 633 0 basechar 0
AnchorPoint: "A-13" 633 0 basechar 0
AnchorPoint: "A-12" 633 0 basechar 0
AnchorPoint: "A-11" 633 0 basechar 0
AnchorPoint: "A-10" 633 0 basechar 0
AnchorPoint: "A-9" 633 0 basechar 0
AnchorPoint: "A-8" 633 0 basechar 0
AnchorPoint: "A-41" 493 0 basechar 0
AnchorPoint: "A-40" 633 0 basechar 0
AnchorPoint: "A-32" 713 0 basechar 0
AnchorPoint: "A-31" 143 0 basechar 0
AnchorPoint: "A-30" 713 0 basechar 0
AnchorPoint: "A-29" 713 0 basechar 0
AnchorPoint: "A-28" 628 0 basechar 0
AnchorPoint: "A-27" 713 0 basechar 0
AnchorPoint: "A-26" 1083 0 basechar 0
AnchorPoint: "A-25" 223 0 basechar 0
AnchorPoint: "A-24" 713 0 basechar 0
AnchorPoint: "A-23" 713 0 basechar 0
AnchorPoint: "A-20" 143 0 basechar 0
AnchorPoint: "A-7" 633 0 basechar 0
AnchorPoint: "A-6" 633 0 basechar 0
AnchorPoint: "A-5" 633 0 basechar 0
AnchorPoint: "A-4" 633 0 basechar 0
AnchorPoint: "A-3" 738 0 basechar 0
AnchorPoint: "A-2" 713 0 basechar 0
AnchorPoint: "A-1" 713 0 basechar 0
AnchorPoint: "A-0" 713 0 basechar 0
LayerCount: 2
Fore
SplineSet
157 1068 m 1
 427 841 568 513 652 237 c 1
 713 269 767 301 794 362 c 0
 806 391 809 430 809 468 c 0
 809 509 806 548 799 572 c 0
 770 685 723 775 656 872 c 1
 683 951 719 1012 765 1068 c 1
 866 925 934 771 934 611 c 0
 934 502 920 358 852 242 c 0
 785 126 666 65 519 27 c 0
 483 17 451 8 417 -19 c 0
 354 -65 289 -94 210 -94 c 0
 195 -94 178 -93 161 -90 c 1
 183 -37 190 23 258 96 c 0
 314 156 422 152 519 191 c 1
 435 464 263 684 70 884 c 1
 85 957 114 1012 157 1068 c 1
EndSplineSet
LCarets2: 1 0 
MultipleSubs2: "Add hairspace before low marked Qof" ayin.alt hairspace
EndChar

StartChar: alef.wide
Encoding: 64289 64289 113
Width: 1845
GlyphClass: 2
Flags: W
HStem: -3 6G<485 517 1647.5 1713>
VStem: 485 118<88.2671 391.714> 1379 146<741.018 919.687>
AnchorPoint: "A-69" 1167 0 basechar 0
AnchorPoint: "A-68" 1167 0 basechar 0
AnchorPoint: "A-67" 1167 0 basechar 0
AnchorPoint: "A-66" 1167 0 basechar 0
AnchorPoint: "A-65" 1167 0 basechar 0
AnchorPoint: "A-64" 1167 0 basechar 0
AnchorPoint: "A-63" 1167 0 basechar 0
AnchorPoint: "A-62" 1167 0 basechar 0
AnchorPoint: "A-61" 1167 0 basechar 0
AnchorPoint: "A-59" 237 0 basechar 0
AnchorPoint: "A-55" 1787 0 basechar 0
AnchorPoint: "A-42" 1167 0 basechar 0
AnchorPoint: "A-39" 1147 0 basechar 0
AnchorPoint: "A-36" 1147 0 basechar 0
AnchorPoint: "A-21" -193 0 basechar 0
AnchorPoint: "A-16" 1167 0 basechar 0
AnchorPoint: "A-15" 1167 0 basechar 0
AnchorPoint: "A-14" 1167 0 basechar 0
AnchorPoint: "A-13" 1167 0 basechar 0
AnchorPoint: "A-12" 1167 0 basechar 0
AnchorPoint: "A-11" 1167 0 basechar 0
AnchorPoint: "A-10" 1167 0 basechar 0
AnchorPoint: "A-9" 1167 0 basechar 0
AnchorPoint: "A-8" 1167 0 basechar 0
AnchorPoint: "A-41" 1467 0 basechar 0
AnchorPoint: "A-40" 1167 0 basechar 0
AnchorPoint: "A-32" 1147 0 basechar 0
AnchorPoint: "A-31" 1147 0 basechar 0
AnchorPoint: "A-30" 847 0 basechar 0
AnchorPoint: "A-29" 947 0 basechar 0
AnchorPoint: "A-28" 722 0 basechar 0
AnchorPoint: "A-27" 1347 0 basechar 0
AnchorPoint: "A-26" 1787 0 basechar 0
AnchorPoint: "A-25" 387 0 basechar 0
AnchorPoint: "A-24" 1147 0 basechar 0
AnchorPoint: "A-23" 1147 0 basechar 0
AnchorPoint: "A-20" 247 0 basechar 0
AnchorPoint: "A-7" 1167 0 basechar 0
AnchorPoint: "A-6" 1167 0 basechar 0
AnchorPoint: "A-5" 1167 0 basechar 0
AnchorPoint: "A-4" 1167 0 basechar 0
AnchorPoint: "A-3" 1187 -450 basechar 0
AnchorPoint: "A-2" 1147 0 basechar 0
AnchorPoint: "A-1" 1147 0 basechar 0
AnchorPoint: "A-0" 1147 0 basechar 0
LayerCount: 2
Fore
SplineSet
237 1091 m 1
 337 1002 385 936 437 849 c 1
 733 803 1044 724 1277 618 c 1
 1323 666 1379 760 1379 813 c 0
 1379 871 1332 932 1285 975 c 1
 1339 1035 1343 1038 1421 1091 c 1
 1494 1031 1525 965 1525 897 c 0
 1525 788 1452 672 1351 571 c 1
 1539 460 1728 254 1811 102 c 1
 1777 44 1746 15 1680 -18 c 1
 1615 125 1409 316 1183 456 c 1
 1017 562 732 655 497 687 c 1
 545 521 603 284 603 110 c 1
 570 55 549 26 485 -3 c 1
 485 395 385 696 107 969 c 1
 150 1030 171 1047 237 1091 c 1
EndSplineSet
LCarets2: 1 0 
MultipleSubs2: "Add hairspace before low marked Qof" alef.wide hairspace
EndChar

StartChar: dalet.wide
Encoding: 64290 64290 114
Width: 1609
GlyphClass: 2
Flags: W
HStem: 870 159<5.99451 613.97>
VStem: 1081 114<471.588 706.149>
AnchorPoint: "A-69" 1301 0 basechar 0
AnchorPoint: "A-68" 1201 0 basechar 0
AnchorPoint: "A-67" 1101 0 basechar 0
AnchorPoint: "A-66" 1301 0 basechar 0
AnchorPoint: "A-65" 1201 0 basechar 0
AnchorPoint: "A-64" 1101 0 basechar 0
AnchorPoint: "A-63" 1301 0 basechar 0
AnchorPoint: "A-62" 1201 0 basechar 0
AnchorPoint: "A-61" 1101 0 basechar 0
AnchorPoint: "A-59" 41 0 basechar 0
AnchorPoint: "A-55" 1421 0 basechar 0
AnchorPoint: "A-42" 1181 0 basechar 0
AnchorPoint: "A-39" 861 0 basechar 0
AnchorPoint: "A-36" 861 0 basechar 0
AnchorPoint: "A-21" -389 0 basechar 0
AnchorPoint: "A-19" 1091 0 basechar 0
AnchorPoint: "A-18" 1241 0 basechar 0
AnchorPoint: "A-17" 1231 0 basechar 0
AnchorPoint: "A-16" 1091 0 basechar 0
AnchorPoint: "A-15" 1241 0 basechar 0
AnchorPoint: "A-14" 1231 0 basechar 0
AnchorPoint: "A-13" 941 0 basechar 0
AnchorPoint: "A-12" 1091 0 basechar 0
AnchorPoint: "A-11" 1081 0 basechar 0
AnchorPoint: "A-10" 1091 0 basechar 0
AnchorPoint: "A-9" 1241 0 basechar 0
AnchorPoint: "A-8" 1231 0 basechar 0
AnchorPoint: "A-41" 1041 0 basechar 0
AnchorPoint: "A-40" 1401 0 basechar 0
AnchorPoint: "A-32" 861 0 basechar 0
AnchorPoint: "A-31" 861 0 basechar 0
AnchorPoint: "A-30" 561 0 basechar 0
AnchorPoint: "A-29" 661 0 basechar 0
AnchorPoint: "A-28" 526 0 basechar 0
AnchorPoint: "A-27" 1061 0 basechar 0
AnchorPoint: "A-26" 1421 0 basechar 0
AnchorPoint: "A-25" 21 0 basechar 0
AnchorPoint: "A-24" 861 0 basechar 0
AnchorPoint: "A-23" 861 0 basechar 0
AnchorPoint: "A-20" -59 0 basechar 0
AnchorPoint: "A-7" 1196 0 basechar 0
AnchorPoint: "A-6" 1261 0 basechar 0
AnchorPoint: "A-5" 1411 0 basechar 0
AnchorPoint: "A-4" 1411 0 basechar 0
AnchorPoint: "A-3" 791 0 basechar 0
AnchorPoint: "A-2" 861 0 basechar 0
AnchorPoint: "A-1" 861 0 basechar 0
AnchorPoint: "A-0" 861 0 basechar 0
LayerCount: 2
Fore
SplineSet
-67 864 m 1
 -54 931 -27 993 21 1028 c 1
 51 1029 84 1029 119 1029 c 0
 525 1029 1250 991 1388 898 c 1
 1390 893 1390 885 1390 876 c 0
 1390 840 1381 783 1371 749 c 1
 1328 742 1290 729 1246 710 c 0
 1214 693 1195 669 1195 633 c 0
 1195 621 1197 610 1200 596 c 0
 1241 442 1311 290 1371 145 c 1
 1371 70 1328 8 1277 -43 c 1
 1214 87 1153 247 1100 418 c 0
 1088 457 1081 511 1081 560 c 0
 1081 604 1086 644 1095 671 c 0
 1114 727 1144 775 1156 797 c 1
 943 851 522 870 208 870 c 0
 99 870 3 868 -67 864 c 1
EndSplineSet
LCarets2: 1 0 
MultipleSubs2: "Add hairspace before low marked Qof" dalet.wide hairspace
EndChar

StartChar: he.wide
Encoding: 64291 64291 115
Width: 1634
GlyphClass: 2
Flags: W
HStem: 895 175<143.884 963.201>
VStem: 146 74<480.609 496.542> 1522 107<100.879 325.245>
AnchorPoint: "A-69" 1028 0 basechar 0
AnchorPoint: "A-68" 1028 0 basechar 0
AnchorPoint: "A-67" 1028 0 basechar 0
AnchorPoint: "A-66" 1028 0 basechar 0
AnchorPoint: "A-65" 1028 0 basechar 0
AnchorPoint: "A-64" 1028 0 basechar 0
AnchorPoint: "A-63" 1028 0 basechar 0
AnchorPoint: "A-62" 1028 0 basechar 0
AnchorPoint: "A-61" 1028 0 basechar 0
AnchorPoint: "A-59" 108 0 basechar 0
AnchorPoint: "A-55" 1688 0 basechar 0
AnchorPoint: "A-42" 1028 0 basechar 0
AnchorPoint: "A-39" 1028 0 basechar 0
AnchorPoint: "A-36" 1028 0 basechar 0
AnchorPoint: "A-21" -322 0 basechar 0
AnchorPoint: "A-16" 1008 0 basechar 0
AnchorPoint: "A-15" 1008 0 basechar 0
AnchorPoint: "A-14" 1008 0 basechar 0
AnchorPoint: "A-13" 1008 0 basechar 0
AnchorPoint: "A-12" 1008 0 basechar 0
AnchorPoint: "A-11" 1008 0 basechar 0
AnchorPoint: "A-10" 1008 0 basechar 0
AnchorPoint: "A-9" 1008 0 basechar 0
AnchorPoint: "A-8" 1008 0 basechar 0
AnchorPoint: "A-41" 1308 0 basechar 0
AnchorPoint: "A-40" 1028 0 basechar 0
AnchorPoint: "A-32" 1028 0 basechar 0
AnchorPoint: "A-31" 1028 0 basechar 0
AnchorPoint: "A-30" 728 0 basechar 0
AnchorPoint: "A-29" 828 0 basechar 0
AnchorPoint: "A-28" 593 0 basechar 0
AnchorPoint: "A-27" 1228 0 basechar 0
AnchorPoint: "A-26" 1688 0 basechar 0
AnchorPoint: "A-25" 188 0 basechar 0
AnchorPoint: "A-24" 1028 0 basechar 0
AnchorPoint: "A-23" 1028 0 basechar 0
AnchorPoint: "A-20" 108 0 basechar 0
AnchorPoint: "A-7" 1008 0 basechar 0
AnchorPoint: "A-6" 1008 0 basechar 0
AnchorPoint: "A-5" 1008 0 basechar 0
AnchorPoint: "A-4" 1008 0 basechar 0
AnchorPoint: "A-3" 1008 0 basechar 0
AnchorPoint: "A-2" 1028 0 basechar 0
AnchorPoint: "A-1" 1028 0 basechar 0
AnchorPoint: "A-0" 1028 0 basechar 0
LayerCount: 2
Fore
SplineSet
220 588 m 1
 290 361 346 250 414 132 c 1
 414 60 379 -12 353 -44 c 1
 276 23 176 195 152 318 c 1
 149 337 146 359 146 383 c 0
 146 472 172 579 220 588 c 1
207 1055 m 1
 260 1061 372 1070 513 1070 c 0
 733 1070 1021 1047 1252 950 c 0
 1383 895 1468 812 1528 672 c 16
 1608 486 1629 344 1629 153 c 1
 1614 69 1573 6 1522 -37 c 1
 1522 101 1507 248 1450 419 c 16
 1366 670 1243 772 1105 815 c 0
 896 880 653 895 451 895 c 0
 283 895 143 885 75 885 c 1
 106 948 156 1017 207 1055 c 1
EndSplineSet
LCarets2: 1 0 
MultipleSubs2: "Add hairspace before low marked Qof" he.wide hairspace
EndChar

StartChar: kaf.wide
Encoding: 64292 64292 116
Width: 1469
GlyphClass: 2
Flags: W
HStem: -41 173<178.325 630.568> 869 164<158.422 745.341>
VStem: 1274 139<261.696 619.773>
AnchorPoint: "A-69" 820 0 basechar 0
AnchorPoint: "A-68" 820 0 basechar 0
AnchorPoint: "A-67" 820 0 basechar 0
AnchorPoint: "A-66" 820 0 basechar 0
AnchorPoint: "A-65" 820 0 basechar 0
AnchorPoint: "A-64" 820 0 basechar 0
AnchorPoint: "A-63" 820 0 basechar 0
AnchorPoint: "A-62" 820 0 basechar 0
AnchorPoint: "A-61" 820 0 basechar 0
AnchorPoint: "A-59" 60 0 basechar 0
AnchorPoint: "A-55" 1440 0 basechar 0
AnchorPoint: "A-42" 820 0 basechar 0
AnchorPoint: "A-39" 860 0 basechar 0
AnchorPoint: "A-36" 860 0 basechar 0
AnchorPoint: "A-21" -370 0 basechar 0
AnchorPoint: "A-16" 820 0 basechar 0
AnchorPoint: "A-15" 820 0 basechar 0
AnchorPoint: "A-14" 820 0 basechar 0
AnchorPoint: "A-13" 820 0 basechar 0
AnchorPoint: "A-12" 820 0 basechar 0
AnchorPoint: "A-11" 820 0 basechar 0
AnchorPoint: "A-10" 820 0 basechar 0
AnchorPoint: "A-9" 820 0 basechar 0
AnchorPoint: "A-8" 820 0 basechar 0
AnchorPoint: "A-41" 1070 0 basechar 0
AnchorPoint: "A-40" 820 0 basechar 0
AnchorPoint: "A-32" 860 0 basechar 0
AnchorPoint: "A-31" 860 0 basechar 0
AnchorPoint: "A-30" 660 0 basechar 0
AnchorPoint: "A-29" 660 0 basechar 0
AnchorPoint: "A-28" 545 0 basechar 0
AnchorPoint: "A-27" 1060 0 basechar 0
AnchorPoint: "A-26" 1440 0 basechar 0
AnchorPoint: "A-25" 120 0 basechar 0
AnchorPoint: "A-24" 860 0 basechar 0
AnchorPoint: "A-23" 860 0 basechar 0
AnchorPoint: "A-20" 40 0 basechar 0
AnchorPoint: "A-7" 820 0 basechar 0
AnchorPoint: "A-6" 820 0 basechar 0
AnchorPoint: "A-5" 820 0 basechar 0
AnchorPoint: "A-4" 820 0 basechar 0
AnchorPoint: "A-3" 840 0 basechar 0
AnchorPoint: "A-2" 860 0 basechar 0
AnchorPoint: "A-1" 860 0 basechar 0
AnchorPoint: "A-0" 860 0 basechar 0
LayerCount: 2
Fore
SplineSet
178 1032 m 1
 208 1032 247 1033 293 1033 c 0
 545 1033 997 1017 1229 886 c 0
 1385 798 1413 631 1413 444 c 16
 1413 354 1375 233 1313 159 c 0
 1210 38 483 -41 123 -41 c 0
 119 -41 114 -41 110 -41 c 1
 122 19 150 84 189 132 c 1
 195 132 202 132 209 132 c 0
 454 132 1134 182 1260 268 c 1
 1269 311 1274 360 1274 409 c 0
 1274 469 1266 529 1251 568 c 0
 1203 696 1133 792 937 824 c 0
 704 862 432 869 242 869 c 0
 148 869 75 869 36 869 c 1
 68 941 117 993 178 1032 c 1
EndSplineSet
LCarets2: 1 0 
MultipleSubs2: "Add hairspace before low marked Qof" kaf.wide hairspace
EndChar

StartChar: lamed.wide
Encoding: 64293 64293 117
Width: 1526
GlyphClass: 2
Flags: W
VStem: 1029 185<66.2772 294.034> 1258 155<540.374 772.766>
AnchorPoint: "A-69" 1001 0 basechar 0
AnchorPoint: "A-68" 1001 0 basechar 0
AnchorPoint: "A-67" 1001 0 basechar 0
AnchorPoint: "A-66" 1001 0 basechar 0
AnchorPoint: "A-65" 1001 0 basechar 0
AnchorPoint: "A-64" 1001 0 basechar 0
AnchorPoint: "A-63" 1001 0 basechar 0
AnchorPoint: "A-62" 1001 0 basechar 0
AnchorPoint: "A-61" 1001 0 basechar 0
AnchorPoint: "A-59" 71 0 basechar 0
AnchorPoint: "A-55" 1421 0 basechar 0
AnchorPoint: "A-42" 1101 0 basechar 0
AnchorPoint: "A-39" 851 0 basechar 0
AnchorPoint: "A-36" 851 0 basechar 0
AnchorPoint: "A-21" -359 0 basechar 0
AnchorPoint: "A-16" 1101 0 basechar 0
AnchorPoint: "A-15" 1101 0 basechar 0
AnchorPoint: "A-14" 1101 0 basechar 0
AnchorPoint: "A-13" 951 0 basechar 0
AnchorPoint: "A-12" 951 0 basechar 0
AnchorPoint: "A-11" 951 0 basechar 0
AnchorPoint: "A-10" 1101 0 basechar 0
AnchorPoint: "A-9" 1101 0 basechar 0
AnchorPoint: "A-8" 1101 0 basechar 0
AnchorPoint: "A-41" 941 0 basechar 0
AnchorPoint: "A-40" 1101 0 basechar 0
AnchorPoint: "A-32" 921 0 basechar 0
AnchorPoint: "A-31" 851 0 basechar 0
AnchorPoint: "A-30" 331 0 basechar 0
AnchorPoint: "A-29" 301 0 basechar 0
AnchorPoint: "A-28" 256 0 basechar 0
AnchorPoint: "A-27" 1051 0 basechar 0
AnchorPoint: "A-26" 1421 0 basechar 0
AnchorPoint: "A-25" -149 0 basechar 0
AnchorPoint: "A-24" 851 0 basechar 0
AnchorPoint: "A-23" 851 0 basechar 0
AnchorPoint: "A-20" -268 0 basechar 0
AnchorPoint: "A-7" 1101 0 basechar 0
AnchorPoint: "A-6" 1101 0 basechar 0
AnchorPoint: "A-5" 1101 0 basechar 0
AnchorPoint: "A-4" 1101 0 basechar 0
AnchorPoint: "A-3" 791 0 basechar 0
AnchorPoint: "A-2" 851 0 basechar 0
AnchorPoint: "A-1" 851 0 basechar 0
AnchorPoint: "A-0" 851 0 basechar 0
LayerCount: 2
Fore
SplineSet
45 1370 m 1
 57 1283 57 1220 71 1145 c 0
 81 1099 88 1070 146 1046 c 0
 225 1012 791 1024 1244 952 c 0
 1391 929 1413 774 1413 655 c 0
 1413 573 1334 499 1273 420 c 0
 1221 354 1214 324 1214 246 c 0
 1214 220 1215 188 1215 147 c 1
 1176 57 1123 5 1058 -43 c 1
 1046 -18 1029 69 1029 125 c 0
 1029 135 1028 144 1029 152 c 0
 1051 275 1096 354 1176 459 c 16
 1218 514 1258 562 1258 639 c 0
 1258 669 1251 703 1237 744 c 0
 1230 761 1226 770 1205 777 c 0
 955 864 221 847 64 886 c 8
 13 899 -24 923 -40 973 c 16
 -71 1072 -81 1135 -96 1237 c 1
 -67 1292 -16 1341 45 1370 c 1
EndSplineSet
LCarets2: 1 0 
MultipleSubs2: "Add hairspace before low marked Qof" lamed.wide hairspace
MultipleSubs2: "Add thispace after Lamed subtable" lamed.wide thinspace
EndChar

StartChar: finalmem.wide
Encoding: 64294 64294 118
Width: 1689
GlyphClass: 2
Flags: W
HStem: -42 182<531.503 714.964>
VStem: 1482 138<507.501 696.856> 1537 141<303.847 399.376>
AnchorPoint: "A-69" 1063 0 basechar 0
AnchorPoint: "A-68" 1063 0 basechar 0
AnchorPoint: "A-67" 1063 0 basechar 0
AnchorPoint: "A-66" 1063 0 basechar 0
AnchorPoint: "A-65" 1063 0 basechar 0
AnchorPoint: "A-64" 1063 0 basechar 0
AnchorPoint: "A-63" 1063 0 basechar 0
AnchorPoint: "A-62" 1063 0 basechar 0
AnchorPoint: "A-61" 1063 0 basechar 0
AnchorPoint: "A-59" 183 0 basechar 0
AnchorPoint: "A-55" 1743 0 basechar 0
AnchorPoint: "A-42" 1063 0 basechar 0
AnchorPoint: "A-39" 1083 0 basechar 0
AnchorPoint: "A-36" 1083 0 basechar 0
AnchorPoint: "A-21" -247 0 basechar 0
AnchorPoint: "A-16" 1063 0 basechar 0
AnchorPoint: "A-15" 1063 0 basechar 0
AnchorPoint: "A-14" 1063 0 basechar 0
AnchorPoint: "A-13" 1063 0 basechar 0
AnchorPoint: "A-12" 1063 0 basechar 0
AnchorPoint: "A-11" 1063 0 basechar 0
AnchorPoint: "A-10" 1063 0 basechar 0
AnchorPoint: "A-9" 1063 0 basechar 0
AnchorPoint: "A-8" 1063 0 basechar 0
AnchorPoint: "A-41" 1323 0 basechar 0
AnchorPoint: "A-40" 1063 0 basechar 0
AnchorPoint: "A-32" 1083 0 basechar 0
AnchorPoint: "A-31" 1083 0 basechar 0
AnchorPoint: "A-30" 783 0 basechar 0
AnchorPoint: "A-29" 783 0 basechar 0
AnchorPoint: "A-28" 668 0 basechar 0
AnchorPoint: "A-27" 1283 0 basechar 0
AnchorPoint: "A-26" 1743 0 basechar 0
AnchorPoint: "A-25" 223 0 basechar 0
AnchorPoint: "A-24" 1083 0 basechar 0
AnchorPoint: "A-23" 1083 0 basechar 0
AnchorPoint: "A-20" 143 0 basechar 0
AnchorPoint: "A-7" 1063 0 basechar 0
AnchorPoint: "A-6" 1063 0 basechar 0
AnchorPoint: "A-5" 1063 0 basechar 0
AnchorPoint: "A-4" 1063 0 basechar 0
AnchorPoint: "A-3" 1083 0 basechar 0
AnchorPoint: "A-2" 1083 0 basechar 0
AnchorPoint: "A-1" 1083 0 basechar 0
AnchorPoint: "A-0" 1083 0 basechar 0
LayerCount: 2
Fore
SplineSet
352 858 m 1xc0
 408 609 471 386 529 191 c 0
 541 155 575 140 613 140 c 0
 622 140 628 139 635 141 c 0
 736 155 1537 269 1537 334 c 0xa0
 1537 365 1477 395 1467 453 c 0
 1467 455 1467 459 1467 462 c 0
 1467 484 1477 520 1482 554 c 0
 1482 557 1482 563 1482 566 c 0
 1482 575 1482 583 1482 590 c 0
 1482 663 1442 704 1368 753 c 0
 1240 837 829 864 551 864 c 0
 470 864 400 862 352 858 c 1xc0
183 1091 m 1
 401 984 957 1053 1436 935 c 0
 1561 904 1620 813 1620 695 c 0xc0
 1620 634 1606 579 1594 504 c 1
 1625 465 1664 411 1671 387 c 0
 1676 372 1678 353 1678 333 c 0
 1678 299 1671 261 1647 230 c 0
 1627 204 1577 177 1521 145 c 0
 1432 92 983 115 672 -15 c 16
 636 -30 600 -42 561 -42 c 0
 551 -42 539 -44 529 -42 c 0
 473 -33 411 16 391 84 c 0
 316 349 261 599 208 898 c 1
 147 910 123 913 48 927 c 1
 74 983 130 1053 183 1091 c 1
EndSplineSet
LCarets2: 1 0 
MultipleSubs2: "Add hairspace before low marked Qof" finalmem.wide hairspace
EndChar

StartChar: resh.wide
Encoding: 64295 64295 119
Width: 1552
GlyphClass: 2
Flags: W
HStem: 863 168<103.614 618.078>
VStem: 1428 106<71.5467 262.142>
AnchorPoint: "A-69" 1451 0 basechar 0
AnchorPoint: "A-68" 1351 0 basechar 0
AnchorPoint: "A-67" 1251 0 basechar 0
AnchorPoint: "A-66" 1451 0 basechar 0
AnchorPoint: "A-65" 1351 0 basechar 0
AnchorPoint: "A-64" 1251 0 basechar 0
AnchorPoint: "A-63" 1451 0 basechar 0
AnchorPoint: "A-62" 1351 0 basechar 0
AnchorPoint: "A-61" 1251 0 basechar 0
AnchorPoint: "A-59" 131 0 basechar 0
AnchorPoint: "A-55" 1541 0 basechar 0
AnchorPoint: "A-42" 1361 0 basechar 0
AnchorPoint: "A-39" 901 0 basechar 0
AnchorPoint: "A-36" 901 0 basechar 0
AnchorPoint: "A-21" -299 0 basechar 0
AnchorPoint: "A-19" 1261 0 basechar 0
AnchorPoint: "A-18" 1351 0 basechar 0
AnchorPoint: "A-17" 1411 0 basechar 0
AnchorPoint: "A-16" 1261 0 basechar 0
AnchorPoint: "A-15" 1351 0 basechar 0
AnchorPoint: "A-14" 1411 0 basechar 0
AnchorPoint: "A-13" 1111 0 basechar 0
AnchorPoint: "A-12" 1201 0 basechar 0
AnchorPoint: "A-11" 1261 0 basechar 0
AnchorPoint: "A-10" 1261 0 basechar 0
AnchorPoint: "A-9" 1351 0 basechar 0
AnchorPoint: "A-8" 1411 0 basechar 0
AnchorPoint: "A-41" 1211 0 basechar 0
AnchorPoint: "A-40" 1461 0 basechar 0
AnchorPoint: "A-32" 901 0 basechar 0
AnchorPoint: "A-31" 901 0 basechar 0
AnchorPoint: "A-30" 601 0 basechar 0
AnchorPoint: "A-29" 701 0 basechar 0
AnchorPoint: "A-28" 616 0 basechar 0
AnchorPoint: "A-27" 1101 0 basechar 0
AnchorPoint: "A-26" 1541 0 basechar 0
AnchorPoint: "A-25" 131 0 basechar 0
AnchorPoint: "A-24" 901 0 basechar 0
AnchorPoint: "A-23" 901 0 basechar 0
AnchorPoint: "A-20" 41 0 basechar 0
AnchorPoint: "A-7" 1321 0 basechar 0
AnchorPoint: "A-6" 1381 0 basechar 0
AnchorPoint: "A-5" 1521 0 basechar 0
AnchorPoint: "A-4" 1561 0 basechar 0
AnchorPoint: "A-3" 881 0 basechar 0
AnchorPoint: "A-2" 901 0 basechar 0
AnchorPoint: "A-1" 901 0 basechar 0
AnchorPoint: "A-0" 901 0 basechar 0
LayerCount: 2
Fore
SplineSet
119 1031 m 1
 530 1024 1268 936 1357 831 c 0
 1473 694 1534 292 1534 123 c 1
 1519 41 1488 0 1428 -43 c 1
 1428 53 1405 174 1374 307 c 0
 1338 461 1317 607 1220 708 c 1
 1131 808 559 863 127 863 c 0
 94 863 63 863 32 863 c 0
 17 863 2 863 -13 863 c 1
 21 943 63 983 119 1031 c 1
EndSplineSet
LCarets2: 1 0 
MultipleSubs2: "Add hairspace before low marked Qof" resh.wide hairspace
EndChar

StartChar: tav.wide
Encoding: 64296 64296 120
Width: 1777
GlyphClass: 2
Flags: W
VStem: 1666 107<102.814 260.011>
AnchorPoint: "A-69" 1133 0 basechar 0
AnchorPoint: "A-68" 1133 0 basechar 0
AnchorPoint: "A-67" 1133 0 basechar 0
AnchorPoint: "A-66" 1133 0 basechar 0
AnchorPoint: "A-65" 1133 0 basechar 0
AnchorPoint: "A-64" 1133 0 basechar 0
AnchorPoint: "A-63" 1133 0 basechar 0
AnchorPoint: "A-62" 1133 0 basechar 0
AnchorPoint: "A-61" 1133 0 basechar 0
AnchorPoint: "A-59" 123 0 basechar 0
AnchorPoint: "A-55" 1833 0 basechar 0
AnchorPoint: "A-42" 1133 0 basechar 0
AnchorPoint: "A-39" 1123 0 basechar 0
AnchorPoint: "A-36" 1123 0 basechar 0
AnchorPoint: "A-21" -282 0 basechar 0
AnchorPoint: "A-16" 1133 0 basechar 0
AnchorPoint: "A-15" 1133 0 basechar 0
AnchorPoint: "A-14" 1133 0 basechar 0
AnchorPoint: "A-13" 1133 0 basechar 0
AnchorPoint: "A-12" 1133 0 basechar 0
AnchorPoint: "A-11" 1133 0 basechar 0
AnchorPoint: "A-10" 1133 0 basechar 0
AnchorPoint: "A-9" 1133 0 basechar 0
AnchorPoint: "A-8" 1133 0 basechar 0
AnchorPoint: "A-41" 1433 0 basechar 0
AnchorPoint: "A-40" 1133 0 basechar 0
AnchorPoint: "A-32" 1123 0 basechar 0
AnchorPoint: "A-31" 1123 0 basechar 0
AnchorPoint: "A-30" 823 0 basechar 0
AnchorPoint: "A-29" 923 0 basechar 0
AnchorPoint: "A-28" 608 0 basechar 0
AnchorPoint: "A-27" 1323 0 basechar 0
AnchorPoint: "A-26" 1833 0 basechar 0
AnchorPoint: "A-25" 243 0 basechar 0
AnchorPoint: "A-24" 1123 0 basechar 0
AnchorPoint: "A-23" 1123 0 basechar 0
AnchorPoint: "A-20" 163 0 basechar 0
AnchorPoint: "A-7" 1133 0 basechar 0
AnchorPoint: "A-6" 1133 0 basechar 0
AnchorPoint: "A-5" 1133 0 basechar 0
AnchorPoint: "A-4" 1133 0 basechar 0
AnchorPoint: "A-3" 1133 0 basechar 0
AnchorPoint: "A-2" 1123 0 basechar 0
AnchorPoint: "A-1" 1123 0 basechar 0
AnchorPoint: "A-0" 1123 0 basechar 0
LayerCount: 2
Fore
SplineSet
240 1043 m 1
 768 960 1239 969 1444 909 c 0
 1513 889 1617 807 1666 684 c 0
 1726 539 1773 347 1773 156 c 1
 1756 76 1729 16 1666 -42 c 1
 1632 250 1576 572 1488 684 c 0
 1389 810 939 838 486 838 c 1
 539 635 573 418 573 338 c 0
 573 331 571 324 571 319 c 0
 568 295 536 203 493 140 c 16
 457 87 242 -24 167 -51 c 1
 160 -36 157 -15 157 7 c 0
 157 56 173 118 187 152 c 1
 269 190 360 229 440 290 c 1
 402 485 363 657 310 852 c 1
 237 866 176 872 87 882 c 1
 113 952 158 999 240 1043 c 1
EndSplineSet
LCarets2: 1 0 
MultipleSubs2: "Add hairspace before low marked Qof" tav.wide hairspace
EndChar

StartChar: hebrewplussign
Encoding: 64297 64297 121
Width: 1154
VWidth: 1822
GlyphClass: 2
Flags: W
HStem: 474 140<91.9933 405 533 870.256>
LayerCount: 2
Fore
SplineSet
72 474 m 1
 72 526 78 570 97 614 c 1
 405 614 l 1
 348 937 l 1
 382 963 417 981 466 992 c 1
 533 614 l 1
 890 614 l 1
 890 560 882 515 865 474 c 1
 72 474 l 1
EndSplineSet
Validated: 1
EndChar

StartChar: aleflamed
Encoding: 64335 64335 154
Width: 1196
GlyphClass: 3
Flags: W
VStem: -90 148<1167.5 1287.08> 778 150<691.88 993.804>
AnchorPoint: "A-63" 1058 0 basechar 0
AnchorPoint: "A-62" 1218 0 basechar 0
AnchorPoint: "A-61" 1278 0 basechar 0
AnchorPoint: "A-20" 338 0 basechar 0
AnchorPoint: "A-7" 820 0 basechar 0
AnchorPoint: "A-6" 918 0 basechar 0
AnchorPoint: "A-5" 868 0 basechar 0
AnchorPoint: "A-4" 818 0 basechar 0
LayerCount: 2
Fore
SplineSet
58 1402 m 1
 96 1178 123 1030 207 844 c 1
 405 796 579 729 734 621 c 1
 765 670 778 724 778 779 c 0
 778 839 761 896 730 940 c 1
 766 1001 802 1048 858 1092 c 1
 907 1031 928 962 928 890 c 0
 928 779 879 663 814 561 c 1
 939 447 1033 275 1089 120 c 1
 1067 62 1040 16 997 -42 c 1
 954 103 879 279 727 424 c 0
 584 561 372 631 114 663 c 1
 5 878 -49 1046 -90 1264 c 1
 -61 1319 -3 1373 58 1402 c 1
EndSplineSet
Validated: 1
Ligature2: "'ccmp' Alef Lamed Ligature subtable" alef .null lamed
Ligature2: "'ccmp' Alef Lamed Ligature subtable" alef cgj lamed
LCarets2: 2 0 0 
MultipleSubs2: "Add thispace after Lamed subtable" aleflamed thinspace
Ligature2: "'ccmp' Alef Lamed Ligature subtable" alef zerojoin lamed
EndChar

StartChar: hatafsegol_meteg
Encoding: 65547 -1 164
Width: 0
GlyphClass: 4
Flags: W
HStem: -590 412
AnchorPoint: "A-48" 80.168 0 basemark 0
AnchorPoint: "A-47" 80.168 0 basemark 0
AnchorPoint: "A-46" 110.168 0 basemark 0
AnchorPoint: "A-45" -609.832 0 basemark 0
AnchorPoint: "A-44" -609.832 0 basemark 0
AnchorPoint: "A-43" -589.832 0 basemark 0
AnchorPoint: "A-7" -9.83203 0 mark 0
LayerCount: 2
Fore
SplineSet
-186 -501 m 1
 -170 -463 -149 -436 -118 -412 c 1
 -79 -436 -49 -463 -20 -501 c 1
 -35 -540 -57 -567 -87 -590 c 1
 -126 -567 -157 -540 -186 -501 c 1
-98 -267 m 1
 -84 -228 -62 -200 -30 -178 c 1
 9 -200 39 -228 66 -267 c 1
 52 -304 31 -332 0 -356 c 1
 -41 -332 -71 -304 -98 -267 c 1
-354 -267 m 1
 -341 -227 -320 -200 -289 -178 c 1
 -249 -200 -219 -227 -191 -267 c 1
 -205 -304 -226 -331 -258 -355 c 1
 -298 -331 -327 -304 -354 -267 c 1
209 -190 m 1
 277 -575 l 1
 263 -579 249 -581 233 -581 c 0
 218 -581 204 -579 188 -575 c 1
 120 -190 l 17
 134 -186 148 -184 163 -184 c 0
 179 -184 193 -186 209 -190 c 1
322 -488 m 1
 338 -450 358 -423 388 -399 c 1
 428 -423 457 -450 486 -488 c 1
 471 -527 450 -554 419 -577 c 1
 381 -554 351 -527 322 -488 c 1
283 -268 m 1
 298 -228 318 -201 349 -179 c 1
 388 -201 419 -228 448 -268 c 1
 432 -305 411 -332 380 -356 c 1
 341 -332 312 -305 283 -268 c 1
EndSplineSet
Validated: 1
Ligature2: "'ccmp' Hataf Meteg substitutions subtable" hatafsegol zerojoin meteg
Ligature2: "'ccmp' Hataf Meteg substitutions subtable" hatafsegol cgj meteg
LCarets2: 2 0 0 
Ligature2: "'ccmp' Hataf Meteg substitutions subtable" hatafsegol .null meteg
MultipleSubs2: "Add hairspace after last low mark subtable" hatafsegol_meteg hairspace
MultipleSubs2: "Add thinspace before narrow letter subtable" hatafsegol_meteg thinspace
MultipleSubs2: "Add hairspace before low marked Qof" hatafsegol_meteg hairspace
EndChar

StartChar: hatafpatah_meteg
Encoding: 65548 -1 165
Width: 0
GlyphClass: 4
Flags: W
HStem: -289 97<-308.52 0.732422>
AnchorPoint: "A-48" 37.2744 0 basemark 0
AnchorPoint: "A-47" 37.2744 0 basemark 0
AnchorPoint: "A-46" 67.2744 0 basemark 0
AnchorPoint: "A-45" -592.726 0 basemark 0
AnchorPoint: "A-44" -592.726 0 basemark 0
AnchorPoint: "A-43" -592.726 0 basemark 0
AnchorPoint: "A-7" -12.7256 0 mark 0
LayerCount: 2
Fore
SplineSet
-295 -192 m 1
 0 -192 l 1
 1 -200 3 -209 3 -217 c 0
 3 -242 -3 -265 -10 -289 c 1
 -309 -289 l 17
 -311 -280 -311 -272 -311 -263 c 0
 -311 -238 -304 -215 -295 -192 c 1
165 -188 m 1
 233 -573 l 1
 219 -577 206 -579 190 -579 c 0
 175 -579 161 -577 145 -573 c 1
 77 -188 l 17
 91 -184 105 -182 120 -182 c 0
 136 -182 149 -184 165 -188 c 1
280 -485 m 1
 296 -447 316 -420 346 -396 c 1
 386 -420 416 -447 445 -485 c 1
 430 -524 409 -551 378 -574 c 1
 340 -551 309 -524 280 -485 c 1
241 -265 m 1
 256 -225 276 -198 307 -176 c 1
 346 -198 377 -225 406 -265 c 1
 390 -302 370 -329 339 -353 c 1
 300 -329 270 -302 241 -265 c 1
EndSplineSet
Validated: 1
Ligature2: "'ccmp' Hataf Meteg substitutions subtable" hatafpatah zerojoin meteg
Ligature2: "'ccmp' Hataf Meteg substitutions subtable" hatafpatah cgj meteg
LCarets2: 2 0 0 
Ligature2: "'ccmp' Hataf Meteg substitutions subtable" hatafpatah .null meteg
MultipleSubs2: "Add hairspace after last low mark subtable" hatafpatah_meteg hairspace
MultipleSubs2: "Add thinspace before narrow letter subtable" hatafpatah_meteg thinspace
MultipleSubs2: "Add hairspace before low marked Qof" hatafpatah_meteg hairspace
EndChar

StartChar: hatafqamats_meteg
Encoding: 65549 -1 166
Width: 0
GlyphClass: 4
Flags: W
HStem: -286 97<-313.771 -192 -101 6.61938>
VStem: -316 325<-284.781 -282.319 -273.271 -189>
AnchorPoint: "A-48" 41.4746 0 basemark 0
AnchorPoint: "A-47" 41.4746 0 basemark 0
AnchorPoint: "A-46" 71.4746 0 basemark 0
AnchorPoint: "A-45" -588.525 0 basemark 0
AnchorPoint: "A-44" -588.525 0 basemark 0
AnchorPoint: "A-43" -588.525 0 basemark 0
AnchorPoint: "A-7" -8.52539 0 mark 0
LayerCount: 2
Fore
SplineSet
-4 -286 m 1
 -101 -286 l 1
 -59 -526 l 1
 -74 -529 -90 -529 -106 -529 c 1
 -121 -529 -133 -529 -149 -526 c 1
 -192 -286 l 1
 -316 -286 l 17
 -317 -278 -316 -271 -316 -264 c 0
 -316 -237 -311 -213 -302 -189 c 1
 9 -189 l 1
 9 -195 9 -200 9 -206 c 0
 9 -234 5 -260 -4 -286 c 1
167 -185 m 1
 235 -570 l 1
 221 -574 208 -576 192 -576 c 0
 177 -576 163 -574 147 -570 c 1
 79 -185 l 17
 93 -181 107 -179 122 -179 c 0
 138 -179 151 -181 167 -185 c 1
286 -485 m 1
 302 -447 322 -420 352 -396 c 1
 392 -420 422 -447 451 -485 c 1
 436 -524 415 -551 384 -574 c 1
 346 -551 315 -524 286 -485 c 1
247 -265 m 1
 262 -225 283 -198 314 -176 c 1
 353 -198 383 -225 412 -265 c 1
 396 -302 376 -329 345 -353 c 1
 306 -329 276 -302 247 -265 c 1
EndSplineSet
Validated: 1
Ligature2: "'ccmp' Hataf Meteg substitutions subtable" hatafqamats zerojoin meteg
Ligature2: "'ccmp' Hataf Meteg substitutions subtable" hatafqamats cgj meteg
LCarets2: 2 0 0 
MultipleSubs2: "Add hairspace after last low mark subtable" hatafqamats_meteg hairspace
MultipleSubs2: "Add thinspace before narrow letter subtable" hatafqamats_meteg thinspace
MultipleSubs2: "Add hairspace before low marked Qof" hatafqamats_meteg hairspace
Ligature2: "'ccmp' Hataf Meteg substitutions subtable" hatafqamats .null meteg
EndChar

StartChar: exclam
Encoding: 33 33 167
Width: 515
VWidth: 1706
Flags: W
VStem: -77 465
LayerCount: 2
Fore
SplineSet
248 229 m 1
 315 180 342 156 388 98 c 1
 364 43 330 -5 285 -42 c 1
 224 0 188 24 140 81 c 1
 168 142 205 187 248 229 c 1
94 1184 m 1
 113 1141 114 1087 123 1024 c 16
 150 841 179 706 227 527 c 1
 220 476 206 389 138 358 c 1
 56 513 6 691 -67 916 c 0
 -73 934 -77 949 -77 965 c 0
 -77 979 -73 995 -64 1014 c 1
 -26 1087 34 1152 94 1184 c 1
EndSplineSet
Validated: 1
EndChar

StartChar: quotedbl
Encoding: 34 34 168
Width: 744
VWidth: 1706
Flags: W
VStem: 56 77<656.203 840> 429 76<656.203 840>
LayerCount: 2
Fore
SplineSet
390 1370 m 1
 478 1211 512 1063 512 859 c 0
 512 803 510 743 505 678 c 1
 493 661 474 655 452 655 c 0
 445 655 437 656 429 657 c 1
 402 858 318 1090 253 1192 c 1
 283 1269 339 1337 390 1370 c 1
18 1370 m 1
 106 1211 140 1063 140 859 c 0
 140 803 138 743 133 678 c 1
 121 661 101 655 79 655 c 0
 72 655 64 656 56 657 c 1
 29 858 -54 1090 -119 1192 c 1
 -89 1269 -33 1337 18 1370 c 1
EndSplineSet
Validated: 1
EndChar

StartChar: numbersign
Encoding: 35 35 169
Width: 1080
VWidth: 1706
Flags: W
HStem: 335 143<49.4563 208 363 589 743 901.878> 761 144<76.4563 248 403 629 784 928.911>
LayerCount: 2
Fore
SplineSet
273 1259 m 1
 299 1266 329 1270 360 1270 c 0
 392 1270 425 1266 457 1259 c 1
 434 1127 417 1012 403 905 c 1
 637 905 l 1
 643 1017 649 1133 654 1259 c 1
 680 1266 710 1270 742 1270 c 0
 773 1270 806 1266 838 1259 c 1
 815 1127 798 1012 784 905 c 1
 953 905 l 1
 952 851 942 802 923 761 c 1
 767 761 l 1
 757 666 749 574 743 478 c 1
 925 478 l 1
 924 424 915 376 896 335 c 1
 735 335 l 1
 729 222 722 99 715 -43 c 1
 684 -49 654 -53 623 -53 c 0
 595 -53 565 -50 532 -43 c 1
 555 92 574 216 589 335 c 1
 354 335 l 1
 348 222 341 99 334 -43 c 1
 303 -49 273 -53 242 -53 c 0
 214 -53 184 -50 151 -43 c 1
 174 92 193 216 208 335 c 1
 26 335 l 1
 27 386 34 434 55 478 c 1
 224 478 l 1
 234 573 242 666 248 761 c 1
 53 761 l 1
 54 812 61 861 82 905 c 1
 256 905 l 1
 262 1017 268 1133 273 1259 c 1
387 761 m 1
 377 666 369 574 363 478 c 1
 605 478 l 1
 615 573 623 666 629 761 c 1
 387 761 l 1
EndSplineSet
Validated: 1
EndChar

StartChar: dollar
Encoding: 36 36 170
Width: 1111
VWidth: 1706
Flags: W
HStem: -42 183<270.464 541.619> 16 153<376.511 555> 1065 164<467 719.435>
VStem: 60 106<906.081 1022.15> 851 90<292.772 467.448>
LayerCount: 2
Fore
SplineSet
590 16 m 1x78
 477 -18 352 -37 216 -42 c 1
 229 25 241 96 281 141 c 1xb8
 364 142 420 150 514 169 c 0x78
 528 172 541 175 555 178 c 1
 463 609 l 1
 363 640 261 677 185 733 c 0
 89 804 60 896 60 957 c 0
 60 972 61 985 64 995 c 0
 94 1115 206 1164 315 1201 c 0
 322 1203 329 1205 336 1207 c 1
 320 1283 l 1
 338 1319 370 1358 400 1380 c 1
 433 1225 l 1
 458 1228 484 1229 511 1229 c 0
 588 1229 671 1216 750 1183 c 1
 751 1173 751 1164 751 1154 c 0
 751 1105 742 1058 722 1020 c 1
 668 1048 568 1065 501 1065 c 0
 490 1065 478 1065 467 1065 c 1
 528 777 l 1
 635 746 744 712 820 657 c 0
 905 595 941 503 941 412 c 0
 941 376 935 340 925 306 c 0
 890 189 800 97 683 48 c 1
 702 -42 l 1xb8
 684 -82 657 -110 621 -131 c 1
 590 16 l 1x78
650 205 m 1
 758 243 826 293 846 346 c 0
 849 355 851 364 851 373 c 0
 851 427 799 487 744 515 c 0
 699 538 638 557 571 577 c 1
 650 205 l 1
366 1065 m 1
 303 1060 247 1046 192 1012 c 0
 174 1001 166 988 166 973 c 0
 166 942 203 905 267 868 c 0
 308 845 362 826 421 808 c 1
 366 1065 l 1
EndSplineSet
Validated: 1
EndChar

StartChar: percent
Encoding: 37 37 171
Width: 1365
VWidth: 1706
Flags: W
HStem: -30 184<975.354 1097.49> 467 184<274.354 396.492>
VStem: 45 109<845.822 1049.67> 441 104<690.327 903.626> 746 110<344.287 552.667> 1142 104<191.218 406.47>
LayerCount: 2
Fore
SplineSet
1142 272 m 0
 1142 301 1119 372 1093 415 c 0
 1080 436 1063 453 1047 471 c 0
 1004 518 934 542 894 550 c 0
 878 553 868 556 865 553 c 0
 858 546 856 533 856 517 c 0
 856 465 886 373 918 303 c 8
 948 238 985 163 1027 155 c 0
 1030 154 1032 154 1035 154 c 0
 1056 154 1078 172 1098 191 c 8
 1124 216 1141 247 1142 272 c 0
865 725 m 0
 866 725 868 725 869 725 c 0
 916 725 1036 679 1108 621 c 0
 1161 578 1222 480 1241 371 c 16
 1245 350 1246 330 1246 310 c 0
 1246 245 1229 186 1206 142 c 8
 1157 47 1067 -25 989 -30 c 0
 987 -30 985 -30 983 -30 c 0
 941 -30 919 2 894 40 c 0
 865 85 840 141 819 194 c 0
 773 306 746 418 746 504 c 0
 746 508 746 513 746 517 c 0
 749 599 795 720 865 725 c 0
163 1050 m 0
 157 1043 154 1031 154 1015 c 0
 154 963 185 871 217 800 c 8
 246 736 284 660 326 652 c 0
 328 651 331 651 333 651 c 0
 355 651 377 670 397 689 c 8
 422 713 440 742 441 767 c 0
 441 768 441 768 441 769 c 0
 441 798 418 869 392 912 c 0
 379 933 361 951 345 969 c 0
 302 1016 233 1039 193 1047 c 0
 177 1050 166 1053 163 1050 c 0
164 1223 m 0
 165 1223 167 1223 168 1223 c 0
 214 1223 335 1176 407 1118 c 0
 460 1075 521 978 540 869 c 16
 544 848 545 828 545 808 c 0
 545 743 528 684 505 640 c 8
 456 545 366 472 288 467 c 0
 286 467 284 467 282 467 c 0
 240 467 218 499 193 537 c 0
 164 582 139 638 118 691 c 0
 72 803 45 915 45 1001 c 0
 45 1005 45 1010 45 1014 c 0
 48 1096 94 1218 164 1223 c 0
800 1211 m 1
 815 1214 832 1215 849 1215 c 0
 892 1215 938 1207 976 1194 c 1
 729 718 641 482 444 -15 c 1
 425 -17 406 -19 387 -19 c 0
 348 -19 309 -13 270 0 c 1
 501 444 628 763 800 1211 c 1
EndSplineSet
Validated: 1
EndChar

StartChar: ampersand
Encoding: 38 38 172
Width: 1201
VWidth: 1706
Flags: W
HStem: -20 102<356.51 636.761> 0 70<1010 1166> 539 69<795 889 1038.27 1142> 1087 79<367.588 580.814>
VStem: 90 157<196.119 475.981> 176 136<790.525 1030.28> 638 142<759.707 1032.8>
LayerCount: 2
Fore
SplineSet
471 666 m 1x36
 585 719 638 790 638 901 c 0
 638 1014 573 1087 471 1087 c 0
 381 1087 312 1017 312 920 c 0
 312 831 367 758 471 666 c 1x36
531 609 m 1
 824 292 l 1
 875 365 908 430 920 493 c 1
 889 526 l 1
 795 539 l 1
 795 608 l 1
 1142 608 l 1
 1142 539 l 1
 1019 522 l 1
 988 416 942 319 877 232 c 1
 1010 79 l 1
 1166 70 l 1
 1166 0 l 1
 865 0 l 1x76
 865 41 l 1
 788 126 l 1
 675 29 567 -20 454 -20 c 0
 241 -20 90 127 90 316 c 0xba
 90 453 166 553 316 621 c 1
 224 711 176 790 176 882 c 0
 176 1039 307 1166 486 1166 c 0
 667 1166 780 1052 780 910 c 0
 780 773 703 689 531 609 c 1
381 572 m 1
 291 511 247 444 247 352 c 0
 247 197 351 82 498 82 c 0xba
 585 82 663 114 736 184 c 1
 381 572 l 1
EndSplineSet
Validated: 1
EndChar

StartChar: quotesingle
Encoding: 39 39 173
Width: 372
VWidth: 1706
Flags: W
VStem: 56 77<657.208 840.212>
LayerCount: 2
Fore
SplineSet
18 1371 m 1
 106 1212 140 1064 140 860 c 0
 140 804 138 744 133 679 c 1
 121 661 100 656 77 656 c 0
 70 656 63 656 56 657 c 1
 29 858 -54 1091 -119 1193 c 1
 -89 1270 -33 1338 18 1371 c 1
EndSplineSet
Validated: 1
EndChar

StartChar: parenleft
Encoding: 40 40 174
Width: 657
VWidth: 1706
Flags: W
HStem: 1240 20G<246.5 353>
VStem: 111 123<426.949 901.435>
LayerCount: 2
Fore
SplineSet
314 1260 m 1
 319 1260 324 1260 329 1260 c 0
 377 1260 430 1248 466 1233 c 1
 375 1091 234 914 234 678 c 0
 234 670 234 662 234 654 c 0
 246 352 413 131 598 -58 c 1
 568 -126 547 -163 489 -208 c 1
 279 -12 143 198 117 495 c 0
 113 539 111 581 111 621 c 0
 111 866 179 1062 314 1260 c 1
EndSplineSet
Validated: 1
EndChar

StartChar: parenright
Encoding: 41 41 175
Width: 655
VWidth: 1706
Flags: W
VStem: 328 123<155.376 607.807>
LayerCount: 2
Fore
SplineSet
262 -201 m 1
 257 -201 251 -201 246 -201 c 0
 199 -201 146 -190 109 -175 c 1
 190 -38 328 153 328 380 c 0
 328 396 330 413 328 430 c 0
 300 732 22 997 -97 1102 c 1
 -70 1170 -37 1227 18 1272 c 1
 252 1060 396 870 438 581 c 0
 447 522 451 465 451 410 c 0
 451 181 380 -15 262 -201 c 1
EndSplineSet
Validated: 1
EndChar

StartChar: asterisk
Encoding: 42 42 176
Width: 931
VWidth: 1672
Flags: W
HStem: 811 20G<59 112.27 662.438 723>
LayerCount: 2
Fore
SplineSet
696 831 m 1
 750 787 792 728 799 627 c 1
 487 601 l 1
 759 386 l 1
 730 325 680 282 607 258 c 1
 435 533 l 1
 362 256 l 1
 283 283 216 324 165 386 c 1
 363 601 l 1
 42 627 l 1
 34 658 31 686 31 711 c 0
 31 763 46 801 72 831 c 1
 370 683 l 1
 248 992 l 1
 281 1011 316 1021 352 1021 c 0
 388 1021 425 1011 464 992 c 1
 451 685 l 1
 696 831 l 1
EndSplineSet
Validated: 1
EndChar

StartChar: plus
Encoding: 43 43 177
Width: 1249
VWidth: 1832
Flags: W
HStem: 510 144<151.456 488 650 986.911>
LayerCount: 2
Fore
SplineSet
713 166 m 1
 689 158 664 155 640 155 c 0
 619 155 598 157 577 162 c 1
 514 510 l 1
 128 510 l 1
 129 561 136 610 157 654 c 1
 488 654 l 1
 429 998 l 1
 451 1005 477 1008 504 1008 c 0
 525 1008 546 1006 565 1002 c 1
 625 654 l 1
 1011 654 l 1
 1010 600 1000 551 981 510 c 1
 650 510 l 1
 713 166 l 1
EndSplineSet
Validated: 1
EndChar

StartChar: comma
Encoding: 44 44 178
Width: 457
VWidth: 1706
Flags: W
VStem: 209 130<-379.835 -9.91602>
LayerCount: 2
Fore
SplineSet
286 257 m 1
 322 152 339 54 339 -48 c 0
 339 -157 320 -273 287 -412 c 1
 262 -432 239 -442 209 -448 c 1
 210 -431 209 -413 209 -396 c 0
 209 -205 171 8 128 110 c 1
 191 207 243 234 286 257 c 1
EndSplineSet
Validated: 1
EndChar

StartChar: hyphen
Encoding: 45 45 179
Width: 771
VWidth: 1706
Flags: W
HStem: 472 169<161.915 589.938>
VStem: 85 585
LayerCount: 2
Fore
SplineSet
85 461 m 1
 96 525 126 585 170 638 c 1
 192 640 217 641 245 641 c 0
 373 641 548 621 670 575 c 1
 659 516 649 468 616 423 c 1
 426 456 338 472 243 472 c 0
 196 472 148 469 85 461 c 1
EndSplineSet
Validated: 1
EndChar

StartChar: period
Encoding: 46 46 180
Width: 484
VWidth: 1706
Flags: W
HStem: -38 289
VStem: 119 264
LayerCount: 2
Fore
SplineSet
227 251 m 1
 293 213 338 174 383 122 c 1
 360 63 326 7 281 -38 c 1
 220 -6 166 31 119 81 c 1
 146 147 184 201 227 251 c 1
EndSplineSet
Validated: 1
EndChar

StartChar: slash
Encoding: 47 47 181
Width: 721
VWidth: 1706
Flags: W
VStem: 34 518
LayerCount: 2
Fore
SplineSet
374 1306 m 1
 407 1313 440 1316 473 1316 c 0
 500 1316 526 1314 552 1309 c 1
 388 763 323 479 214 -59 c 1
 185 -65 158 -68 131 -68 c 0
 100 -68 68 -64 34 -57 c 1
 199 461 277 802 374 1306 c 1
EndSplineSet
Validated: 1
EndChar

StartChar: zero
Encoding: 48 48 182
Width: 988
VWidth: 1706
Flags: W
HStem: -30 197<407.891 549.633>
VStem: 62 141<638.52 1050.52> 705 130<310.84 677.323>
LayerCount: 2
Fore
SplineSet
229 1053 m 0
 211 1033 203 992 203 939 c 0
 203 821 241 643 284 501 c 8
 328 358 384 189 463 169 c 0
 468 168 473 167 478 167 c 0
 519 167 565 205 606 246 c 8
 659 298 700 361 705 416 c 0
 706 423 705 431 705 439 c 0
 705 527 672 688 606 797 c 0
 544 901 435 1001 284 1045 c 0
 255 1054 234 1059 229 1053 c 0
257 1228 m 0
 259 1228 260 1228 262 1228 c 0
 333 1228 523 1147 628 1047 c 0
 743 939 802 793 828 633 c 0
 833 602 835 571 835 541 c 0
 835 430 804 329 765 253 c 8
 686 97 541 -23 420 -30 c 0
 418 -30 415 -30 413 -30 c 0
 346 -30 313 23 275 89 c 0
 232 163 195 256 164 345 c 0
 101 524 62 700 62 841 c 0
 62 855 61 869 62 883 c 0
 70 1020 149 1221 257 1228 c 0
EndSplineSet
Validated: 1
EndChar

StartChar: one
Encoding: 49 49 183
Width: 768
VWidth: 1706
Flags: W
HStem: 1230 20G<282.5 302>
VStem: 479 120<77.784 382.415>
LayerCount: 2
Fore
SplineSet
31 1084 m 1
 116 1157 165 1184 247 1237 c 0
 260 1245 275 1250 290 1250 c 0
 314 1250 338 1238 348 1215 c 0
 421 1053 491 854 539 621 c 0
 578 433 596 278 599 120 c 1
 582 45 534 0 479 -42 c 1
 461 193 441 394 399 575 c 0
 351 784 264 1001 212 1009 c 0
 211 1009 210 1009 208 1009 c 0
 167 1009 52 915 -34 874 c 1
 -34 951 -17 1019 31 1084 c 1
EndSplineSet
Validated: 1
EndChar

StartChar: two
Encoding: 50 50 184
Width: 872
VWidth: 1706
Flags: W
HStem: 1097 156<93.2383 238.338>
VStem: 189 169<197.268 407.875> 400 184<740.596 973.623>
LayerCount: 2
Fore
SplineSet
119 1253 m 1
 262 1241 468 1202 551 1045 c 0
 574 1001 584 957 584 913 c 0
 584 841 557 770 519 701 c 0
 489 647 449 587 416 517 c 0
 387 456 362 391 359 317 c 0
 359 307 358 297 358 287 c 0
 358 253 362 223 371 196 c 1
 511 248 635 338 761 424 c 1
 765 402 767 381 767 361 c 0
 767 305 753 254 733 206 c 1
 610 121 382 12 232 -42 c 1
 202 29 189 95 189 168 c 0
 189 212 194 259 203 311 c 0
 225 438 325 573 378 724 c 0
 392 765 400 804 400 840 c 0
 400 905 376 961 326 1005 c 0
 246 1076 97 1085 -51 1097 c 1
 -11 1171 49 1221 119 1253 c 1
EndSplineSet
Validated: 1
EndChar

StartChar: three
Encoding: 51 51 185
Width: 858
VWidth: 1706
Flags: W
HStem: 1082 162<50.3512 252.4>
VStem: 329 167<861.328 1015.38> 592 141<320.316 516.09>
LayerCount: 2
Fore
SplineSet
66 1244 m 1
 194 1242 335 1229 412 1182 c 0
 466 1149 490 1094 495 1044 c 0
 496 1037 496 1030 496 1023 c 0
 496 942 451 856 411 779 c 1
 531 749 616 714 671 642 c 0
 709 593 733 531 733 463 c 0
 733 420 723 375 701 329 c 0
 605 132 430 47 200 -42 c 1
 204 25 232 103 268 162 c 1
 369 209 513 271 567 340 c 0
 585 362 592 387 592 412 c 0
 592 460 564 508 523 539 c 0
 455 591 290 633 190 651 c 1
 240 718 318 821 329 888 c 0
 331 897 329 906 329 914 c 0
 329 985 278 1045 189 1062 c 0
 103 1079 32 1080 -46 1082 c 1
 -20 1149 17 1204 66 1244 c 1
EndSplineSet
Validated: 1
EndChar

StartChar: four
Encoding: 52 52 186
Width: 962
VWidth: 1706
Flags: W
HStem: 334 186<229.244 492.272>
VStem: 97 117<534.156 829.838>
LayerCount: 2
Fore
SplineSet
389 1032 m 1
 319 978 232 808 217 689 c 0
 215 672 214 655 214 641 c 0
 214 560 246 520 320 520 c 0
 328 520 337 521 347 522 c 0
 419 530 478 546 528 564 c 1
 484 755 445 903 389 1032 c 1
485 1271 m 1
 569 1102 643 758 675 612 c 1
 737 634 797 659 844 677 c 1
 845 669 845 660 845 652 c 0
 845 594 828 532 803 493 c 1
 763 470 744 465 704 445 c 1
 724 336 737 247 752 140 c 1
 734 65 692 12 635 -42 c 1
 614 73 582 298 562 398 c 1
 462 370 365 341 278 334 c 0
 272 334 266 334 260 334 c 0
 185 334 122 369 108 452 c 0
 100 498 97 542 97 585 c 0
 97 709 125 820 159 913 c 0
 196 1014 303 1189 485 1271 c 1
EndSplineSet
Validated: 1
EndChar

StartChar: five
Encoding: 53 53 187
Width: 807
VWidth: 1706
Flags: W
HStem: 973 168<346.326 484.311>
VStem: 565 118<339.146 526.278>
LayerCount: 2
Fore
SplineSet
31 1269 m 1
 196 1217 328 1186 565 1141 c 1
 549 1079 517 1022 472 973 c 1
 384 980 265 1007 145 1040 c 1
 159 960 175 891 208 821 c 1
 308 808 408 789 498 766 c 0
 595 741 683 633 683 502 c 0
 683 492 682 481 681 470 c 0
 678 445 611 250 598 232 c 0
 540 153 479 85 204 -42 c 1
 201 -27 200 -12 200 5 c 0
 200 55 213 113 237 166 c 1
 352 230 479 286 565 381 c 1
 559 528 476 599 370 626 c 0
 305 642 226 653 178 657 c 0
 142 660 111 673 96 707 c 0
 71 764 44 860 20 1034 c 0
 16 1063 14 1096 14 1129 c 0
 14 1175 18 1223 31 1269 c 1
EndSplineSet
Validated: 1
EndChar

StartChar: six
Encoding: 54 54 188
Width: 904
VWidth: 1706
Flags: W
HStem: -38 210<392.679 510.516> 1228 20G<312 386>
VStem: 77 137<580.99 951.226>
LayerCount: 2
Fore
SplineSet
385 1248 m 1
 387 1232 388 1216 388 1199 c 0
 388 1154 380 1107 359 1064 c 1
 283 1004 271 1033 244 997 c 0
 223 970 214 918 214 862 c 0
 214 835 216 806 220 779 c 0
 246 607 306 344 401 202 c 0
 415 181 436 172 458 172 c 0
 478 172 499 179 517 191 c 0
 598 245 658 319 692 406 c 1
 639 582 443 622 356 629 c 1
 371 698 410 751 456 786 c 1
 467 787 478 788 489 788 c 0
 596 788 701 723 761 629 c 0
 791 582 805 530 805 473 c 0
 805 433 798 391 784 346 c 0
 743 217 656 102 502 0 c 0
 468 -23 432 -38 397 -38 c 0
 356 -38 317 -16 282 43 c 0
 164 247 126 408 89 609 c 0
 81 654 77 692 77 729 c 0
 77 792 89 850 112 925 c 0
 155 1064 239 1220 385 1248 c 1
EndSplineSet
Validated: 1
EndChar

StartChar: seven
Encoding: 55 55 189
Width: 916
VWidth: 1706
Flags: W
HStem: 1093 163<79.8748 177.676>
VStem: 261 154<174.484 451.084> 498 219<858.545 1000>
LayerCount: 2
Fore
SplineSet
98 1256 m 1
 315 1207 495 1140 656 1069 c 0
 699 1050 717 1018 717 982 c 0
 717 967 714 952 709 937 c 0
 678 845 567 699 485 565 c 0
 436 485 415 407 415 329 c 0
 415 277 424 225 440 172 c 1
 418 78 389 20 335 -42 c 1
 290 13 261 105 261 207 c 0
 261 217 261 226 261 236 c 0
 275 500 399 604 459 743 c 0
 484 801 498 849 498 886 c 0
 498 923 484 949 451 963 c 0
 282 1037 59 1074 -43 1093 c 1
 -8 1161 31 1209 98 1256 c 1
EndSplineSet
Validated: 1
EndChar

StartChar: eight
Encoding: 56 56 190
Width: 962
VWidth: 1706
Flags: W
HStem: -34 189<405.089 555.642> 1089 172<155 363.302>
VStem: 27 120<889.116 1087.74> 158 143<295.922 611.288> 478 145<824.484 994.583> 713 124<281.584 500.403>
LayerCount: 2
Fore
SplineSet
478 155 m 0
 536 155 713 268 713 386 c 0
 713 449 675 509 630 534 c 0
 550 579 473 606 364 634 c 1
 322 587 301 529 301 466 c 0
 301 391 331 307 387 224 c 0
 412 187 437 155 478 155 c 0
478 912 m 0
 478 1006 320 1089 196 1089 c 0
 189 1089 181 1089 174 1089 c 1
 159 1072 147 1040 147 1003 c 0
 147 930 163 856 394 793 c 1
 446 825 478 867 478 912 c 0
246 673 m 1
 204 683 27 728 27 948 c 0
 27 1072 83 1187 155 1261 c 1
 358 1260 623 1172 623 962 c 0
 623 903 599 804 527 749 c 1
 586 734 638 718 703 685 c 0
 784 645 837 556 837 452 c 0
 837 206 566 -34 435 -34 c 0
 375 -34 331 3 286 69 c 16
 228 154 158 278 158 417 c 0
 158 515 190 615 246 673 c 1
EndSplineSet
Validated: 1
EndChar

StartChar: nine
Encoding: 57 57 191
Width: 981
VWidth: 1706
Flags: W
HStem: 492 173<268.965 439.432> 1076 165<202.097 387.359>
VStem: 36 136<809.355 1071.51> 676 131<392.249 773.264>
LayerCount: 2
Fore
SplineSet
318 158 m 1
 453 211 618 318 676 462 c 1
 676 470 676 478 676 486 c 0
 676 501 676 516 676 531 c 0
 676 651 653 751 587 871 c 0
 505 1021 283 1076 218 1076 c 0
 210 1076 204 1077 202 1076 c 0
 180 1060 172 1029 172 998 c 0
 172 982 174 966 177 950 c 0
 200 840 238 712 309 675 c 0
 322 668 335 665 348 665 c 0
 406 665 465 717 501 726 c 1
 501 721 501 716 501 711 c 0
 501 660 488 600 460 549 c 1
 409 516 363 492 306 492 c 0
 288 492 268 495 247 500 c 0
 149 524 67 671 43 816 c 0
 38 847 36 877 36 906 c 0
 36 1033 83 1145 168 1211 c 0
 194 1232 234 1241 279 1241 c 0
 413 1241 602 1160 689 1044 c 0
 773 932 807 772 807 630 c 0
 807 585 804 541 797 502 c 0
 750 223 577 84 258 -42 c 1
 258 -40 258 -39 258 -37 c 0
 258 40 281 98 318 158 c 1
EndSplineSet
Validated: 1
EndChar

StartChar: colon
Encoding: 58 58 192
Width: 508
VWidth: 1706
Flags: W
VStem: 34 357
LayerCount: 2
Fore
SplineSet
141 876 m 1
 207 838 252 799 297 748 c 1
 273 688 240 633 195 588 c 1
 135 620 81 656 34 706 c 1
 62 773 99 826 141 876 c 1
234 250 m 1
 300 212 346 174 391 123 c 1
 367 63 334 8 289 -37 c 1
 229 -5 175 31 128 81 c 1
 156 148 192 200 234 250 c 1
EndSplineSet
Validated: 1
EndChar

StartChar: semicolon
Encoding: 59 59 193
Width: 465
VWidth: 1706
Flags: W
VStem: 218 129<-386.39 -6.80734>
LayerCount: 2
Fore
SplineSet
115 876 m 1
 181 838 226 799 271 748 c 1
 247 688 214 633 169 588 c 1
 109 620 56 656 9 706 c 1
 37 773 73 826 115 876 c 1
294 257 m 1
 331 151 347 53 347 -50 c 0
 347 -159 329 -274 296 -412 c 1
 271 -432 248 -442 218 -448 c 1
 219 -431 218 -413 218 -396 c 0
 218 -205 180 8 137 110 c 1
 200 207 251 234 294 257 c 1
EndSplineSet
Validated: 1
EndChar

StartChar: less
Encoding: 60 60 194
Width: 884
VWidth: 1706
Flags: W
LayerCount: 2
Fore
SplineSet
34 466 m 17
 38 524 49 581 75 639 c 9
 680 1086 l 17
 679 1018 664 953 640 896 c 9
 194 573 l 25
 851 237 l 17
 836 174 812 128 770 77 c 9
 34 466 l 17
EndSplineSet
Validated: 1
EndChar

StartChar: equal
Encoding: 61 61 195
Width: 1331
VWidth: 1706
Flags: W
HStem: 352 143<239.205 1054.25> 669 143<183.205 998.212>
LayerCount: 2
Fore
SplineSet
247 495 m 1
 1101 495 l 1
 1090 441 1072 393 1046 352 c 1
 193 352 l 1
 203 403 218 451 247 495 c 1
191 812 m 1
 1044 812 l 1
 1033 758 1016 710 990 669 c 1
 137 669 l 1
 147 720 162 768 191 812 c 1
EndSplineSet
Validated: 1
EndChar

StartChar: greater
Encoding: 62 62 196
Width: 884
VWidth: 1706
Flags: W
LayerCount: 2
Fore
SplineSet
777 650 m 17
 773 592 762 535 736 477 c 9
 127 24 l 17
 128 92 143 156 167 213 c 9
 617 543 l 25
 -43 874 l 17
 -28 937 -3 983 39 1034 c 9
 777 650 l 17
EndSplineSet
Validated: 1
EndChar

StartChar: question
Encoding: 63 63 197
Width: 718
VWidth: 1706
Flags: W
HStem: 992 160<-16.0731 220.854>
VStem: 320 165<763.937 917.027>
LayerCount: 2
Fore
SplineSet
-5 1152 m 1
 174 1152 422 1144 479 942 c 0
 483 928 485 914 485 899 c 0
 485 829 441 751 385 683 c 0
 355 647 341 613 341 581 c 0
 341 544 359 509 392 477 c 1
 352 431 303 393 246 366 c 1
 200 404 175 449 175 530 c 0
 175 636 320 714 320 824 c 0
 320 836 319 848 315 860 c 0
 280 979 66 986 -94 992 c 1
 -69 1058 -46 1106 -5 1152 c 1
348 229 m 1
 415 180 442 156 488 98 c 1
 464 43 430 -5 385 -42 c 1
 324 0 288 24 240 81 c 1
 268 142 305 187 348 229 c 1
EndSplineSet
Validated: 1
EndChar

StartChar: at
Encoding: 64 64 198
Width: 1607
VWidth: 1706
Flags: W
HStem: -261 84<620.819 1081.4> 97 104<665.809 822.78 1026 1226.85> 771 69<789.498 954.076> 1108 73<692.466 1119.91>
VStem: 130 121<185.43 685.12> 478 145<242.572 571.882> 940 127<194.393 241> 1408 79<419.193 836.298>
LayerCount: 2
Fore
SplineSet
1193 833 m 1
 1171 777 1161 715 1147 650 c 1
 1080 357 l 2
 1070 313 1067 282 1067 263 c 0
 1067 219 1095 189 1138 189 c 0
 1182 189 1240 218 1289 278 c 0
 1364 367 1408 500 1408 643 c 0
 1408 909 1213 1108 925 1108 c 0
 739 1108 584 1050 463 937 c 0
 321 806 251 641 251 440 c 0
 251 66 495 -177 860 -177 c 0
 1012 -177 1166 -137 1309 -53 c 1
 1333 -111 l 1
 1152 -212 974 -261 814 -261 c 0
 623 -261 452 -194 321 -68 c 0
 195 53 130 219 130 420 c 0
 130 647 213 836 377 986 c 0
 512 1109 705 1181 901 1181 c 0
 1263 1181 1487 963 1487 637 c 0
 1487 511 1454 397 1391 300 c 0
 1306 169 1176 94 1067 94 c 0
 985 94 940 138 940 225 c 0
 940 241 l 1
 848 145 768 97 689 97 c 0
 568 97 478 203 478 370 c 0
 478 478 512 578 573 662 c 0
 657 775 782 840 903 840 c 0
 958 840 1012 825 1070 794 c 1
 1101 833 l 1
 1193 833 l 1
944 768 m 1
 932 770 918 771 906 771 c 0
 749 771 623 613 623 391 c 0
 623 266 675 201 765 201 c 0
 826 201 884 239 944 314 c 1
 1014 672 l 1
 944 768 l 1
EndSplineSet
Validated: 1
EndChar

StartChar: A
Encoding: 65 65 199
Width: 1090
VWidth: 1706
Flags: W
HStem: 0 70<-14 42.096 196 309 722 814 1021.02 1097> 428 79<254 598> 1139 20G<276.052 404.188>
LayerCount: 2
Fore
SplineSet
280 1159 m 1
 393 1159 l 1
 991 90 l 1
 1097 70 l 1
 1109 0 l 1
 722 0 l 1
 710 70 l 1
 814 79 l 1
 822 102 l 1
 641 428 l 1
 238 428 l 1
 175 102 l 1
 196 79 l 1
 309 70 l 1
 321 0 l 1
 -14 0 l 1
 -26 70 l 1
 69 90 l 1
 280 1159 l 1
339 980 m 1
 254 507 l 1
 598 507 l 1
 339 980 l 1
EndSplineSet
Validated: 1
EndChar

StartChar: B
Encoding: 66 66 200
Width: 1030
VWidth: 1706
Flags: W
HStem: 0 80<56 140 322.965 648.786> 551 74<241 484.839> 551 57<528 571.646> 1070 75<-134 -34 148 434.722>
VStem: 566 167<699.762 959.696> 733 166<146.185 428.984>
LayerCount: 2
Fore
SplineSet
-146 1145 m 1xbc
 290 1145 l 2
 551 1145 696 1057 729 869 c 0
 732 853 733 836 733 821 c 0
 733 717 664 646 528 608 c 1
 731 606 864 502 893 335 c 0
 897 311 899 288 899 267 c 0
 899 95 765 -0 507 0 c 2
 56 0 l 1
 44 70 l 1
 140 79 l 1
 165 102 l 1
 0 1043 l 1
 -34 1067 l 1
 -134 1077 l 1
 -146 1145 l 1xbc
226 626 m 1
 237 625 248 625 259 625 c 0
 270 625 281 625 291 625 c 0xdc
 477 625 566 679 566 804 c 0
 566 822 565 841 561 862 c 0
 537 1000 433 1070 245 1070 c 0
 223 1070 190 1067 148 1065 c 1
 226 626 l 1
321 85 m 1
 363 82 400 80 436 80 c 0
 637 80 733 135 733 265 c 0
 733 283 732 302 728 323 c 0
 701 478 595 551 406 551 c 0
 362 551 306 548 241 541 c 1
 321 85 l 1
EndSplineSet
Validated: 1
EndChar

StartChar: C
Encoding: 67 67 201
Width: 1078
VWidth: 1706
Flags: W
HStem: -20 90<468.109 833.892> 1075 91<297.165 676.297>
VStem: -40 174<458.296 913.409> 853 96<228.36 309>
LayerCount: 2
Fore
SplineSet
997 39 m 1
 891 0 776 -20 662 -20 c 0
 549 -20 446 4 360 48 c 0
 159 152 11 349 -28 573 c 0
 -36 617 -40 660 -40 700 c 0
 -40 984 149 1166 460 1166 c 0
 561 1166 676 1147 808 1108 c 1
 853 845 l 1
 759 845 l 1
 706 1000 l 1
 678 1031 l 1
 610 1060 546 1075 479 1075 c 0
 263 1075 134 941 134 713 c 0
 134 673 138 630 146 585 c 0
 203 261 406 70 682 70 c 0
 730 70 779 77 827 92 c 1
 849 119 l 1
 853 309 l 1
 949 309 l 1
 997 39 l 1
EndSplineSet
Validated: 1
EndChar

StartChar: D
Encoding: 68 68 202
Width: 1182
VWidth: 1706
Flags: W
HStem: 0 79<56 140 322 671.896> 1067 78<-134 -34 148 504.347>
VStem: 848 171<236.646 687.522>
LayerCount: 2
Fore
SplineSet
276 1145 m 2
 680 1145 944 931 1007 573 c 0
 1015 528 1019 485 1019 445 c 0
 1019 303 970 189 876 106 c 0
 775 19 649 0 478 0 c 2
 56 0 l 1
 44 70 l 1
 140 79 l 1
 165 102 l 1
 0 1043 l 1
 -34 1067 l 1
 -134 1077 l 1
 -146 1145 l 1
 276 1145 l 2
148 1067 m 1
 322 79 l 1
 457 79 l 2
 719 79 848 194 848 427 c 0
 848 472 843 520 834 573 c 0
 775 906 595 1067 283 1067 c 2
 148 1067 l 1
EndSplineSet
Validated: 1
EndChar

StartChar: E
Encoding: 69 69 203
Width: 983
VWidth: 1706
Flags: W
HStem: 0 79<56 140 322 780> 556 79<238 504> 1067 78<-134 -34 148 542>
VStem: 519 80<701.545 783> 585 80<408 453.214> 797 89<196.665 278>
LayerCount: 2
Fore
SplineSet
56 0 m 1xf4
 44 70 l 1
 140 79 l 1
 165 102 l 1
 0 1043 l 1
 -34 1067 l 1
 -134 1077 l 1
 -146 1145 l 1
 672 1145 l 1
 716 896 l 1
 620 896 l 1
 571 1041 l 1
 542 1067 l 1
 148 1067 l 1
 224 635 l 1
 504 635 l 1
 524 659 l 1
 519 783 l 1
 599 783 l 1xf4
 665 408 l 1
 585 408 l 1xec
 546 531 l 1
 519 556 l 1
 238 556 l 1
 322 79 l 1
 780 79 l 1
 797 106 l 1
 797 278 l 1
 886 278 l 1
 935 0 l 1
 56 0 l 1xf4
EndSplineSet
Validated: 1
EndChar

StartChar: F
Encoding: 70 70 204
Width: 916
VWidth: 1706
Flags: W
HStem: 0 70<56 140 351 474> 539 79<241 507> 1067 78<-147 -34 148 532>
VStem: 522 80<685.333 766> 588 81<389 434.949>
LayerCount: 2
Fore
SplineSet
56 0 m 1xf0
 44 70 l 1
 140 79 l 1
 165 102 l 1
 0 1043 l 1
 -34 1067 l 1
 -147 1077 l 1
 -159 1145 l 1
 660 1145 l 1
 707 879 l 1
 613 879 l 1
 559 1041 l 1
 532 1067 l 1
 148 1067 l 1
 227 618 l 1
 507 618 l 1
 527 642 l 1
 522 766 l 1
 602 766 l 1xf0
 669 389 l 1
 588 389 l 1xe8
 549 514 l 1
 522 539 l 1
 241 539 l 1
 318 102 l 1
 351 79 l 1
 474 70 l 1
 486 0 l 1
 56 0 l 1xf0
EndSplineSet
Validated: 1
EndChar

StartChar: G
Encoding: 71 71 205
Width: 1184
VWidth: 1706
Flags: W
HStem: -20 90<465.232 843.267> 480 70<627 750 961 1041> 1075 91<297.663 685.034>
VStem: -40 174<458.452 909.265>
LayerCount: 2
Fore
SplineSet
615 550 m 1
 1041 550 l 1
 1054 480 l 1
 961 471 l 1
 937 447 l 1
 1009 39 l 1
 881 0 767 -20 666 -20 c 0
 552 -20 446 4 360 48 c 0
 157 152 11 349 -28 573 c 0
 -36 618 -40 661 -40 701 c 0
 -40 987 151 1166 481 1166 c 0
 585 1166 699 1148 817 1116 c 1
 865 845 l 1
 769 845 l 1
 716 1000 l 1
 687 1031 l 1
 619 1060 553 1075 485 1075 c 0
 263 1075 134 942 134 713 c 0
 134 673 138 631 146 585 c 0
 203 262 407 70 675 70 c 0
 724 70 782 77 846 92 c 1
 783 447 l 1
 750 471 l 1
 627 480 l 1
 615 550 l 1
EndSplineSet
Validated: 1
EndChar

StartChar: H
Encoding: 72 72 206
Width: 1259
VWidth: 1706
Flags: W
HStem: 0 70<56 140 351 459 788 880 1092 1191> 561 79<237 810> 1077 68<-134 -34 177 269 599 706 918 1001>
LayerCount: 2
Fore
SplineSet
-146 1145 m 1
 269 1145 l 1
 281 1077 l 1
 177 1067 l 1
 152 1043 l 1
 223 640 l 1
 810 640 l 1
 739 1043 l 1
 706 1067 l 1
 599 1077 l 1
 587 1145 l 1
 1001 1145 l 1
 1013 1077 l 1
 918 1067 l 1
 893 1043 l 1
 1059 102 l 1
 1092 79 l 1
 1191 70 l 1
 1203 0 l 1
 788 0 l 1
 776 70 l 1
 880 79 l 1
 905 102 l 1
 824 561 l 1
 237 561 l 1
 318 102 l 1
 351 79 l 1
 459 70 l 1
 471 0 l 1
 56 0 l 1
 44 70 l 1
 140 79 l 1
 165 102 l 1
 0 1043 l 1
 -34 1067 l 1
 -134 1077 l 1
 -146 1145 l 1
EndSplineSet
Validated: 1
EndChar

StartChar: I
Encoding: 73 73 207
Width: 552
VWidth: 1706
Flags: W
HStem: 0 70<60 155 368 479> 1077 68<-130 -19 194 290>
VStem: -142 634
LayerCount: 2
Fore
SplineSet
60 0 m 1
 47 70 l 1
 155 79 l 1
 180 102 l 1
 14 1043 l 1
 -19 1067 l 1
 -130 1077 l 1
 -142 1145 l 1
 290 1145 l 1
 302 1077 l 1
 194 1067 l 1
 169 1043 l 1
 335 102 l 1
 368 79 l 1
 479 70 l 1
 492 0 l 1
 60 0 l 1
EndSplineSet
Validated: 1
EndChar

StartChar: J
Encoding: 74 74 208
Width: 757
VWidth: 1706
Flags: W
HStem: -20 81<155.148 349.069> 1077 68<129 245 457 549>
VStem: 404 151<111.526 585.875>
LayerCount: 2
Fore
SplineSet
279 1043 m 1
 245 1067 l 1
 129 1077 l 1
 117 1145 l 1
 549 1145 l 1
 561 1077 l 1
 457 1067 l 1
 432 1043 l 1
 539 437 l 2
 549 378 555 325 555 278 c 0
 555 77 459 -20 248 -20 c 0
 176 -20 100 -7 17 20 c 1
 -33 305 l 1
 62 305 l 1
 141 90 l 1
 169 68 l 1
 192 63 213 61 230 61 c 0
 352 61 404 130 404 268 c 0
 404 314 398 368 387 430 c 2
 279 1043 l 1
EndSplineSet
Validated: 1
EndChar

StartChar: K
Encoding: 75 75 209
Width: 1042
VWidth: 1706
Flags: W
HStem: 0 70<56 140 351 459 932 1058> 510 70<246 299> 1077 68<-134 -34 177 269 484 582 733.869 827>
LayerCount: 2
Fore
SplineSet
56 0 m 1
 44 70 l 1
 140 79 l 1
 165 102 l 1
 0 1043 l 1
 -34 1067 l 1
 -134 1077 l 1
 -146 1145 l 1
 269 1145 l 1
 281 1077 l 1
 177 1067 l 1
 152 1043 l 1
 234 580 l 1
 299 580 l 1
 596 1043 l 1
 582 1067 l 1
 484 1077 l 1
 472 1145 l 1
 827 1145 l 1
 839 1077 l 1
 729 1062 l 1
 446 635 l 1
 932 79 l 1
 1058 70 l 1
 1070 0 l 1
 788 0 l 1
 779 51 l 1
 373 510 l 1
 246 510 l 1
 318 102 l 1
 351 79 l 1
 459 70 l 1
 471 0 l 1
 56 0 l 1
EndSplineSet
Validated: 1
EndChar

StartChar: L
Encoding: 76 76 210
Width: 887
VWidth: 1706
Flags: W
HStem: 0 79<46 140 322 708> 1077 68<-144 -34 177 261>
VStem: 720 89<229.936 311>
LayerCount: 2
Fore
SplineSet
46 0 m 1
 34 70 l 1
 140 79 l 1
 165 102 l 1
 0 1043 l 1
 -34 1067 l 1
 -144 1077 l 1
 -156 1145 l 1
 261 1145 l 1
 273 1077 l 1
 177 1067 l 1
 152 1043 l 1
 322 79 l 1
 708 79 l 1
 727 106 l 1
 720 311 l 1
 809 311 l 1
 864 0 l 1
 46 0 l 1
EndSplineSet
Validated: 1
EndChar

StartChar: M
Encoding: 77 77 211
Width: 1477
VWidth: 1706
Flags: W
HStem: 0 70<53 141 294 401 1015 1114 1302 1411> 1077 68<-139 -24 1128 1221>
LayerCount: 2
Fore
SplineSet
53 0 m 1
 41 70 l 1
 141 84 l 1
 166 116 l 1
 0 1043 l 1
 -24 1067 l 1
 -139 1077 l 1
 -151 1145 l 1
 211 1145 l 1
 219 1099 l 1
 691 242 l 1
 866 1092 l 1
 856 1145 l 1
 1221 1145 l 1
 1233 1077 l 1
 1128 1067 l 1
 1111 1043 l 1
 1277 102 l 1
 1302 79 l 1
 1411 70 l 1
 1423 0 l 1
 1015 0 l 1
 1003 70 l 1
 1114 79 l 1
 1127 102 l 1
 957 1065 l 1
 741 0 l 1
 667 0 l 1
 93 1048 l 1
 258 116 l 1
 294 84 l 1
 401 70 l 1
 413 0 l 1
 53 0 l 1
EndSplineSet
Validated: 1
EndChar

StartChar: N
Encoding: 78 78 212
Width: 1216
VWidth: 1706
Flags: W
HStem: 0 70<49 139 292 397> 1077 68<-146 -34 624 724.352 887.427 971>
LayerCount: 2
Fore
SplineSet
49 0 m 1
 37 70 l 1
 139 84 l 1
 164 116 l 1
 0 1043 l 1
 -34 1067 l 1
 -146 1077 l 1
 -158 1145 l 1
 163 1145 l 1
 171 1103 l 1
 907 229 l 1
 765 1031 l 1
 729 1062 l 1
 624 1077 l 1
 612 1145 l 1
 971 1145 l 1
 983 1077 l 1
 883 1062 l 1
 858 1031 l 1
 1039 0 l 1
 927 0 l 1
 106 969 l 1
 256 116 l 1
 292 84 l 1
 397 70 l 1
 410 0 l 1
 49 0 l 1
EndSplineSet
Validated: 1
EndChar

StartChar: O
Encoding: 79 79 213
Width: 1247
VWidth: 1706
Flags: W
HStem: -27 90<437.03 769.217> 1082 92<270.525 609.789>
VStem: -40 176<453.771 924.102> 910 177<226.591 692.125>
LayerCount: 2
Fore
SplineSet
418 1174 m 0
 565 1174 700 1123 820 1024 c 0
 954 913 1042 759 1075 573 c 0
 1083 529 1087 486 1087 445 c 0
 1087 370 1074 300 1047 236 c 0
 980 72 827 -27 629 -27 c 0
 484 -27 344 23 228 119 c 0
 92 232 5 387 -28 573 c 0
 -36 620 -40 665 -40 707 c 0
 -40 834 -4 941 67 1024 c 0
 152 1123 271 1174 418 1174 c 0
434 1082 m 0
 249 1082 136 952 136 723 c 0
 136 677 140 627 150 573 c 0
 206 256 392 63 614 63 c 0
 797 63 910 197 910 425 c 0
 910 471 905 520 896 573 c 0
 840 890 654 1082 434 1082 c 0
EndSplineSet
Validated: 1
EndChar

StartChar: P
Encoding: 80 80 214
Width: 952
VWidth: 1706
Flags: W
HStem: 0 70<56 140 351 474> 430 82<259 525.721> 1067 78<-147 -34 150.407 441.117>
VStem: 613 159<587.067 909.407>
LayerCount: 2
Fore
SplineSet
56 0 m 1
 44 70 l 1
 140 79 l 1
 165 102 l 1
 0 1043 l 1
 -34 1067 l 1
 -147 1077 l 1
 -159 1145 l 1
 230 1145 l 2
 558 1145 720 1056 766 797 c 0
 770 773 772 750 772 728 c 0
 772 548 633 430 388 430 c 0
 356 430 313 434 259 439 c 1
 318 102 l 1
 351 79 l 1
 474 70 l 1
 486 0 l 1
 56 0 l 1
244 521 m 1
 294 516 333 512 359 512 c 0
 527 512 613 586 613 726 c 0
 613 749 611 774 606 800 c 0
 574 983 455 1067 237 1067 c 0
 210 1067 179 1066 149 1063 c 1
 244 521 l 1
EndSplineSet
Validated: 1
EndChar

StartChar: Q
Encoding: 81 81 215
Width: 1247
VWidth: 1706
Flags: W
HStem: -300 78<823.121 1147.58> -19 86<444.094 557.601 710 765.249> 1084 92<271.8 611.839>
VStem: -47 179<460.782 923.173> 914 179<226.382 700.819>
LayerCount: 2
Fore
SplineSet
710 -19 m 1
 739 -154 831 -222 988 -222 c 0
 1034 -222 1086 -217 1145 -203 c 1
 1157 -273 l 1
 1070 -292 992 -300 922 -300 c 0
 705 -300 582 -210 548 -19 c 1
 247 25 22 254 -35 575 c 0
 -43 621 -47 664 -47 706 c 0
 -47 834 -9 943 65 1027 c 0
 150 1124 270 1176 417 1176 c 0
 564 1176 704 1124 824 1027 c 0
 960 916 1048 761 1081 575 c 0
 1089 529 1093 485 1093 443 c 0
 1093 194 954 22 710 -19 c 1
613 67 m 0
 801 67 914 200 914 428 c 0
 914 473 909 522 900 575 c 0
 844 892 659 1084 434 1084 c 0
 246 1084 132 953 132 724 c 0
 132 678 136 628 146 575 c 0
 202 259 389 67 613 67 c 0
EndSplineSet
Validated: 1
EndChar

StartChar: R
Encoding: 82 82 216
Width: 1102
VWidth: 1706
Flags: W
HStem: 0 70<56 140 351 450 918.939 1108> 512 77<247 508.563> 1067 78<-134 -34 148 442.914>
VStem: 593 167<653.797 936.494>
LayerCount: 2
Fore
SplineSet
-146 1145 m 1
 290 1145 l 2
 566 1145 718 1048 755 838 c 0
 758 819 760 801 760 784 c 0
 760 667 683 591 529 555 c 1
 617 533 680 496 724 440 c 0
 786 361 804 268 849 188 c 0
 904 87 962 67 1092 67 c 0
 1108 67 l 1
 1119 0 l 1
 1070 -10 1028 -14 989 -14 c 0
 912 -14 853 2 808 36 c 0
 713 108 687 219 632 328 c 0
 561 468 486 512 331 512 c 0
 305 512 277 511 247 509 c 1
 318 102 l 1
 351 79 l 1
 450 70 l 1
 463 0 l 1
 56 0 l 1
 44 70 l 1
 140 79 l 1
 165 102 l 1
 0 1043 l 1
 -34 1067 l 1
 -134 1077 l 1
 -146 1145 l 1
148 1067 m 1
 232 591 l 1
 285 589 316 589 326 589 c 0
 505 589 593 639 593 764 c 0
 593 782 591 802 587 824 c 0
 556 1001 442 1067 230 1067 c 2
 148 1067 l 1
EndSplineSet
Validated: 1
EndChar

StartChar: S
Encoding: 83 83 217
Width: 948
VWidth: 1706
Flags: W
HStem: -20 90<224.524 587.316> 1080 86<179.391 482.999>
VStem: -32 154<786.047 1026.25> 43 101<283.651 335> 649 151<129.358 371.838>
LayerCount: 2
Fore
SplineSet
96 34 m 1xe8
 43 335 l 1
 144 335 l 1xd8
 199 138 l 1
 226 109 l 1
 280 83 348 70 425 70 c 0
 573 70 649 138 649 237 c 0
 649 250 648 262 646 275 c 0
 621 417 517 447 317 527 c 0
 113 609 2 672 -27 838 c 0
 -31 858 -32 878 -32 897 c 0
 -32 1058 94 1166 310 1166 c 0
 404 1166 502 1150 608 1118 c 1
 655 853 l 1
 566 853 l 1
 512 1015 l 1
 481 1044 l 1
 434 1068 382 1080 322 1080 c 0
 194 1080 122 1017 122 916 c 0
 122 903 123 889 126 874 c 0
 146 760 235 717 404 650 c 0
 497 614 595 587 687 510 c 0
 745 461 782 398 795 323 c 0
 799 303 800 283 800 264 c 0
 800 95 658 -20 413 -20 c 0
 290 -20 181 0 96 34 c 1xe8
EndSplineSet
Validated: 1
EndChar

StartChar: T
Encoding: 84 84 218
Width: 1018
VWidth: 1706
Flags: W
HStem: 0 70<287 387 604 720> 882 263<-128 -39 742 790> 1067 78<-19 244 399 662>
VStem: -128 94<882 962.221> 742 94<882 925.835>
LayerCount: 2
Fore
SplineSet
-175 1145 m 1xb8
 790 1145 l 1
 836 882 l 1
 742 882 l 1xd8
 690 1041 l 1
 662 1067 l 1
 399 1067 l 1
 569 102 l 1
 604 79 l 1
 720 70 l 1
 732 0 l 1
 287 0 l 1
 274 70 l 1
 387 79 l 1
 414 102 l 1
 244 1067 l 1
 -19 1067 l 1xb8
 -39 1041 l 1
 -34 882 l 1
 -128 882 l 1xd8
 -175 1145 l 1xb8
EndSplineSet
Validated: 1
EndChar

StartChar: U
Encoding: 85 85 219
Width: 1184
VWidth: 1706
Flags: W
HStem: -20 105<419.881 791.677> 1077 68<-147 -48 167 259 609 709.352 874.382 957>
VStem: 870 100<159.082 566.141>
LayerCount: 2
Fore
SplineSet
-159 1145 m 1
 259 1145 l 1
 271 1077 l 1
 167 1067 l 1
 140 1043 l 1
 249 425 l 2
 290 193 397 85 615 85 c 0
 791 85 870 158 870 312 c 0
 870 346 866 383 859 425 c 2
 752 1031 l 1
 714 1062 l 1
 609 1077 l 1
 597 1145 l 1
 957 1145 l 1
 969 1077 l 1
 870 1062 l 1
 844 1031 l 1
 953 410 l 2
 963 354 970 303 970 257 c 0
 970 202 960 153 931 109 c 0
 880 30 763 -20 601 -20 c 0
 439 -20 304 30 225 109 c 0
 144 189 119 284 97 410 c 2
 -15 1043 l 1
 -48 1067 l 1
 -147 1077 l 1
 -159 1145 l 1
EndSplineSet
Validated: 1
EndChar

StartChar: V
Encoding: 86 86 220
Width: 1054
VWidth: 1706
Flags: W
HStem: -9 21G<461.939 593.85> 1077 68<-229 -151.859 71 156 558 665 827.368 885>
LayerCount: 2
Fore
SplineSet
-241 1145 m 1
 156 1145 l 1
 169 1077 l 1
 71 1067 l 1
 57 1043 l 1
 529 183 l 1
 687 1043 l 1
 665 1067 l 1
 558 1077 l 1
 546 1145 l 1
 885 1145 l 1
 897 1077 l 1
 795 1056 l 1
 590 -9 l 1
 473 -9 l 1
 -116 1056 l 1
 -229 1077 l 1
 -241 1145 l 1
EndSplineSet
Validated: 1
EndChar

StartChar: W
Encoding: 87 87 221
Width: 1583
VWidth: 1706
Flags: W
HStem: 0 21G<385.035 511.527 1070.3 1197.63> 1077 68<-190 -123.099 87 180 1039 1119.55 1326.29 1380>
LayerCount: 2
Fore
SplineSet
394 0 m 1
 -78 1053 l 1
 -190 1077 l 1
 -202 1145 l 1
 180 1145 l 1
 192 1077 l 1
 87 1063 l 1
 78 1039 l 1
 437 251 l 1
 554 1145 l 1
 674 1145 l 1
 1114 232 l 1
 1180 1033 l 1
 1157 1056 l 1
 1039 1077 l 1
 1027 1145 l 1
 1380 1145 l 1
 1392 1077 l 1
 1282 1053 l 1
 1196 0 l 1
 1080 0 l 1
 627 934 l 1
 509 0 l 1
 394 0 l 1
EndSplineSet
Validated: 1
EndChar

StartChar: X
Encoding: 88 88 222
Width: 1024
VWidth: 1706
Flags: W
HStem: 0 70<-15 43.0284 220 336 608 707 940.984 1027> 1077 68<-171 -95.4102 140 228 476 572.529 734.611 812>
LayerCount: 2
Fore
SplineSet
-183 1145 m 1
 228 1145 l 1
 240 1077 l 1
 140 1067 l 1
 130 1046 l 1
 415 695 l 1
 597 1039 l 1
 577 1062 l 1
 476 1077 l 1
 464 1145 l 1
 812 1145 l 1
 824 1077 l 1
 718 1060 l 1
 484 614 l 1
 907 90 l 1
 1027 70 l 1
 1039 0 l 1
 608 0 l 1
 595 70 l 1
 707 82 l 1
 715 106 l 1
 406 493 l 1
 204 111 l 1
 220 80 l 1
 336 70 l 1
 348 0 l 1
 -15 0 l 1
 -28 70 l 1
 81 92 l 1
 340 572 l 1
 -55 1055 l 1
 -171 1077 l 1
 -183 1145 l 1
EndSplineSet
Validated: 1
EndChar

